<?xml version="1.0" encoding="utf-8"?>
<!-- Generator: Adobe Illustrator 23.0.0, SVG Export Plug-In . SVG Version: 6.00 Build 0)  -->
<svg version="1.1" id="Layer_1" xmlns="http://www.w3.org/2000/svg" xmlns:xlink="http://www.w3.org/1999/xlink" x="0px" y="0px"
	 viewBox="0 0 396 288" style="enable-background:new 0 0 396 288;" xml:space="preserve">
<style type="text/css">
	.st0{fill:none;}
	.st1{fill:#FF3A65;}
	.st2{fill:#09CED6;}
	.st3{fill:#FFFFFF;}
	.st4{fill:#2A2833;}
	.st5{fill:#FFD000;}
	.st6{fill:#1B3C61;}
	.st7{fill:#09C793;}
</style>
<g>
	<rect x="0" class="st0" width="396" height="288"/>
	<g>
		<g>
			<polygon class="st1" points="48.2,78.3 142.9,100.9 129,65.9 			"/>
			<polygon class="st2" points="277,78.5 48.2,78.3 47.9,29.1 277,21.8 			"/>
			<g>
				<path d="M53.9,24.5c-0.2,0-0.4-0.2-0.4-0.4c0-0.2,0.2-0.4,0.4-0.5l107.3-3.5c0.3,0,0.4,0.2,0.5,0.4c0,0.2-0.2,0.4-0.4,0.5
					L53.9,24.5C53.9,24.5,53.9,24.5,53.9,24.5z"/>
			</g>
			<g>
				<path d="M145.6,97.5c-0.2,0-0.3-0.1-0.4-0.3l-5.8-15c-0.1-0.1,0-0.3,0-0.4c0.1-0.1,0.2-0.2,0.4-0.2l62.5-0.2c0,0,0,0,0,0
					c0.2,0,0.4,0.2,0.4,0.4c0,0.2-0.2,0.4-0.4,0.4l-61.9,0.2l5.6,14.4c0.1,0.2,0,0.5-0.3,0.6C145.7,97.5,145.6,97.5,145.6,97.5z"/>
			</g>
			<g>
				<path d="M71.1,88.5c0,0-0.1,0-0.1,0l-26.6-6.6c-0.2,0-0.3-0.2-0.3-0.4l-0.2-24.2c0-0.2,0.2-0.4,0.4-0.4c0,0,0,0,0,0
					c0.2,0,0.4,0.2,0.4,0.4l0.2,23.9l26.2,6.6c0.2,0.1,0.4,0.3,0.3,0.5C71.4,88.3,71.3,88.5,71.1,88.5z"/>
			</g>
			<g>
				<path class="st3" d="M180.8,30.6c-0.2,0-0.4-0.2-0.4-0.4c0-0.2,0.2-0.4,0.4-0.5l90.3-2.9c0.2,0,0.4,0.2,0.5,0.4
					c0,0.2-0.2,0.4-0.4,0.5L180.8,30.6C180.9,30.6,180.8,30.6,180.8,30.6z"/>
			</g>
			<g>
				<path d="M280.2,82.6C280.2,82.6,280.2,82.6,280.2,82.6l-27.9-0.2c-0.2,0-0.4-0.2-0.4-0.4c0-0.2,0.2-0.4,0.4-0.4c0,0,0,0,0,0
					l27.4,0.2V56.5c0-0.2,0.2-0.4,0.4-0.4c0.2,0,0.4,0.2,0.4,0.4v25.6c0,0.1,0,0.2-0.1,0.3C280.4,82.6,280.3,82.6,280.2,82.6z"/>
			</g>
			<g>
				<path d="M286.9,32.1c-1.5,0-2.7-1.2-2.7-2.7s1.2-2.7,2.7-2.7s2.7,1.2,2.7,2.7S288.4,32.1,286.9,32.1z M286.9,27.6
					c-1,0-1.8,0.8-1.8,1.8c0,1,0.8,1.8,1.8,1.8s1.8-0.8,1.8-1.8C288.8,28.4,287.9,27.6,286.9,27.6z"/>
			</g>
			<g>
				<path d="M169.9,20.1c-1.5,0-2.7-1.2-2.7-2.7c0-1.5,1.2-2.7,2.7-2.7c1.5,0,2.7,1.2,2.7,2.7C172.6,18.9,171.4,20.1,169.9,20.1z
					 M169.9,15.5c-1,0-1.8,0.8-1.8,1.8c0,1,0.8,1.8,1.8,1.8c1,0,1.8-0.8,1.8-1.8C171.7,16.3,170.9,15.5,169.9,15.5z"/>
			</g>
			<g>
				<path d="M37.1,50.7c-0.1,0-0.2,0-0.2-0.1c-0.1-0.1-0.2-0.2-0.2-0.4v-4.1c0-0.2,0.1-0.3,0.2-0.4c0.1-0.1,0.3-0.1,0.4,0l3.5,2
					c0.1,0.1,0.2,0.2,0.2,0.4c0,0.2-0.1,0.3-0.2,0.4l-3.5,2C37.2,50.6,37.2,50.7,37.1,50.7z M37.5,46.9v2.6l2.2-1.3L37.5,46.9z"/>
			</g>
			<g>
				<path d="M230.8,88.3c-0.1,0-0.2,0-0.2-0.1l-3.5-2c-0.1-0.1-0.2-0.2-0.2-0.4c0-0.2,0.1-0.3,0.2-0.4l3.5-2c0.1-0.1,0.3-0.1,0.4,0
					c0.1,0.1,0.2,0.2,0.2,0.4v4.1c0,0.2-0.1,0.3-0.2,0.4C231,88.3,230.9,88.3,230.8,88.3z M228.2,85.9l2.2,1.3v-2.6L228.2,85.9z"/>
			</g>
			<g>
				<path d="M60.7,20.6c-0.2,0-0.4-0.2-0.4-0.4c0-0.2,0.2-0.4,0.4-0.5l73.6-2.7c0.2,0,0.4,0.2,0.5,0.4c0,0.2-0.2,0.4-0.4,0.5
					L60.7,20.6C60.7,20.6,60.7,20.6,60.7,20.6z"/>
			</g>
			<g>
				<path d="M171.6,86.6c-0.2,0-0.4-0.2-0.4-0.4c0-0.2,0.2-0.4,0.4-0.4l42.8-0.2c0,0,0,0,0,0c0.2,0,0.4,0.2,0.4,0.4
					c0,0.2-0.2,0.4-0.4,0.4L171.6,86.6C171.6,86.6,171.6,86.6,171.6,86.6z"/>
			</g>
		</g>
	</g>
	<g>
		<g>
			<polygon class="st4" points="370.1,166 275.4,188.6 289.3,153.6 			"/>
			<polygon class="st5" points="141.3,166.2 370.1,166 370.4,116.8 141.3,109.5 			"/>
			<g>
				<path d="M364.4,112.2C364.4,112.2,364.4,112.2,364.4,112.2l-107.3-3.5c-0.2,0-0.4-0.2-0.4-0.5c0-0.2,0.2-0.4,0.5-0.4l107.3,3.5
					c0.2,0,0.4,0.2,0.4,0.5C364.8,112,364.6,112.2,364.4,112.2z"/>
			</g>
			<g>
				<path d="M272.7,185.2c-0.1,0-0.1,0-0.2,0c-0.2-0.1-0.3-0.3-0.3-0.6l5.6-14.4l-61.9-0.2c-0.2,0-0.4-0.2-0.4-0.4
					c0-0.2,0.2-0.4,0.4-0.4c0,0,0,0,0,0l62.5,0.2c0.1,0,0.3,0.1,0.4,0.2c0.1,0.1,0.1,0.3,0,0.4l-5.8,15
					C273.1,185.1,272.9,185.2,272.7,185.2z"/>
			</g>
			<g>
				<path d="M347.2,176.2c-0.2,0-0.4-0.1-0.4-0.3c-0.1-0.2,0.1-0.5,0.3-0.5l26.2-6.6l0.2-23.9c0-0.2,0.2-0.4,0.4-0.4
					c0.2,0,0.4,0.2,0.4,0.4l-0.2,24.2c0,0.2-0.1,0.4-0.3,0.4l-26.6,6.6C347.3,176.2,347.3,176.2,347.2,176.2z"/>
			</g>
			<g>
				<path class="st3" d="M237.4,118.3C237.4,118.3,237.4,118.3,237.4,118.3l-90.3-2.9c-0.2,0-0.4-0.2-0.4-0.5c0-0.2,0.2-0.4,0.5-0.4
					l90.3,2.9c0.2,0,0.4,0.2,0.4,0.5C237.9,118.1,237.7,118.3,237.4,118.3z"/>
			</g>
			<g>
				<path d="M138.1,170.3c-0.1,0-0.2,0-0.3-0.1c-0.1-0.1-0.1-0.2-0.1-0.3v-25.6c0-0.2,0.2-0.4,0.4-0.4c0.2,0,0.4,0.2,0.4,0.4v25.2
					l27.4-0.2c0.2,0,0.4,0.2,0.4,0.4c0,0.2-0.2,0.4-0.4,0.4L138.1,170.3C138.1,170.3,138.1,170.3,138.1,170.3z"/>
			</g>
			<g>
				<path d="M131.4,119.8c-1.5,0-2.7-1.2-2.7-2.7c0-1.5,1.2-2.7,2.7-2.7c1.5,0,2.7,1.2,2.7,2.7C134.1,118.6,132.9,119.8,131.4,119.8
					z M131.4,115.3c-1,0-1.8,0.8-1.8,1.8c0,1,0.8,1.8,1.8,1.8s1.8-0.8,1.8-1.8C133.2,116.1,132.4,115.3,131.4,115.3z"/>
			</g>
			<g>
				<path d="M248.4,107.8c-1.5,0-2.7-1.2-2.7-2.7s1.2-2.7,2.7-2.7c1.5,0,2.7,1.2,2.7,2.7S249.9,107.8,248.4,107.8z M248.4,103.2
					c-1,0-1.8,0.8-1.8,1.8s0.8,1.8,1.8,1.8c1,0,1.8-0.8,1.8-1.8S249.4,103.2,248.4,103.2z"/>
			</g>
			<g>
				<path d="M381.2,138.4c-0.1,0-0.2,0-0.2-0.1l-3.5-2c-0.1-0.1-0.2-0.2-0.2-0.4c0-0.2,0.1-0.3,0.2-0.4l3.5-2c0.1-0.1,0.3-0.1,0.4,0
					c0.1,0.1,0.2,0.2,0.2,0.4v4.1c0,0.2-0.1,0.3-0.2,0.4C381.3,138.3,381.3,138.4,381.2,138.4z M378.5,135.9l2.2,1.3v-2.6
					L378.5,135.9z"/>
			</g>
			<g>
				<path d="M187.4,176c-0.1,0-0.2,0-0.2-0.1c-0.1-0.1-0.2-0.2-0.2-0.4v-4.1c0-0.2,0.1-0.3,0.2-0.4c0.1-0.1,0.3-0.1,0.4,0l3.5,2
					c0.1,0.1,0.2,0.2,0.2,0.4c0,0.2-0.1,0.3-0.2,0.4l-3.5,2C187.6,176,187.5,176,187.4,176z M187.9,172.3v2.6l2.2-1.3L187.9,172.3z"
					/>
			</g>
			<g>
				<path d="M357.6,108.3C357.6,108.3,357.6,108.3,357.6,108.3l-73.7-2.7c-0.2,0-0.4-0.2-0.4-0.5c0-0.2,0.2-0.4,0.5-0.4l73.6,2.7
					c0.2,0,0.4,0.2,0.4,0.5C358,108.2,357.8,108.3,357.6,108.3z"/>
			</g>
			<g>
				<path d="M246.7,174.2C246.7,174.2,246.7,174.2,246.7,174.2l-42.8-0.2c-0.2,0-0.4-0.2-0.4-0.4c0-0.2,0.2-0.4,0.4-0.4c0,0,0,0,0,0
					l42.8,0.2c0.2,0,0.4,0.2,0.4,0.4C247.1,174.1,246.9,174.2,246.7,174.2z"/>
			</g>
		</g>
	</g>
	<g>
		<g>
			<polygon class="st6" points="48.2,252.5 142.9,275 129,240 			"/>
			<polygon class="st7" points="277,252.7 48.2,252.5 47.9,203.2 277,196 			"/>
			<g>
				<path d="M53.9,198.7c-0.2,0-0.4-0.2-0.4-0.4c0-0.2,0.2-0.4,0.4-0.5l107.3-3.5c0.2,0,0.4,0.2,0.5,0.4c0,0.2-0.2,0.4-0.4,0.5
					L53.9,198.7C53.9,198.7,53.9,198.7,53.9,198.7z"/>
			</g>
			<g>
				<path d="M145.6,271.7c-0.2,0-0.3-0.1-0.4-0.3l-5.8-15c-0.1-0.1,0-0.3,0-0.4c0.1-0.1,0.2-0.2,0.4-0.2l62.5-0.2c0,0,0,0,0,0
					c0.2,0,0.4,0.2,0.4,0.4c0,0.2-0.2,0.4-0.4,0.4l-61.9,0.2l5.6,14.4c0.1,0.2,0,0.5-0.3,0.6C145.7,271.7,145.6,271.7,145.6,271.7z"
					/>
			</g>
			<g>
				<path d="M71.1,262.6c0,0-0.1,0-0.1,0L44.4,256c-0.2,0-0.3-0.2-0.3-0.4l-0.2-24.2c0-0.2,0.2-0.4,0.4-0.4c0,0,0,0,0,0
					c0.2,0,0.4,0.2,0.4,0.4l0.2,23.9l26.2,6.6c0.2,0.1,0.4,0.3,0.3,0.5C71.4,262.5,71.3,262.6,71.1,262.6z"/>
			</g>
			<g>
				<path class="st3" d="M180.8,204.7c-0.2,0-0.4-0.2-0.4-0.4c0-0.2,0.2-0.4,0.4-0.5l90.3-2.9c0.2,0,0.4,0.2,0.5,0.4
					c0,0.2-0.2,0.4-0.4,0.5L180.8,204.7C180.9,204.7,180.8,204.7,180.8,204.7z"/>
			</g>
			<g>
				<path d="M280.2,256.8C280.2,256.8,280.2,256.8,280.2,256.8l-27.9-0.2c-0.2,0-0.4-0.2-0.4-0.4c0-0.2,0.2-0.4,0.4-0.4c0,0,0,0,0,0
					l27.4,0.2v-25.2c0-0.2,0.2-0.4,0.4-0.4c0.2,0,0.4,0.2,0.4,0.4v25.6c0,0.1,0,0.2-0.1,0.3C280.4,256.7,280.3,256.8,280.2,256.8z"
					/>
			</g>
			<g>
				<path d="M286.9,206.3c-1.5,0-2.7-1.2-2.7-2.7c0-1.5,1.2-2.7,2.7-2.7s2.7,1.2,2.7,2.7C289.6,205.1,288.4,206.3,286.9,206.3z
					 M286.9,201.7c-1,0-1.8,0.8-1.8,1.8c0,1,0.8,1.8,1.8,1.8s1.8-0.8,1.8-1.8C288.8,202.6,287.9,201.7,286.9,201.7z"/>
			</g>
			<g>
				<path d="M169.9,194.2c-1.5,0-2.7-1.2-2.7-2.7c0-1.5,1.2-2.7,2.7-2.7c1.5,0,2.7,1.2,2.7,2.7C172.6,193,171.4,194.2,169.9,194.2z
					 M169.9,189.7c-1,0-1.8,0.8-1.8,1.8c0,1,0.8,1.8,1.8,1.8c1,0,1.8-0.8,1.8-1.8C171.7,190.5,170.9,189.7,169.9,189.7z"/>
			</g>
			<g>
				<path d="M37.1,224.8c-0.1,0-0.2,0-0.2-0.1c-0.1-0.1-0.2-0.2-0.2-0.4v-4.1c0-0.2,0.1-0.3,0.2-0.4c0.1-0.1,0.3-0.1,0.4,0l3.5,2
					c0.1,0.1,0.2,0.2,0.2,0.4c0,0.2-0.1,0.3-0.2,0.4l-3.5,2C37.2,224.8,37.2,224.8,37.1,224.8z M37.5,221.1v2.6l2.2-1.3L37.5,221.1z
					"/>
			</g>
			<g>
				<path d="M230.8,262.5c-0.1,0-0.2,0-0.2-0.1l-3.5-2c-0.1-0.1-0.2-0.2-0.2-0.4c0-0.2,0.1-0.3,0.2-0.4l3.5-2c0.1-0.1,0.3-0.1,0.4,0
					c0.1,0.1,0.2,0.2,0.2,0.4v4.1c0,0.2-0.1,0.3-0.2,0.4C231,262.5,230.9,262.5,230.8,262.5z M228.2,260l2.2,1.3v-2.6L228.2,260z"/>
			</g>
			<g>
				<path d="M60.7,194.8c-0.2,0-0.4-0.2-0.4-0.4c0-0.2,0.2-0.4,0.4-0.5l73.6-2.7c0.2,0,0.4,0.2,0.5,0.4c0,0.2-0.2,0.4-0.4,0.5
					L60.7,194.8C60.7,194.8,60.7,194.8,60.7,194.8z"/>
			</g>
			<g>
				<path d="M171.6,260.7c-0.2,0-0.4-0.2-0.4-0.4c0-0.2,0.2-0.4,0.4-0.4l42.8-0.2c0,0,0,0,0,0c0.2,0,0.4,0.2,0.4,0.4
					c0,0.2-0.2,0.4-0.4,0.4L171.6,260.7C171.6,260.7,171.6,260.7,171.6,260.7z"/>
			</g>
		</g>
	</g>
</g>
<g>
	<path class="st3" d="M115.8,61.2v4.3c-0.9,0.3-1.7,0.4-2.4,0.4c-2.4,0-4.4-0.9-5.9-2.7c-1.5-1.8-2.2-4.1-2.2-7
		c0-2.7,0.8-4.9,2.3-6.7c1.5-1.7,3.4-2.6,5.7-2.6c0.9,0,1.7,0.1,2.5,0.4v4.3c-0.8-0.3-1.5-0.4-2.3-0.4c-1.1,0-2,0.5-2.7,1.5
		c-0.7,1-1.1,2.2-1.1,3.7c0,1.6,0.4,2.9,1.1,3.8c0.7,0.9,1.7,1.4,2.9,1.4C114.3,61.6,115,61.4,115.8,61.2z"/>
	<path class="st3" d="M124.4,65.9c-2.2,0-3.9-0.8-5.1-2.5c-1.2-1.7-1.7-4.1-1.7-7.2c0-2.9,0.6-5.2,1.8-6.8c1.2-1.6,2.8-2.4,4.9-2.4
		c2.2,0,3.9,0.8,5.1,2.4c1.2,1.6,1.8,4,1.8,7c0,3-0.6,5.4-1.7,7C128.2,65,126.6,65.9,124.4,65.9z M124.3,51c-1.5,0-2.3,1.7-2.3,5.2
		c0,2.2,0.2,3.7,0.6,4.5c0.4,0.7,0.9,1.1,1.7,1.1c0.8,0,1.4-0.4,1.8-1.1c0.4-0.7,0.6-2.2,0.6-4.4C126.7,52.7,125.9,51,124.3,51z"/>
	<path class="st3" d="M146.5,65.4h-4.3l-0.7-3h-4.4l-0.7,3h-4.2l4.9-18h4.7L146.5,65.4z M140.7,59.2c-0.6-2.7-1.1-5.2-1.4-7.6h-0.1
		c-0.3,2.5-0.8,5-1.4,7.6H140.7z"/>
	<path class="st3" d="M157.7,61.2v4.3c-0.9,0.3-1.7,0.4-2.4,0.4c-2.4,0-4.4-0.9-5.9-2.7c-1.5-1.8-2.2-4.1-2.2-7
		c0-2.7,0.8-4.9,2.3-6.7c1.5-1.7,3.4-2.6,5.7-2.6c0.9,0,1.7,0.1,2.5,0.4v4.3c-0.8-0.3-1.5-0.4-2.3-0.4c-1.1,0-2,0.5-2.7,1.5
		c-0.7,1-1.1,2.2-1.1,3.7c0,1.6,0.4,2.9,1.1,3.8c0.7,0.9,1.7,1.4,2.9,1.4C156.2,61.6,156.9,61.4,157.7,61.2z"/>
	<path class="st3" d="M160.4,47.4h4.2v6.7h3.7v-6.7h4.2v18h-4.2v-7.5h-3.7v7.5h-4.2V47.4z"/>
	<path class="st3" d="M176.5,47.4h4.2v18h-4.2V47.4z"/>
	<path class="st3" d="M184.7,47.4h4.2l5.3,10.4l-0.2-1.9v-8.4h4.2v18H194l-5.2-10.2l0.1,2.2v8h-4.2V47.4z"/>
	<path class="st3" d="M214.8,55.3v3c0,2.3-0.6,4.2-1.7,5.5c-1.1,1.3-2.7,2-4.7,2c-2.2,0-4-0.8-5.2-2.5c-1.2-1.6-1.8-4-1.8-7.1
		c0-3.1,0.6-5.4,1.8-7c1.2-1.6,3-2.4,5.3-2.4c2.6,0,4.5,1.4,5.7,4.1l-4,1.6c-0.3-0.6-0.6-1-0.9-1.3c-0.3-0.3-0.7-0.4-1.2-0.4
		c-0.8,0-1.4,0.4-1.8,1.3c-0.4,0.9-0.5,2.3-0.5,4.2c0,1.8,0.2,3.1,0.6,4c0.4,0.8,1,1.3,1.9,1.3c1.4,0,2.1-1,2.2-2.9h-1.9v-3.5H214.8
		z"/>
</g>
<g>
	<path class="st4" d="M216.2,146.8v-4.2c1.2,0.8,2.3,1.1,3.1,1.1c0.5,0,0.9-0.1,1.2-0.4s0.4-0.7,0.4-1.1c0-0.4-0.1-0.7-0.3-1
		s-0.6-0.7-1.2-1.1c-1.4-1.1-2.3-2.1-3-3c-0.6-0.9-0.9-2-0.9-3.1c0-1.6,0.5-2.8,1.4-3.8c0.9-1,2.2-1.5,3.7-1.5
		c1.1,0,2.2,0.2,3.3,0.7v4c-1.2-0.7-2.1-1-2.8-1c-0.5,0-0.9,0.1-1.2,0.4c-0.3,0.2-0.4,0.6-0.4,1c0,0.8,0.7,1.6,2,2.5
		c0.8,0.6,1.6,1.3,2.4,2.3c0.8,1,1.2,2.2,1.2,3.5c0,1.6-0.5,2.8-1.6,3.9c-1,1-2.4,1.5-4,1.5C218.4,147.6,217.3,147.4,216.2,146.8z"
		/>
	<path class="st4" d="M237,142.9v4.3c-0.8,0.3-1.6,0.4-2.2,0.4c-2.3,0-4.1-0.9-5.5-2.7c-1.4-1.8-2.1-4.1-2.1-7
		c0-2.7,0.7-4.9,2.1-6.6c1.4-1.7,3.2-2.6,5.4-2.6c0.9,0,1.6,0.1,2.3,0.3v4.3c-0.8-0.3-1.5-0.4-2.1-0.4c-1,0-1.9,0.5-2.5,1.5
		c-0.7,1-1,2.2-1,3.7c0,1.6,0.3,2.9,1,3.8s1.6,1.4,2.7,1.4C235.6,143.3,236.2,143.2,237,142.9z"/>
	<path class="st4" d="M239.7,129.2h3.9v18h-3.9V129.2z"/>
	<path class="st4" d="M247.5,129.2h8v3.8h-4v3.3h3.5v3.7h-3.5v3.3h4.1v3.8h-8V129.2z"/>
	<path class="st4" d="M258.6,129.2h4l5,10.4l-0.1-1.9v-8.4h3.9v18h-4l-4.9-10.2l0.1,2.2v8h-3.9V129.2z"/>
	<path class="st4" d="M284.2,142.9v4.3c-0.8,0.3-1.6,0.4-2.2,0.4c-2.3,0-4.1-0.9-5.5-2.7c-1.4-1.8-2.1-4.1-2.1-7
		c0-2.7,0.7-4.9,2.1-6.6c1.4-1.7,3.2-2.6,5.4-2.6c0.9,0,1.6,0.1,2.3,0.3v4.3c-0.8-0.3-1.5-0.4-2.1-0.4c-1,0-1.9,0.5-2.5,1.5
		c-0.7,1-1,2.2-1,3.7c0,1.6,0.3,2.9,1,3.8s1.6,1.4,2.7,1.4C282.8,143.3,283.5,143.2,284.2,142.9z"/>
	<path class="st4" d="M286.8,129.2h8v3.8h-4v3.3h3.5v3.7h-3.5v3.3h4.1v3.8h-8V129.2z"/>
</g>
<g>
	<path class="st3" d="M111.4,232.2v4.3c-0.8,0.3-1.6,0.4-2.2,0.4c-2.3,0-4.1-0.9-5.5-2.7c-1.4-1.8-2.1-4.1-2.1-7
		c0-2.7,0.7-4.9,2.1-6.6c1.4-1.7,3.2-2.6,5.4-2.6c0.8,0,1.6,0.1,2.3,0.3v4.3c-0.8-0.3-1.5-0.4-2.1-0.4c-1,0-1.9,0.5-2.5,1.5
		c-0.7,1-1,2.2-1,3.7c0,1.6,0.3,2.9,1,3.8c0.7,0.9,1.6,1.4,2.7,1.4C110,232.6,110.6,232.5,111.4,232.2z"/>
	<path class="st3" d="M119.6,236.9c-2.1,0-3.7-0.8-4.8-2.5s-1.7-4.1-1.7-7.2c0-2.9,0.6-5.2,1.7-6.8c1.1-1.6,2.6-2.4,4.6-2.4
		c2.1,0,3.7,0.8,4.8,2.4c1.1,1.6,1.7,3.9,1.7,7c0,3-0.5,5.4-1.6,7S121.6,236.9,119.6,236.9z M119.4,222.1c-1.4,0-2.1,1.7-2.1,5.2
		c0,2.2,0.2,3.7,0.5,4.5c0.4,0.7,0.9,1.1,1.6,1.1c0.7,0,1.3-0.4,1.7-1.1c0.4-0.7,0.6-2.2,0.6-4.4
		C121.7,223.8,120.9,222.1,119.4,222.1z"/>
	<path class="st3" d="M130.1,218.5h5c0.7,3.9,1.3,7.2,1.7,10l0.4-2.8c0.2-1.1,0.4-2.1,0.6-3.2l0.8-4h5.1l2,18h-3.9l-1.1-12.4
		l-2.4,12.4h-2.7l-2.5-12.4l-1,12.4h-3.7L130.1,218.5z"/>
	<path class="st3" d="M149.9,218.5h5c0.7,3.9,1.3,7.2,1.7,10l0.4-2.8c0.2-1.1,0.4-2.1,0.6-3.2l0.8-4h5.1l2,18h-3.9l-1.1-12.4
		l-2.4,12.4h-2.7l-2.5-12.4l-1,12.4h-3.7L149.9,218.5z"/>
	<path class="st3" d="M168.5,218.5h8v3.8h-4v3.3h3.5v3.7h-3.5v3.3h4.1v3.8h-8V218.5z"/>
	<path class="st3" d="M179.6,218.5h4.6c1.9,0,3.3,0.5,4.4,1.5c1.1,1,1.6,2.3,1.6,4c0,0.9-0.2,1.7-0.6,2.5c-0.4,0.8-1,1.4-1.8,1.8
		l3.1,8.1h-4.2l-3.2-8.2h-0.1v8.2h-3.9V218.5z M183.6,222v4.3c1.7,0,2.6-0.7,2.6-1.9c0-0.8-0.2-1.4-0.6-1.8
		C185.2,222.2,184.5,222,183.6,222z"/>
	<path class="st3" d="M202.3,232.2v4.3c-0.8,0.3-1.6,0.4-2.2,0.4c-2.3,0-4.1-0.9-5.5-2.7c-1.4-1.8-2.1-4.1-2.1-7
		c0-2.7,0.7-4.9,2.1-6.6c1.4-1.7,3.2-2.6,5.4-2.6c0.8,0,1.6,0.1,2.3,0.3v4.3c-0.8-0.3-1.5-0.4-2.1-0.4c-1,0-1.9,0.5-2.5,1.5
		c-0.7,1-1,2.2-1,3.7c0,1.6,0.3,2.9,1,3.8c0.7,0.9,1.6,1.4,2.7,1.4C201,232.6,201.6,232.5,202.3,232.2z"/>
	<path class="st3" d="M204.9,218.5h8v3.8h-4v3.3h3.5v3.7h-3.5v3.3h4.1v3.8h-8V218.5z"/>
</g>
</svg>
