<?xml version="1.0" encoding="utf-8"?>
<!-- Generator: Adobe Illustrator 23.0.0, SVG Export Plug-In . SVG Version: 6.00 Build 0)  -->
<svg version="1.1" xmlns="http://www.w3.org/2000/svg" xmlns:xlink="http://www.w3.org/1999/xlink" x="0px" y="0px"
	 viewBox="0 0 389.4 345.5" style="enable-background:new 0 0 389.4 345.5;" xml:space="preserve">
<style type="text/css">
	.Drop_x0020_Shadow{fill:none;}
	.Round_x0020_Corners_x0020_2_x0020_pt{fill:#FFFFFF;stroke:#231F20;stroke-miterlimit:10;}
	.Live_x0020_Reflect_x0020_X{fill:none;}
	.Bevel_x0020_Soft{fill:url(#SVGID_1_);}
	.Dusk{fill:#FFFFFF;}
	.Foliage_GS{fill:#FFDD00;}
	.Pompadour_GS{fill-rule:evenodd;clip-rule:evenodd;fill:#44ADE2;}
	.st0{fill:#FFFFFF;}
	.st1{fill:#ADDFFF;}
	.st2{fill:#374953;}
	.st3{fill:#E2413E;}
	.st4{fill:#FFD800;}
	.st5{fill:#00AC65;}
	.st6{fill:#A4C639;}
	.st7{fill:#8B9EA5;}
</style>
<linearGradient id="SVGID_1_" gradientUnits="userSpaceOnUse" x1="-209.4507" y1="-206.7465" x2="-208.7436" y2="-206.0394">
	<stop  offset="0" style="stop-color:#DEDFE3"/>
	<stop  offset="0.1783" style="stop-color:#DADBDF"/>
	<stop  offset="0.3611" style="stop-color:#CECFD3"/>
	<stop  offset="0.546" style="stop-color:#B9BCBF"/>
	<stop  offset="0.7324" style="stop-color:#9CA0A2"/>
	<stop  offset="0.9181" style="stop-color:#787D7E"/>
	<stop  offset="1" style="stop-color:#656B6C"/>
</linearGradient>
<g id="Background">
	<rect x="-59.5" y="-56.7" class="st0" width="500" height="500"/>
</g>
<g id="Objects">
	<g>
		<path class="st1" d="M190.5,34.2L190.5,34.2c-76.9,0-139.2,62.3-139.2,139.2v51.4h278.3v-51.4C329.7,96.5,267.4,34.2,190.5,34.2z"
			/>
		<g>
			<path class="st2" d="M127.2,108.5c0,0.4-0.1,1.2-0.2,2.2c-0.2,1.2-0.3,1.9-0.5,2.1c-0.1,0.2-0.3,0.3-0.5,0.3c-0.1,0-0.2,0-0.4,0
				c-0.7-0.1-2.7-0.1-6-0.1c-0.7,0-1.8,0-3.2,0s-2.5,0-3.2,0c-0.3,0-0.5-0.1-0.5-0.4c0-1.1,0.1-2.6,0.2-4.8c0.1-2.1,0.2-3.7,0.2-4.8
				c0-1.1-0.1-3.1-0.2-6c0-0.8-0.1-1.9-0.2-3.4l0-0.2c0-0.2,0.1-0.3,0.4-0.3c0.7,0,1.7,0,3.2,0.1c1.4,0,2.5,0.1,3.2,0.1
				c0.7,0,1.7,0,3.1-0.1s2.4-0.1,3.1-0.1c0.5,0,0.8,0.2,0.8,0.6c0,0.2,0.1,0.9,0.2,2c0.1,1.1,0.1,1.8,0.1,2c0,0.2-0.1,0.3-0.3,0.3
				c-0.1,0-0.2,0-0.3,0c-2.5-0.2-4.8-0.3-6.8-0.3c-0.5,0-0.8,0.1-0.9,0.4c0,0.1-0.1,0.5-0.1,1.1c0,0.6,0.1,1.1,0.3,1.3
				c0.2,0.2,0.5,0.3,0.9,0.3c0.1,0,0.3,0,0.6,0c0.3,0,0.5,0,0.7,0c1.2,0,2.4,0,3.6-0.1c0.1,0,0.4,0,0.8-0.1c0.3,0,0.6-0.1,0.8-0.1
				c0.2,0,0.3,0.1,0.3,0.3c0-0.2-0.1,0.5-0.3,2.2c-0.1,0.8-0.1,1.5-0.1,2.3c0,0.2-0.1,0.3-0.4,0.3l-1.3-0.1
				c-0.5-0.1-1.8-0.1-3.7-0.1h-1.5c-0.4,0-0.6,0.1-0.7,0.3c0,0,0,0.3,0,0.9c0,0.7,0,1.2,0.1,1.4c0.2,0.4,0.8,0.6,1.8,0.6
				c0,0,0.7,0,2.1,0c0.5,0,1.2,0,2.2-0.1c1-0.1,1.7-0.1,2.2-0.1C127.1,108,127.2,108.1,127.2,108.5z"/>
			<path class="st2" d="M145.9,112.7c0,0.1-0.1,0.1-0.3,0.1c-0.4,0.1-1.3,0.1-2.7,0.1c-1.2,0-2.1,0-2.5-0.1c-0.2,0-0.3-0.1-0.4-0.1
				c-0.1,0-0.1-0.1-0.2-0.3c-0.1-0.4-0.3-0.9-0.6-1.6c-0.4-0.9-0.9-2.3-1.7-4.2c-0.2-0.4-0.6-0.6-1.2-0.6c0.3,0-0.2,0-1.5,0
				c-0.1,0-0.2,0.2-0.2,0.7c0,0.6,0.1,1.6,0.2,2.9c0.1,1.3,0.2,2.2,0.2,2.9c0,0.2,0,0.3-0.1,0.3c-0.1,0-0.3,0-0.4,0
				c-0.6,0-1.4,0.1-2.6,0.1c-1.4,0-2.2,0-2.4-0.1s-0.4-0.2-0.4-0.4c0-1,0-2.6,0.1-4.7c0.1-2.1,0.1-3.7,0.1-4.7c0-4-0.1-7.1-0.3-9.3
				l0-0.2c0-0.2,0.1-0.3,0.4-0.3c0.3-0.1,1.7-0.1,4.3-0.2c1.7,0,3.1-0.1,4.2-0.1c2.2,0,3.9,0.5,5.3,1.5c1.5,1.1,2.3,2.7,2.3,4.7
				c0,1.4-0.2,2.5-0.6,3.3s-1.1,1.6-2.2,2.4c-0.2,0.2-0.3,0.3-0.3,0.4c0,0,0.6,1.2,1.7,3.6S145.9,112.5,145.9,112.7z M140,100
				c0-1.2-0.4-1.9-1.1-2.4c-0.6-0.3-1.5-0.5-2.7-0.5c-0.9,0-1.4,0.1-1.4,0.4c-0.1,0.3-0.1,1.2-0.1,2.8c0,0.2,0,0.5,0,1s0,0.7,0,0.9
				c0,0,0.2,0.1,0.5,0.1c0.6,0.1,1.2,0.1,1.8,0.1C139,102.5,140,101.7,140,100z"/>
			<path class="st2" d="M164.4,112.7c0,0.1-0.1,0.1-0.3,0.1c-0.4,0.1-1.3,0.1-2.7,0.1c-1.2,0-2.1,0-2.5-0.1c-0.2,0-0.3-0.1-0.4-0.1
				c-0.1,0-0.1-0.1-0.2-0.3c-0.1-0.4-0.3-0.9-0.6-1.6c-0.4-0.9-0.9-2.3-1.7-4.2c-0.2-0.4-0.6-0.6-1.2-0.6c0.3,0-0.2,0-1.5,0
				c-0.1,0-0.2,0.2-0.2,0.7c0,0.6,0.1,1.6,0.2,2.9c0.1,1.3,0.2,2.2,0.2,2.9c0,0.2,0,0.3-0.1,0.3c-0.1,0-0.3,0-0.4,0
				c-0.6,0-1.4,0.1-2.6,0.1c-1.4,0-2.2,0-2.4-0.1s-0.4-0.2-0.4-0.4c0-1,0-2.6,0.1-4.7c0.1-2.1,0.1-3.7,0.1-4.7c0-4-0.1-7.1-0.3-9.3
				l0-0.2c0-0.2,0.1-0.3,0.4-0.3c0.3-0.1,1.7-0.1,4.3-0.2c1.7,0,3.1-0.1,4.2-0.1c2.2,0,3.9,0.5,5.3,1.5c1.5,1.1,2.3,2.7,2.3,4.7
				c0,1.4-0.2,2.5-0.6,3.3s-1.1,1.6-2.2,2.4c-0.2,0.2-0.3,0.3-0.3,0.4c0,0,0.6,1.2,1.7,3.6S164.4,112.5,164.4,112.7z M158.5,100
				c0-1.2-0.4-1.9-1.1-2.4c-0.6-0.3-1.5-0.5-2.7-0.5c-0.9,0-1.4,0.1-1.4,0.4c-0.1,0.3-0.1,1.2-0.1,2.8c0,0.2,0,0.5,0,1s0,0.7,0,0.9
				c0,0,0.2,0.1,0.5,0.1c0.6,0.1,1.2,0.1,1.8,0.1C157.4,102.5,158.5,101.7,158.5,100z"/>
			<path class="st2" d="M185.7,103c0,2.9-0.9,5.4-2.8,7.4c-1.9,2-4.3,3-7.3,3c-2.9,0-5.3-1-7.3-3.1c-1.9-2-2.8-4.5-2.8-7.4
				c0-2.9,0.9-5.4,2.8-7.4c1.9-2,4.3-3.1,7.3-3.1c2.9,0,5.3,1,7.3,3.1C184.7,97.6,185.7,100.1,185.7,103z M180.3,102.9
				c0-1.4-0.4-2.6-1.3-3.6c-0.9-1-2-1.6-3.4-1.6c-1.3,0-2.5,0.5-3.4,1.6c-0.9,1-1.3,2.2-1.3,3.6c0,1.4,0.4,2.6,1.3,3.6
				c0.9,1,2,1.5,3.5,1.5c1.3,0,2.5-0.5,3.4-1.6C179.9,105.5,180.3,104.3,180.3,102.9z"/>
			<path class="st2" d="M204.7,112.7c0,0.1-0.1,0.1-0.3,0.1c-0.4,0.1-1.3,0.1-2.7,0.1c-1.2,0-2.1,0-2.5-0.1c-0.2,0-0.3-0.1-0.4-0.1
				c-0.1,0-0.1-0.1-0.2-0.3c-0.1-0.4-0.3-0.9-0.6-1.6c-0.4-0.9-0.9-2.3-1.7-4.2c-0.2-0.4-0.6-0.6-1.2-0.6c0.3,0-0.2,0-1.5,0
				c-0.1,0-0.2,0.2-0.2,0.7c0,0.6,0.1,1.6,0.2,2.9s0.2,2.2,0.2,2.9c0,0.2,0,0.3-0.1,0.3c-0.1,0-0.3,0-0.4,0c-0.6,0-1.4,0.1-2.6,0.1
				c-1.4,0-2.2,0-2.4-0.1s-0.4-0.2-0.4-0.4c0-1,0-2.6,0.1-4.7c0.1-2.1,0.1-3.7,0.1-4.7c0-4-0.1-7.1-0.3-9.3l0-0.2
				c0-0.2,0.1-0.3,0.4-0.3c0.3-0.1,1.7-0.1,4.3-0.2c1.7,0,3.1-0.1,4.2-0.1c2.2,0,3.9,0.5,5.3,1.5c1.5,1.1,2.3,2.7,2.3,4.7
				c0,1.4-0.2,2.5-0.6,3.3s-1.1,1.6-2.2,2.4c-0.2,0.2-0.3,0.3-0.3,0.4c0,0,0.6,1.2,1.7,3.6S204.7,112.5,204.7,112.7z M198.7,100
				c0-1.2-0.4-1.9-1.1-2.4c-0.6-0.3-1.5-0.5-2.7-0.5c-0.9,0-1.4,0.1-1.4,0.4c-0.1,0.3-0.1,1.2-0.1,2.8c0,0.2,0,0.5,0,1s0,0.7,0,0.9
				c0,0,0.2,0.1,0.5,0.1c0.6,0.1,1.2,0.1,1.8,0.1C197.7,102.5,198.7,101.7,198.7,100z"/>
			<path class="st2" d="M211.4,103.3c0,0.8-0.3,1.5-0.8,2c-0.6,0.5-1.2,0.7-2.1,0.7c-0.8,0-1.4-0.3-2-0.8c-0.5-0.5-0.8-1.2-0.8-1.9
				c0-0.8,0.3-1.5,0.8-2c0.5-0.6,1.2-0.8,2-0.8c0.8,0,1.5,0.3,2,0.8C211.2,101.8,211.4,102.5,211.4,103.3z M211.4,110.2
				c0,0.8-0.3,1.5-0.8,2c-0.5,0.6-1.2,0.8-2,0.8c-0.8,0-1.5-0.3-2-0.8s-0.8-1.2-0.8-2c0-0.8,0.3-1.5,0.8-2c0.5-0.5,1.2-0.8,2.1-0.8
				c0.8,0,1.5,0.3,2,0.8C211.2,108.7,211.4,109.4,211.4,110.2z"/>
			<path class="st2" d="M234.9,109.7c0,0.1-0.1,0.2-0.4,0.3c-0.2,0-0.4,0-0.7,0c-0.4,0-0.6,0-0.5,0c-0.4,0-0.6,0.2-0.6,0.6
				c0,0.2,0,0.6,0,1c0,0.5,0,0.8,0,1c0,0.3-0.1,0.5-0.4,0.5c-3.3,0-5,0-5.1-0.1c-0.2-0.1-0.3-0.2-0.3-0.3c0-0.1,0.1-0.5,0.2-1
				s0.2-1,0.2-1.2c0-0.3-0.2-0.5-0.5-0.5c-0.6,0-1.6,0-2.8,0.1c-1.3,0-2.2,0.1-2.8,0.1c-0.8,0-1.1-0.3-1.1-0.9c0-0.3,0-0.8,0-1.4
				c0-0.6,0-1,0-1.4c0-0.3,0.1-0.6,0.4-0.9c1.4-1.5,2.4-2.7,3-3.5c0.3-0.4,1.3-2.1,3.1-5c0.2-0.4,0.6-1,1.1-1.8
				c0.1-0.2,0.3-0.2,0.4-0.2c0.2,0,0.9,0.2,2.1,0.5c1.2,0.3,2,0.5,2.4,0.5c0.3,0,0.5,0.2,0.5,0.6c0,0.4,0,0.9-0.1,1.7
				c-0.1,0.7-0.1,1.3-0.1,1.7v6c0.2,0,0.5,0,0.9-0.1c0.4-0.1,0.7-0.1,0.9-0.1c0.2,0,0.3,0.1,0.3,0.3c0,0.2,0,0.5,0,0.9s0,0.7,0,0.9
				s0,0.5,0,0.9C234.9,109.2,234.9,109.5,234.9,109.7z M227.9,100.7C227.9,100.7,227.9,100.7,227.9,100.7c-0.2-0.1-0.3,0-0.4,0.1
				c-0.6,1-1.2,1.9-1.8,2.9c-0.7,1.1-1.4,2-2.1,2.7c0.5,0,1.8-0.1,4-0.2c0-0.4,0.1-1.3,0.2-2.8C227.9,102.3,227.9,101.4,227.9,100.7
				z"/>
			<path class="st2" d="M253,104.3c0,2.4-0.8,4.5-2.4,6.3c-1.6,1.8-3.7,2.7-6.1,2.7c-2.4,0-4.4-0.9-6.1-2.7
				c-1.6-1.7-2.4-3.8-2.4-6.3c0-2.4,0.8-4.5,2.4-6.3c1.6-1.8,3.6-2.7,6.1-2.7c2.4,0,4.4,0.9,6.1,2.7C252.2,99.8,253,101.9,253,104.3
				z M247.8,104.3c0-1-0.3-1.8-0.8-2.5c-0.6-0.8-1.4-1.1-2.3-1.1c-1,0-1.8,0.4-2.3,1.1c-0.6,0.7-0.8,1.5-0.8,2.5
				c0,1,0.3,1.8,0.8,2.6c0.6,0.8,1.4,1.2,2.3,1.2c0.9,0,1.7-0.4,2.3-1.2C247.5,106.1,247.8,105.3,247.8,104.3z"/>
			<path class="st2" d="M269.2,109.7c0,0.1-0.1,0.2-0.4,0.3c-0.2,0-0.4,0-0.7,0c-0.4,0-0.6,0-0.5,0c-0.4,0-0.6,0.2-0.6,0.6
				c0,0.2,0,0.6,0,1c0,0.5,0,0.8,0,1c0,0.3-0.1,0.5-0.4,0.5c-3.3,0-5,0-5.1-0.1c-0.2-0.1-0.3-0.2-0.3-0.3c0-0.1,0.1-0.5,0.2-1
				s0.2-1,0.2-1.2c0-0.3-0.2-0.5-0.5-0.5c-0.6,0-1.6,0-2.8,0.1c-1.3,0-2.2,0.1-2.8,0.1c-0.8,0-1.1-0.3-1.1-0.9c0-0.3,0-0.8,0-1.4
				c0-0.6,0-1,0-1.4c0-0.3,0.1-0.6,0.4-0.9c1.4-1.5,2.4-2.7,3-3.5c0.3-0.4,1.3-2.1,3.1-5c0.2-0.4,0.6-1,1.1-1.8
				c0.1-0.2,0.3-0.2,0.4-0.2c0.2,0,0.9,0.2,2.1,0.5c1.2,0.3,2,0.5,2.4,0.5c0.3,0,0.5,0.2,0.5,0.6c0,0.4,0,0.9-0.1,1.7
				c-0.1,0.7-0.1,1.3-0.1,1.7v6c0.2,0,0.5,0,0.9-0.1c0.4-0.1,0.7-0.1,0.9-0.1c0.2,0,0.3,0.1,0.3,0.3c0,0.2,0,0.5,0,0.9s0,0.7,0,0.9
				s0,0.5,0,0.9C269.2,109.2,269.2,109.5,269.2,109.7z M262.2,100.7C262.2,100.7,262.2,100.7,262.2,100.7c-0.2-0.1-0.3,0-0.4,0.1
				c-0.6,1-1.2,1.9-1.8,2.9c-0.7,1.1-1.4,2-2.1,2.7c0.5,0,1.8-0.1,4-0.2c0-0.4,0.1-1.3,0.2-2.8C262.1,102.3,262.2,101.4,262.2,100.7
				z"/>
		</g>
		<g>
			<g>
				<g>
					<path class="st2" d="M200.8,228H36.5c-0.9,0-1.6-0.7-1.6-1.6c0-0.9,0.7-1.6,1.6-1.6h164.2c0.9,0,1.6,0.7,1.6,1.6
						C202.4,227.2,201.7,228,200.8,228z"/>
				</g>
			</g>
			<g>
				<g>
					<path class="st2" d="M220.8,228h-8.9c-0.9,0-1.6-0.7-1.6-1.6c0-0.9,0.7-1.6,1.6-1.6h8.9c0.9,0,1.6,0.7,1.6,1.6
						C222.5,227.2,221.7,228,220.8,228z"/>
				</g>
			</g>
			<g>
				<g>
					<path class="st2" d="M292.4,228h-65.5c-0.9,0-1.6-0.7-1.6-1.6c0-0.9,0.7-1.6,1.6-1.6h65.5c0.9,0,1.6,0.7,1.6,1.6
						C294.1,227.2,293.3,228,292.4,228z"/>
				</g>
			</g>
			<g>
				<g>
					<path class="st2" d="M342.3,228H298c-0.9,0-1.6-0.7-1.6-1.6c0-0.9,0.7-1.6,1.6-1.6h44.3c0.9,0,1.6,0.7,1.6,1.6
						C343.9,227.2,343.2,228,342.3,228z"/>
				</g>
			</g>
		</g>
		<g>
			<g>
				<path class="st2" d="M44.4,327c-0.4,0-0.7-0.1-1.1-0.4c-0.7-0.6-0.8-1.6-0.2-2.3l84.3-99.1c0.6-0.7,1.6-0.8,2.3-0.2
					c0.7,0.6,0.8,1.6,0.2,2.3l-84.3,99.1C45.3,326.9,44.8,327,44.4,327z"/>
			</g>
			<g>
				<path class="st2" d="M337.1,327c-0.5,0-0.9-0.2-1.2-0.6l-84.3-99.1c-0.6-0.7-0.5-1.7,0.2-2.3c0.7-0.6,1.7-0.5,2.3,0.2l84.3,99.1
					c0.6,0.7,0.5,1.7-0.2,2.3C337.8,326.9,337.4,327,337.1,327z"/>
			</g>
		</g>
		<g>
			<rect x="151.7" y="161.5" class="st0" width="13.9" height="64.9"/>
			<rect x="215.4" y="161.5" class="st0" width="13.9" height="64.9"/>
			<g>
				<g>
					<path class="st2" d="M167,228h-15.9v-77.2H167V228z M154.4,224.7h9.4V154h-9.4V224.7z"/>
				</g>
				<g>
					<path class="st2" d="M230.3,228h-15.9v-77.2h15.9V228z M217.6,224.7h9.4V154h-9.4V224.7z"/>
				</g>
			</g>
			<g>
				<g>
					<rect x="143.8" y="147.2" class="st0" width="93.8" height="23.3"/>
				</g>
				<g>
					<g>
						<polygon class="st3" points="194.3,147.2 176.9,147.2 153.7,170.5 171.1,170.5 						"/>
					</g>
					<g>
						<polygon class="st3" points="159.5,147.2 143.8,147.2 143.8,162.9 						"/>
					</g>
					<g>
						<polygon class="st3" points="229.1,147.2 211.7,147.2 188.5,170.5 205.9,170.5 						"/>
					</g>
					<g>
						<polygon class="st3" points="237.6,156.1 223.3,170.5 237.6,170.5 						"/>
					</g>
				</g>
				<g>
					<path class="st2" d="M237.6,172.1h-93.8c-0.9,0-1.6-0.7-1.6-1.6v-23.3c0-0.9,0.7-1.6,1.6-1.6h93.8c0.9,0,1.6,0.7,1.6,1.6v23.3
						C239.2,171.4,238.5,172.1,237.6,172.1z M145.4,168.8H236v-20h-90.6V168.8z"/>
				</g>
			</g>
			<g>
				<g>
					<rect x="143.8" y="181.4" class="st0" width="93.8" height="23.3"/>
				</g>
				<g>
					<g>
						<polygon class="st3" points="194.3,181.4 176.9,181.4 153.7,204.7 171.1,204.7 						"/>
					</g>
					<g>
						<polygon class="st3" points="159.5,181.4 143.8,181.4 143.8,197.2 						"/>
					</g>
					<g>
						<polygon class="st3" points="229.1,181.4 211.7,181.4 188.5,204.7 205.9,204.7 						"/>
					</g>
					<g>
						<polygon class="st3" points="237.6,190.3 223.3,204.7 237.6,204.7 						"/>
					</g>
				</g>
				<g>
					<path class="st2" d="M237.6,206.3h-93.8c-0.9,0-1.6-0.7-1.6-1.6v-23.3c0-0.9,0.7-1.6,1.6-1.6h93.8c0.9,0,1.6,0.7,1.6,1.6v23.3
						C239.2,205.6,238.5,206.3,237.6,206.3z M145.4,203H236v-20h-90.6V203z"/>
				</g>
			</g>
			<g>
				<g>
					<path class="st4" d="M163.9,172.2l23.9-41.3c1.3-2.2,4.5-2.2,5.8,0l23.9,41.3c1.3,2.2-0.3,5-2.9,5h-47.7
						C164.3,177.3,162.6,174.5,163.9,172.2z"/>
					<path class="st2" d="M214.6,178.9h-47.7c-1.8,0-3.4-0.9-4.3-2.5c-0.9-1.6-0.9-3.4,0-5l23.9-41.3c0.9-1.6,2.5-2.5,4.3-2.5
						c1.8,0,3.4,0.9,4.3,2.5l23.9,41.3c0.9,1.6,0.9,3.4,0,5C218,177.9,216.4,178.9,214.6,178.9z M190.7,130.8c-0.3,0-1,0.1-1.5,0.9
						L165.3,173c-0.5,0.8-0.1,1.5,0,1.7c0.1,0.3,0.6,0.9,1.5,0.9h47.7c0.9,0,1.3-0.6,1.5-0.9c0.1-0.3,0.5-0.9,0-1.7l-23.9-41.3
						C191.8,130.9,191,130.8,190.7,130.8z"/>
				</g>
				<g>
					<g>
						<path class="st2" d="M194,160.1h-6.5l-0.8-14.3c-0.1-2.3,1.7-4.2,4-4.2l0,0c2.3,0,4.1,1.9,4,4.2L194,160.1z M186.6,166.9
							c0-1.2,0.4-2.1,1.1-2.8c0.7-0.7,1.7-1,3.1-1c1.3,0,2.3,0.3,3,1c0.7,0.7,1,1.6,1,2.8c0,1.2-0.4,2.1-1.1,2.8c-0.7,0.7-1.7,1-3,1
							c-1.3,0-2.3-0.3-3-1C187,169,186.6,168.1,186.6,166.9z"/>
					</g>
				</g>
			</g>
		</g>
		<g>
			<g>
				<path class="st5" d="M36.2,205.6c0.6,0,1.2,0.1,1.8,0.2c1.7-7.5,8.4-13,16.4-13c6.9,0,12.8,4.1,15.4,10c1.1-0.3,2.2-0.5,3.4-0.5
					c6.6,0,12,5.4,12,12s-5.4,12-12,12h-37c-5.7,0-10.4-4.6-10.4-10.4C25.9,210.2,30.5,205.6,36.2,205.6z"/>
				<path class="st2" d="M73.2,228h-37c-6.6,0-12-5.4-12-12s5.4-12,12-12c0.2,0,0.4,0,0.6,0c2.4-7.7,9.4-12.9,17.6-12.9
					c6.8,0,13.1,3.8,16.3,9.8c0.8-0.2,1.7-0.2,2.6-0.2c7.5,0,13.7,6.1,13.7,13.7C86.9,221.8,80.7,228,73.2,228z M36.2,207.2
					c-4.8,0-8.7,3.9-8.7,8.7c0,4.8,3.9,8.7,8.7,8.7h37c5.7,0,10.4-4.7,10.4-10.4s-4.7-10.4-10.4-10.4c-1,0-2,0.1-3,0.4
					c-0.8,0.2-1.6-0.2-2-0.9c-2.4-5.5-7.9-9.1-13.9-9.1c-7.1,0-13.2,4.8-14.8,11.8c-0.2,0.8-1,1.4-1.9,1.2
					C37.2,207.3,36.7,207.2,36.2,207.2z"/>
			</g>
			<g>
				<path class="st6" d="M107.7,152.9c0-6.9-3.5-12.9-8.9-16.4c1.9-3.1,3.1-6.7,3.1-10.6c0-8.1-4.9-15.1-11.9-18.1
					c1.2-2.6,1.9-5.5,1.9-8.5c0-10.9-8.8-19.7-19.7-19.7c-10.9,0-19.7,8.8-19.7,19.7c0,2.5,0.5,4.9,1.3,7.1
					c-9.5,1.4-16.8,9.6-16.8,19.5c0,5.2,2,10,5.4,13.5c-3.3,3.5-5.4,8.3-5.4,13.5c0,10.3,7.9,18.7,17.9,19.6
					c3.4,6,9.8,10.1,17.2,10.1c7.4,0,13.8-4.1,17.2-10.1C99.6,171.8,107.7,163.3,107.7,152.9z"/>
				<path class="st2" d="M72.2,184.3c-7.4,0-14.3-3.9-18.2-10.2c-10.6-1.4-18.6-10.3-18.6-21.1c0-5,1.7-9.7,4.8-13.5
					c-3.1-3.8-4.8-8.5-4.8-13.5c0-9.8,6.9-18.4,16.3-20.7c-0.6-1.9-0.8-3.9-0.8-5.9c0-11.8,9.6-21.3,21.3-21.3s21.3,9.6,21.3,21.3
					c0,2.7-0.5,5.3-1.4,7.7c7,3.7,11.4,10.9,11.4,18.9c0,3.5-0.9,7-2.5,10.1c5.2,4,8.3,10.2,8.3,16.9c0,10.8-8.2,20-18.9,21.2
					C86.5,180.4,79.7,184.3,72.2,184.3z M72.2,81.3c-10,0-18.1,8.1-18.1,18.1c0,2.2,0.4,4.4,1.2,6.5c0.2,0.5,0.1,1-0.1,1.4
					c-0.2,0.4-0.7,0.7-1.2,0.8c-8.8,1.3-15.4,9-15.4,17.9c0,4.6,1.7,9,4.9,12.4c0.6,0.6,0.6,1.6,0,2.2c-3.2,3.4-4.9,7.8-4.9,12.4
					c0,9.4,7.1,17.2,16.4,18c0.5,0,1,0.4,1.3,0.8c3.2,5.7,9.2,9.3,15.8,9.3c6.5,0,12.6-3.5,15.8-9.2c0.3-0.5,0.8-0.8,1.3-0.8
					c9.4-0.7,16.7-8.6,16.7-18c0-6.1-3-11.7-8.1-15.1c-0.7-0.5-1-1.5-0.5-2.2c1.8-2.9,2.8-6.3,2.8-9.7c0-7.2-4.3-13.7-10.9-16.6
					c-0.4-0.2-0.7-0.5-0.9-0.9c-0.2-0.4-0.1-0.9,0.1-1.3c1.2-2.4,1.8-5.1,1.8-7.8C90.3,89.4,82.2,81.3,72.2,81.3z"/>
			</g>
			<g>
				<path class="st2" d="M72.4,207.6c-0.9,0-1.6-0.7-1.6-1.6V103.2c0-0.9,0.7-1.6,1.6-1.6c0.9,0,1.6,0.7,1.6,1.6v102.7
					C74.1,206.8,73.3,207.6,72.4,207.6z"/>
			</g>
			<g>
				<path class="st2" d="M72.4,129.6c-0.4,0-0.8-0.2-1.1-0.5l-11.2-11.2c-0.6-0.6-0.6-1.7,0-2.3c0.6-0.6,1.7-0.6,2.3,0l11.2,11.2
					c0.6,0.6,0.6,1.7,0,2.3C73.3,129.4,72.9,129.6,72.4,129.6z"/>
			</g>
			<g>
				<path class="st2" d="M72.4,149.1c-0.4,0-0.8-0.2-1.1-0.5c-0.6-0.6-0.6-1.7,0-2.3l15.5-15.5c0.6-0.6,1.7-0.6,2.3,0
					c0.6,0.6,0.6,1.7,0,2.3l-15.5,15.5C73.3,148.9,72.9,149.1,72.4,149.1z"/>
			</g>
			<g>
				<path class="st2" d="M72.4,171.4c-0.4,0-0.8-0.2-1.1-0.5L51.4,151c-0.6-0.6-0.6-1.7,0-2.3c0.6-0.6,1.7-0.6,2.3,0l19.9,19.9
					c0.6,0.6,0.6,1.7,0,2.3C73.3,171.3,72.9,171.4,72.4,171.4z"/>
			</g>
			<g>
				<path class="st6" d="M111.2,202.8c-0.7,0-1.4,0.1-2,0.2c-1.9-8.5-9.5-14.8-18.6-14.8c-7.8,0-14.5,4.7-17.5,11.4
					c-1.2-0.4-2.6-0.6-3.9-0.6c-7.6,0-13.7,6.1-13.7,13.7c0,7.6,6.1,13.7,13.7,13.7h42c6.5,0,11.8-5.3,11.8-11.8
					C123,208.1,117.7,202.8,111.2,202.8z"/>
				<path class="st2" d="M111.2,228h-42c-8.4,0-15.3-6.9-15.3-15.3c0-8.4,6.9-15.3,15.3-15.3c1,0,2,0.1,3,0.3
					c3.6-6.8,10.6-11.1,18.4-11.1c9.2,0,17.2,6,19.8,14.6c0.3,0,0.5,0,0.8,0c7.4,0,13.4,6,13.4,13.4C124.6,222,118.6,228,111.2,228z
					 M69.2,200.6c-6.6,0-12,5.4-12,12c0,6.6,5.4,12,12,12h42c5.6,0,10.2-4.6,10.2-10.2c0-5.6-4.6-10.2-10.2-10.2
					c-0.5,0-1.1,0.1-1.7,0.2c-0.9,0.1-1.7-0.4-1.9-1.2c-1.8-8-8.8-13.5-17-13.5c-6.9,0-13.2,4.1-16,10.4c-0.3,0.7-1.2,1.1-2,0.9
					C71.5,200.8,70.4,200.6,69.2,200.6z"/>
			</g>
		</g>
		<g>
			<g>
				<path class="st5" d="M345.2,205.6c-0.6,0-1.2,0.1-1.8,0.2c-1.7-7.5-8.4-13-16.4-13c-6.9,0-12.8,4.1-15.4,10
					c-1.1-0.3-2.2-0.5-3.4-0.5c-6.6,0-12,5.4-12,12s5.4,12,12,12h37c5.7,0,10.4-4.6,10.4-10.4C355.6,210.2,350.9,205.6,345.2,205.6z
					"/>
				<path class="st2" d="M345.2,228h-37c-7.5,0-13.7-6.1-13.7-13.7c0-7.5,6.1-13.7,13.7-13.7c0.9,0,1.7,0.1,2.6,0.2
					c3.2-6,9.4-9.8,16.3-9.8c8.2,0,15.2,5.2,17.6,12.9c0.2,0,0.4,0,0.6,0c6.6,0,12,5.4,12,12S351.8,228,345.2,228z M308.2,203.9
					c-5.7,0-10.4,4.7-10.4,10.4s4.7,10.4,10.4,10.4h37c4.8,0,8.7-3.9,8.7-8.7c0-4.8-3.9-8.7-8.7-8.7c-0.5,0-1,0-1.5,0.1
					c-0.8,0.1-1.7-0.4-1.9-1.2c-1.6-6.9-7.7-11.8-14.8-11.8c-6,0-11.5,3.6-13.9,9.1c-0.3,0.7-1.2,1.1-2,0.9
					C310.2,204,309.2,203.9,308.2,203.9z"/>
			</g>
			<g>
				<path class="st6" d="M349.4,125.9c0-9.9-7.3-18.1-16.8-19.5c0.9-2.2,1.3-4.6,1.3-7.1c0-10.9-8.8-19.7-19.7-19.7
					s-19.7,8.8-19.7,19.7c0,3.1,0.7,5.9,1.9,8.5c-7,3-11.9,10-11.9,18.1c0,3.9,1.1,7.5,3.1,10.6c-5.3,3.5-8.9,9.6-8.9,16.4
					c0,10.4,8,18.9,18.2,19.6c3.4,6,9.8,10.1,17.2,10.1c7.4,0,13.8-4.1,17.2-10.1c10-0.9,17.9-9.3,17.9-19.6c0-5.2-2-10-5.4-13.5
					C347.3,135.9,349.4,131.2,349.4,125.9z"/>
				<path class="st2" d="M314.3,184.3c-7.4,0-14.3-3.9-18.2-10.2c-10.7-1.2-18.9-10.4-18.9-21.2c0-6.7,3.1-12.9,8.3-16.9
					c-1.7-3.1-2.5-6.6-2.5-10.1c0-8,4.4-15.2,11.4-18.9c-1-2.5-1.4-5.1-1.4-7.7c0-11.8,9.6-21.3,21.3-21.3
					c11.8,0,21.3,9.6,21.3,21.3c0,2-0.3,4-0.8,5.9c9.4,2.3,16.3,10.9,16.3,20.7c0,5-1.7,9.7-4.8,13.5c3.1,3.8,4.8,8.5,4.8,13.5
					c0,10.8-7.9,19.8-18.6,21.1C328.6,180.4,321.7,184.3,314.3,184.3z M314.3,81.3c-10,0-18.1,8.1-18.1,18.1c0,2.7,0.6,5.4,1.8,7.8
					c0.2,0.4,0.2,0.9,0.1,1.3c-0.2,0.4-0.5,0.7-0.9,0.9c-6.6,2.9-10.9,9.4-10.9,16.6c0,3.4,1,6.8,2.8,9.7c0.5,0.7,0.3,1.7-0.5,2.2
					c-5.1,3.4-8.1,9-8.1,15.1c0,9.4,7.3,17.3,16.7,18c0.5,0,1,0.3,1.3,0.8c3.2,5.7,9.2,9.2,15.8,9.2c6.5,0,12.6-3.6,15.8-9.3
					c0.3-0.5,0.7-0.8,1.3-0.8c9.4-0.8,16.4-8.6,16.4-18c0-4.6-1.7-9-4.9-12.4c-0.6-0.6-0.6-1.6,0-2.2c3.2-3.4,4.9-7.8,4.9-12.4
					c0-8.9-6.6-16.6-15.4-17.9c-0.5-0.1-0.9-0.4-1.2-0.8c-0.2-0.4-0.3-0.9-0.1-1.4c0.8-2.1,1.2-4.3,1.2-6.5
					C332.3,89.4,324.2,81.3,314.3,81.3z"/>
			</g>
			<g>
				<path class="st2" d="M314.1,207.6c-0.9,0-1.6-0.7-1.6-1.6V103.2c0-0.9,0.7-1.6,1.6-1.6c0.9,0,1.6,0.7,1.6,1.6v102.7
					C315.7,206.8,315,207.6,314.1,207.6z"/>
			</g>
			<g>
				<path class="st2" d="M314.1,129.6c-0.4,0-0.8-0.2-1.1-0.5c-0.6-0.6-0.6-1.7,0-2.3l11.2-11.2c0.6-0.6,1.7-0.6,2.3,0
					c0.6,0.6,0.6,1.7,0,2.3l-11.2,11.2C314.9,129.4,314.5,129.6,314.1,129.6z"/>
			</g>
			<g>
				<path class="st2" d="M314.1,149.1c-0.4,0-0.8-0.2-1.1-0.5l-15.5-15.5c-0.6-0.6-0.6-1.7,0-2.3c0.6-0.6,1.7-0.6,2.3,0l15.5,15.5
					c0.6,0.6,0.6,1.7,0,2.3C314.9,148.9,314.5,149.1,314.1,149.1z"/>
			</g>
			<g>
				<path class="st2" d="M314.1,171.4c-0.4,0-0.8-0.2-1.1-0.5c-0.6-0.6-0.6-1.7,0-2.3l19.9-19.9c0.6-0.6,1.7-0.6,2.3,0
					c0.6,0.6,0.6,1.7,0,2.3l-19.9,19.9C314.9,171.3,314.5,171.4,314.1,171.4z"/>
			</g>
			<g>
				<path class="st6" d="M276.6,202.8c0.7,0,1.4,0.1,2,0.2c1.9-8.5,9.5-14.8,18.6-14.8c7.8,0,14.5,4.7,17.5,11.4
					c1.2-0.4,2.6-0.6,3.9-0.6c7.6,0,13.7,6.1,13.7,13.7c0,7.6-6.1,13.7-13.7,13.7h-42c-6.5,0-11.8-5.3-11.8-11.8
					C264.8,208.1,270.1,202.8,276.6,202.8z"/>
				<path class="st2" d="M318.6,228h-42c-7.4,0-13.4-6-13.4-13.4c0-7.4,6-13.4,13.4-13.4c0.3,0,0.5,0,0.8,0
					c2.6-8.7,10.6-14.6,19.8-14.6c7.7,0,14.8,4.3,18.4,11.1c1-0.2,2-0.3,3-0.3c8.4,0,15.3,6.9,15.3,15.3
					C333.9,221.1,327,228,318.6,228z M276.6,204.4c-5.6,0-10.2,4.6-10.2,10.2c0,5.6,4.6,10.2,10.2,10.2h42c6.6,0,12-5.4,12-12
					c0-6.6-5.4-12-12-12c-1.2,0-2.3,0.2-3.4,0.5c-0.8,0.2-1.6-0.2-2-0.9c-2.8-6.3-9.1-10.4-16-10.4c-8.2,0-15.2,5.6-17,13.5
					c-0.2,0.8-1,1.4-1.9,1.2C277.7,204.5,277.1,204.4,276.6,204.4z"/>
			</g>
		</g>
		<g>
			<g>
				<path class="st2" d="M94.3,48.5H67.5c-0.9,0-1.6-0.7-1.6-1.6c0-0.9,0.7-1.6,1.6-1.6h26.9c5.6,0,10.2-4.6,10.2-10.2
					c0-5.6-4.6-10.2-10.2-10.2c-0.5,0-1.1,0.1-1.7,0.2c-0.9,0.1-1.7-0.4-1.9-1.2c-1.8-8-8.8-13.5-17-13.5c-6.9,0-13.2,4.1-16,10.4
					c-0.3,0.8-1.2,1.1-2,0.9c-1.1-0.3-2.3-0.5-3.5-0.5c-6.6,0-12,5.4-12,12c0,6.6,5.4,12,12,12c0.9,0,1.6,0.7,1.6,1.6
					c0,0.9-0.7,1.6-1.6,1.6c-8.4,0-15.3-6.9-15.3-15.3c0-8.4,6.9-15.3,15.3-15.3c1,0,2,0.1,3,0.3C58.9,11.4,66,7,73.7,7
					c9.2,0,17.2,6,19.8,14.6c0.3,0,0.5,0,0.8,0c7.4,0,13.4,6,13.4,13.4C107.7,42.5,101.7,48.5,94.3,48.5z"/>
			</g>
			<g>
				<path class="st2" d="M61.3,48.5h-1.4c-0.9,0-1.6-0.7-1.6-1.6c0-0.9,0.7-1.6,1.6-1.6h1.4c0.9,0,1.6,0.7,1.6,1.6
					C62.9,47.7,62.2,48.5,61.3,48.5z"/>
			</g>
		</g>
		<g>
			<g>
				<path class="st2" d="M338.6,71.2h-31.3c-5.7,0-10.4-4.7-10.4-10.4s4.7-10.4,10.4-10.4c0.1,0,0.2,0,0.3,0
					c2.1-6.5,8.1-10.9,15-10.9c5.8,0,11.1,3.2,13.9,8.2c1.9-0.3,3.9-0.2,5.7,0.4c0.9,0.3,1.3,1.2,1,2c-0.3,0.9-1.2,1.3-2.1,1
					c-1.6-0.5-3.4-0.6-5.1-0.1c-0.8,0.2-1.6-0.2-2-0.9c-2-4.6-6.5-7.5-11.5-7.5c-5.9,0-10.9,4-12.3,9.8c-0.2,0.8-1,1.4-1.9,1.2
					c-0.4-0.1-0.8-0.1-1.2-0.1c-3.9,0-7.1,3.2-7.1,7.1c0,3.9,3.2,7.1,7.1,7.1h31.3c4.7,0,8.6-3.8,8.6-8.6c0-0.8-0.1-1.6-0.3-2.4
					c-0.2-0.9,0.3-1.8,1.1-2c0.9-0.2,1.8,0.3,2,1.1c0.3,1.1,0.5,2.2,0.5,3.3C350.4,65.9,345.1,71.2,338.6,71.2z"/>
			</g>
			<g>
				<path class="st2" d="M345.9,54c-0.4,0-0.8-0.2-1.1-0.5l-0.6-0.6c-0.6-0.6-0.6-1.7,0-2.3c0.6-0.6,1.7-0.6,2.3,0l0.6,0.6
					c0.6,0.6,0.6,1.7,0,2.3C346.7,53.8,346.3,54,345.9,54z"/>
			</g>
		</g>
		<g>
			<path class="st0" d="M233.3,54c0,2.2-1.8,4.1-4.1,4.1c-2.2,0-4.1-1.8-4.1-4.1c0-2.2,1.8-4.1,4.1-4.1
				C231.5,49.9,233.3,51.7,233.3,54z"/>
		</g>
		<g>
			<path class="st4" d="M260.2,148.3c0,1-0.8,1.8-1.8,1.8c-1,0-1.8-0.8-1.8-1.8s0.8-1.8,1.8-1.8
				C259.4,146.5,260.2,147.3,260.2,148.3z"/>
		</g>
		<g>
			<path class="st0" d="M131.5,145.6c0,1.9-1.5,3.5-3.5,3.5c-1.9,0-3.5-1.5-3.5-3.5c0-1.9,1.5-3.5,3.5-3.5
				C130,142.1,131.5,143.7,131.5,145.6z"/>
		</g>
		<g>
			<path class="st1" d="M348.4,84.7c0,1.4-1.1,2.5-2.5,2.5c-1.4,0-2.5-1.1-2.5-2.5c0-1.4,1.1-2.5,2.5-2.5
				C347.3,82.2,348.4,83.3,348.4,84.7z"/>
		</g>
		<g>
			<path class="st1" d="M148.8,21.6c0,1.4-1.1,2.5-2.5,2.5c-1.4,0-2.5-1.1-2.5-2.5c0-1.4,1.1-2.5,2.5-2.5
				C147.6,19.1,148.8,20.2,148.8,21.6z"/>
		</g>
		<g>
			<path class="st1" d="M53.9,69.7c0,1.4-1.1,2.5-2.5,2.5c-1.4,0-2.5-1.1-2.5-2.5c0-1.4,1.1-2.5,2.5-2.5
				C52.8,67.1,53.9,68.3,53.9,69.7z"/>
		</g>
		<g>
			<circle class="st0" cx="225.3" cy="127.6" r="2.6"/>
		</g>
		<g>
			<circle class="st4" cx="186.6" cy="67.8" r="1.8"/>
		</g>
		<g>
			<circle class="st4" cx="107.7" cy="100.9" r="1.8"/>
		</g>
		<g>
			<circle class="st4" cx="161.8" cy="131.3" r="1.8"/>
		</g>
		<g>
			<path class="st1" d="M371.8,197c0,1-0.8,1.8-1.8,1.8c-1,0-1.8-0.8-1.8-1.8c0-1,0.8-1.8,1.8-1.8C371,195.2,371.8,196,371.8,197z"
				/>
		</g>
		<g>
			<path class="st1" d="M384.6,149.1c0,2-1.6,3.5-3.5,3.5c-2,0-3.5-1.6-3.5-3.5c0-2,1.6-3.5,3.5-3.5
				C383.1,145.5,384.6,147.1,384.6,149.1z"/>
		</g>
		<g>
			<path class="st1" d="M280.7,39.5c0,1-0.8,1.8-1.8,1.8c-1,0-1.8-0.8-1.8-1.8c0-1,0.8-1.8,1.8-1.8
				C279.8,37.7,280.7,38.5,280.7,39.5z"/>
		</g>
		<g>
			<path class="st1" d="M14.7,134.5c0,1.8-1.4,3.2-3.2,3.2c-1.8,0-3.2-1.4-3.2-3.2c0-1.8,1.4-3.2,3.2-3.2
				C13.3,131.3,14.7,132.7,14.7,134.5z"/>
		</g>
		<g>
			<path class="st1" d="M36.4,177.3c0,1-0.8,1.8-1.8,1.8c-1,0-1.8-0.8-1.8-1.8c0-1,0.8-1.8,1.8-1.8
				C35.6,175.4,36.4,176.2,36.4,177.3z"/>
		</g>
		<g>
			<path class="st0" d="M121.9,181.4c0,1-0.8,1.8-1.8,1.8c-1,0-1.8-0.8-1.8-1.8c0-1,0.8-1.8,1.8-1.8
				C121.1,179.6,121.9,180.4,121.9,181.4z"/>
		</g>
		<g>
			<path class="st4" d="M24.4,92.1h-2.7v-2.7c0-0.8-0.6-1.4-1.4-1.4c-0.8,0-1.4,0.6-1.4,1.4v2.7h-2.7c-0.8,0-1.4,0.6-1.4,1.4
				c0,0.8,0.6,1.4,1.4,1.4h2.7v2.7c0,0.8,0.6,1.4,1.4,1.4c0.8,0,1.4-0.6,1.4-1.4V95h2.7c0.8,0,1.4-0.6,1.4-1.4
				C25.9,92.8,25.2,92.1,24.4,92.1z"/>
		</g>
		<g>
			<path class="st0" d="M267.3,181.2h-2.7v-2.7c0-0.8-0.6-1.4-1.4-1.4s-1.4,0.6-1.4,1.4v2.7h-2.7c-0.8,0-1.4,0.6-1.4,1.4
				c0,0.8,0.6,1.4,1.4,1.4h2.7v2.7c0,0.8,0.6,1.4,1.4,1.4s1.4-0.6,1.4-1.4v-2.7h2.7c0.8,0,1.4-0.6,1.4-1.4
				C268.7,181.9,268.1,181.2,267.3,181.2z"/>
		</g>
		<g>
			<path class="st0" d="M146.3,62.1h-2.7v-2.7c0-0.8-0.6-1.4-1.4-1.4c-0.8,0-1.4,0.6-1.4,1.4v2.7h-2.7c-0.8,0-1.4,0.6-1.4,1.4
				c0,0.8,0.6,1.4,1.4,1.4h2.7v2.7c0,0.8,0.6,1.4,1.4,1.4c0.8,0,1.4-0.6,1.4-1.4V65h2.7c0.8,0,1.4-0.6,1.4-1.4
				C147.7,62.8,147.1,62.1,146.3,62.1z"/>
		</g>
		<g>
			<path class="st4" d="M379.7,105.7H377V103c0-0.8-0.6-1.4-1.4-1.4s-1.4,0.6-1.4,1.4v2.7h-2.7c-0.8,0-1.4,0.6-1.4,1.4
				c0,0.8,0.6,1.4,1.4,1.4h2.7v2.7c0,0.8,0.6,1.4,1.4,1.4s1.4-0.6,1.4-1.4v-2.7h2.7c0.8,0,1.4-0.6,1.4-1.4
				C381.1,106.3,380.5,105.7,379.7,105.7z"/>
		</g>
		<g>
			<path class="st4" d="M229.4,14.7h-2.7V12c0-0.8-0.6-1.4-1.4-1.4c-0.8,0-1.4,0.6-1.4,1.4v2.7h-2.7c-0.8,0-1.4,0.6-1.4,1.4
				c0,0.8,0.6,1.4,1.4,1.4h2.7v2.7c0,0.8,0.6,1.4,1.4,1.4c0.8,0,1.4-0.6,1.4-1.4v-2.7h2.7c0.8,0,1.4-0.6,1.4-1.4
				C230.8,15.3,230.2,14.7,229.4,14.7z"/>
		</g>
		<g>
			<path class="st7" d="M101.1,299.1V292h-2v2.4H98v-3.6h7.7v3.6h-1.2V292h-2v7.1h1.2v1.2h-3.9v-1.2H101.1z"/>
			<path class="st7" d="M107.6,299.1v-7.2h-1.2v-1.2h2.5v3.7c0.8-0.6,1.5-0.9,2.2-0.9c0.4,0,0.8,0.1,1.1,0.3s0.5,0.4,0.6,0.7
				c0.1,0.3,0.2,0.7,0.2,1.3v3.3h1.1v1.2h-2.4v-4c0-0.5,0-0.8,0-1s-0.1-0.3-0.3-0.4s-0.3-0.2-0.5-0.2c-0.5,0-1.1,0.3-1.9,0.9v3.6
				h1.1v1.2h-3.6v-1.2H107.6z"/>
			<path class="st7" d="M121.6,297.3H116c0.1,0.6,0.3,1.1,0.7,1.5s0.9,0.6,1.5,0.6c0.9,0,1.6-0.4,2.2-1.1l1.1,0.5
				c-0.4,0.6-0.9,1-1.5,1.3c-0.6,0.3-1.2,0.4-1.9,0.4c-1,0-1.9-0.3-2.6-0.9c-0.7-0.6-1.1-1.5-1.1-2.6c0-1,0.3-1.9,1-2.5s1.5-1,2.4-1
				c0.9,0,1.7,0.3,2.4,1C121.2,295.1,121.6,296,121.6,297.3z M120.3,296.4c-0.1-0.5-0.3-0.9-0.7-1.3c-0.4-0.4-0.9-0.6-1.4-0.6
				c-0.5,0-1,0.2-1.3,0.5c-0.4,0.3-0.6,0.8-0.7,1.3H120.3z"/>
			<path class="st7" d="M126.9,302.1v-7.3h-1.1v-1.2h2.4v1c0.6-0.8,1.4-1.1,2.4-1.1c0.9,0,1.7,0.3,2.3,1s0.9,1.5,0.9,2.5
				c0,1.1-0.3,1.9-1,2.5s-1.4,0.9-2.3,0.9c-0.9,0-1.6-0.3-2.3-1v2.6h1.3v1.2h-3.8v-1.2H126.9z M128.2,297.1c0,0.4,0.1,0.7,0.2,1
				s0.4,0.6,0.7,0.8c0.3,0.2,0.7,0.3,1.2,0.3c0.6,0,1.1-0.2,1.5-0.6s0.6-1,0.6-1.7c0-0.7-0.2-1.3-0.6-1.7s-0.9-0.6-1.4-0.6
				c-0.6,0-1.1,0.2-1.5,0.6C128.4,295.8,128.2,296.4,128.2,297.1z"/>
			<path class="st7" d="M141.6,299.1v1.2h-2.3v-0.8c-0.6,0.6-1.3,0.9-2.1,0.9c-0.6,0-1.1-0.2-1.6-0.6s-0.7-0.9-0.7-1.5
				c0-0.6,0.2-1.1,0.7-1.5s1-0.6,1.7-0.6c0.6,0,1.2,0.2,1.8,0.6v-0.7c0-0.3,0-0.6-0.1-0.8s-0.2-0.3-0.4-0.5s-0.5-0.2-0.9-0.2
				c-0.7,0-1.1,0.3-1.4,0.8l-1.2-0.3c0.6-1,1.5-1.5,2.9-1.5c0.5,0,0.9,0.1,1.3,0.2c0.4,0.1,0.6,0.3,0.8,0.5c0.2,0.2,0.3,0.4,0.4,0.7
				s0.1,0.6,0.1,1.2v3.1H141.6z M139.2,297.8c-0.6-0.4-1.1-0.7-1.7-0.7c-0.4,0-0.7,0.1-0.9,0.3s-0.4,0.5-0.4,0.8
				c0,0.3,0.1,0.6,0.3,0.8s0.5,0.3,0.9,0.3c0.6,0,1.2-0.3,1.8-0.8V297.8z"/>
			<path class="st7" d="M150.4,293.7v1.2h-1.2v4.9c0,0.7,0,1.2-0.1,1.5c-0.1,0.3-0.2,0.6-0.5,1c-0.3,0.3-0.7,0.6-1.2,0.8
				s-1.1,0.3-1.8,0.3c-1,0-1.8-0.3-2.6-0.9l0.8-0.9c0.6,0.4,1.2,0.7,1.9,0.7c0.4,0,0.7-0.1,1-0.2c0.3-0.1,0.6-0.3,0.7-0.5
				s0.3-0.4,0.3-0.6c0-0.2,0.1-0.5,0.1-0.9v-0.6c-0.2,0.3-0.5,0.5-1,0.7s-0.9,0.3-1.4,0.3c-0.9,0-1.7-0.3-2.3-1s-0.9-1.5-0.9-2.4
				c0-1,0.3-1.9,1-2.5c0.7-0.6,1.4-1,2.3-1c0.9,0,1.7,0.3,2.3,1v-0.9H150.4z M143.7,297.1c0,0.7,0.2,1.2,0.6,1.6s0.9,0.6,1.5,0.6
				c0.6,0,1.1-0.2,1.5-0.6c0.4-0.4,0.6-1,0.6-1.6c0-0.7-0.2-1.2-0.6-1.6c-0.4-0.4-0.9-0.6-1.5-0.6s-1.1,0.2-1.5,0.6
				C143.9,295.8,143.7,296.4,143.7,297.1z"/>
			<path class="st7" d="M157.8,297.3h-5.6c0.1,0.6,0.3,1.1,0.7,1.5s0.9,0.6,1.5,0.6c0.9,0,1.6-0.4,2.2-1.1l1.1,0.5
				c-0.4,0.6-0.9,1-1.5,1.3c-0.6,0.3-1.2,0.4-1.9,0.4c-1,0-1.9-0.3-2.6-0.9c-0.7-0.6-1.1-1.5-1.1-2.6c0-1,0.3-1.9,1-2.5s1.5-1,2.4-1
				c0.9,0,1.7,0.3,2.4,1C157.4,295.1,157.8,296,157.8,297.3z M156.4,296.4c-0.1-0.5-0.3-0.9-0.7-1.3c-0.4-0.4-0.9-0.6-1.4-0.6
				c-0.5,0-1,0.2-1.3,0.5c-0.4,0.3-0.6,0.8-0.7,1.3H156.4z"/>
			<path class="st7" d="M165.2,300.2l-2.2-5.3h-1.1v-1.2h3.3v1.2h-0.8l1.4,3.7l1.4-3.7h-0.9v-1.2h3.2v1.2h-1l-3.3,8.4h-2.2v-1.1h1.3
				L165.2,300.2z"/>
			<path class="st7" d="M169.5,297c0-1,0.3-1.9,1-2.5c0.7-0.7,1.5-1,2.5-1c1,0,1.8,0.3,2.5,1c0.7,0.6,1,1.5,1,2.5s-0.3,1.9-1,2.5
				s-1.5,1-2.5,1c-1,0-1.8-0.3-2.5-1S169.5,298,169.5,297z M170.9,297c0,0.7,0.2,1.2,0.6,1.6c0.4,0.4,0.9,0.6,1.5,0.6
				c0.6,0,1.1-0.2,1.5-0.6s0.6-1,0.6-1.6c0-0.6-0.2-1.2-0.6-1.6s-0.9-0.6-1.5-0.6c-0.6,0-1.1,0.2-1.5,0.6S170.9,296.4,170.9,297z"/>
			<path class="st7" d="M184.8,299.1v1.2h-2.4v-0.8c-0.8,0.6-1.5,0.9-2.2,0.9c-0.4,0-0.8-0.1-1.1-0.3c-0.3-0.2-0.5-0.4-0.6-0.8
				c-0.1-0.3-0.1-0.8-0.1-1.5v-3h-0.9v-1.2h2.2v4c0,0.5,0,0.8,0,1s0.1,0.3,0.2,0.4s0.3,0.2,0.5,0.2c0.6,0,1.2-0.3,1.9-0.9v-3.6h-1.2
				v-1.2h2.5v5.5H184.8z"/>
			<path class="st7" d="M195.7,299.1v1.2h-2.3v-0.8c-0.6,0.6-1.3,0.9-2.1,0.9c-0.6,0-1.1-0.2-1.6-0.6s-0.7-0.9-0.7-1.5
				c0-0.6,0.2-1.1,0.7-1.5s1-0.6,1.7-0.6c0.6,0,1.2,0.2,1.8,0.6v-0.7c0-0.3,0-0.6-0.1-0.8c-0.1-0.2-0.2-0.3-0.4-0.5
				c-0.2-0.1-0.5-0.2-0.9-0.2c-0.7,0-1.1,0.3-1.4,0.8l-1.2-0.3c0.6-1,1.5-1.5,2.9-1.5c0.5,0,0.9,0.1,1.3,0.2
				c0.4,0.1,0.6,0.3,0.8,0.5c0.2,0.2,0.3,0.4,0.4,0.7s0.1,0.6,0.1,1.2v3.1H195.7z M193.3,297.8c-0.6-0.4-1.1-0.7-1.7-0.7
				c-0.4,0-0.7,0.1-0.9,0.3s-0.4,0.5-0.4,0.8c0,0.3,0.1,0.6,0.3,0.8s0.5,0.3,0.9,0.3c0.6,0,1.2-0.3,1.8-0.8V297.8z"/>
			<path class="st7" d="M197.5,299.1v-4.3h-1.3v-1.2h2.4v1.5c0.1-0.4,0.3-0.7,0.6-1s0.5-0.4,0.8-0.5c0.3-0.1,0.7-0.1,1.2-0.1h0.3
				v1.3h-0.3c-0.7,0-1.2,0.1-1.5,0.2c-0.3,0.1-0.6,0.4-0.7,0.7c-0.2,0.3-0.2,1-0.2,1.9v1.5h1.4v1.2h-4.1v-1.2H197.5z"/>
			<path class="st7" d="M208.5,297.3h-5.6c0.1,0.6,0.3,1.1,0.7,1.5c0.4,0.4,0.9,0.6,1.5,0.6c0.9,0,1.6-0.4,2.2-1.1l1.1,0.5
				c-0.4,0.6-0.9,1-1.5,1.3c-0.6,0.3-1.2,0.4-1.9,0.4c-1,0-1.9-0.3-2.6-0.9c-0.7-0.6-1.1-1.5-1.1-2.6c0-1,0.3-1.9,1-2.5
				c0.7-0.7,1.5-1,2.4-1c0.9,0,1.7,0.3,2.4,1C208.1,295.1,208.4,296,208.5,297.3z M207.1,296.4c-0.1-0.5-0.3-0.9-0.7-1.3
				c-0.4-0.4-0.9-0.6-1.4-0.6c-0.5,0-1,0.2-1.3,0.5c-0.4,0.3-0.6,0.8-0.7,1.3H207.1z"/>
			<path class="st7" d="M214,299.1v-7.2h-1.2v-1.2h2.5v8.4h1v1.2h-3.5v-1.2H214z"/>
			<path class="st7" d="M217.1,297c0-1,0.3-1.9,1-2.5c0.7-0.7,1.5-1,2.5-1c1,0,1.8,0.3,2.5,1c0.7,0.6,1,1.5,1,2.5s-0.3,1.9-1,2.5
				c-0.7,0.6-1.5,1-2.5,1c-1,0-1.8-0.3-2.5-1C217.5,298.8,217.1,298,217.1,297z M218.5,297c0,0.7,0.2,1.2,0.6,1.6
				c0.4,0.4,0.9,0.6,1.5,0.6c0.6,0,1.1-0.2,1.5-0.6s0.6-1,0.6-1.6c0-0.6-0.2-1.2-0.6-1.6s-0.9-0.6-1.5-0.6c-0.6,0-1.1,0.2-1.5,0.6
				S218.5,296.4,218.5,297z"/>
			<path class="st7" d="M225.1,297c0-1,0.3-1.9,1-2.5c0.7-0.7,1.5-1,2.5-1c1,0,1.8,0.3,2.5,1c0.7,0.6,1,1.5,1,2.5s-0.3,1.9-1,2.5
				c-0.7,0.6-1.5,1-2.5,1c-1,0-1.8-0.3-2.5-1C225.5,298.8,225.1,298,225.1,297z M226.5,297c0,0.7,0.2,1.2,0.6,1.6
				c0.4,0.4,0.9,0.6,1.5,0.6c0.6,0,1.1-0.2,1.5-0.6s0.6-1,0.6-1.6c0-0.6-0.2-1.2-0.6-1.6s-0.9-0.6-1.5-0.6c-0.6,0-1.1,0.2-1.5,0.6
				S226.5,296.4,226.5,297z"/>
			<path class="st7" d="M234.2,299.1v-7.2H233v-1.2h2.5v5.9l2.5-2h-1.1v-1.1h3.7v1.1h-1l-2.5,2.1l2.3,2.3h1.2v1.2h-1.7l-3.3-3.3v2.2
				h1.1v1.2H233v-1.2H234.2z"/>
			<path class="st7" d="M242.1,299.1v-4.3h-1v-1.2h2.3v5.5h1v1.2h-3.3v-1.2H242.1z M242,291.4c0-0.2,0.1-0.4,0.2-0.5
				c0.1-0.2,0.3-0.2,0.6-0.2c0.2,0,0.4,0.1,0.6,0.2c0.2,0.2,0.2,0.3,0.2,0.6s-0.1,0.4-0.2,0.6c-0.2,0.2-0.3,0.2-0.6,0.2
				c-0.2,0-0.4-0.1-0.6-0.2C242,291.8,242,291.6,242,291.4z"/>
			<path class="st7" d="M247.6,293.7v0.8c0.8-0.6,1.6-0.9,2.3-0.9c0.4,0,0.8,0.1,1.1,0.3c0.3,0.2,0.5,0.5,0.5,0.7
				c0.1,0.3,0.1,0.7,0.1,1.3v3.2h1.1v1.2h-2.4V296c0-0.5-0.1-0.8-0.2-1c-0.2-0.2-0.3-0.2-0.6-0.2c-0.6,0-1.2,0.3-1.9,0.8v3.5h1.1
				v1.2h-3.6v-1.2h1.2v-4.3h-1.2v-1.2H247.6z"/>
			<path class="st7" d="M261.4,293.7v1.2h-1.2v4.9c0,0.7,0,1.2-0.1,1.5c-0.1,0.3-0.2,0.6-0.5,1c-0.3,0.3-0.7,0.6-1.2,0.8
				c-0.5,0.2-1.1,0.3-1.8,0.3c-1,0-1.8-0.3-2.6-0.9l0.8-0.9c0.6,0.4,1.2,0.7,1.9,0.7c0.4,0,0.7-0.1,1-0.2c0.3-0.1,0.6-0.3,0.7-0.5
				s0.3-0.4,0.3-0.6c0-0.2,0.1-0.5,0.1-0.9v-0.6c-0.2,0.3-0.5,0.5-1,0.7s-0.9,0.3-1.4,0.3c-0.9,0-1.7-0.3-2.3-1
				c-0.6-0.7-0.9-1.5-0.9-2.4c0-1,0.3-1.9,1-2.5c0.7-0.6,1.4-1,2.3-1c0.9,0,1.7,0.3,2.3,1v-0.9H261.4z M254.6,297.1
				c0,0.7,0.2,1.2,0.6,1.6s0.9,0.6,1.5,0.6c0.6,0,1.1-0.2,1.5-0.6c0.4-0.4,0.6-1,0.6-1.6c0-0.7-0.2-1.2-0.6-1.6
				c-0.4-0.4-0.9-0.6-1.5-0.6c-0.6,0-1.1,0.2-1.5,0.6C254.9,295.8,254.6,296.4,254.6,297.1z"/>
			<path class="st7" d="M266.4,299.1v-4.3h-1v-1.1h1v-1c0-0.8,0.2-1.4,0.5-1.7c0.3-0.3,0.7-0.5,1.2-0.5c1,0,1.6,0.5,1.7,1.5
				l-1.2,0.2c0-0.4-0.2-0.6-0.5-0.6c-0.2,0-0.3,0.1-0.4,0.2c-0.1,0.1-0.1,0.4-0.1,0.9v1h1.1v1.1h-1.1v4.3h1.3v1.2h-3.5v-1.2H266.4z"
				/>
			<path class="st7" d="M269.9,297c0-1,0.3-1.9,1-2.5c0.7-0.7,1.5-1,2.5-1c1,0,1.8,0.3,2.5,1c0.7,0.6,1,1.5,1,2.5s-0.3,1.9-1,2.5
				c-0.7,0.6-1.5,1-2.5,1c-1,0-1.8-0.3-2.5-1C270.3,298.8,269.9,298,269.9,297z M271.3,297c0,0.7,0.2,1.2,0.6,1.6
				c0.4,0.4,0.9,0.6,1.5,0.6c0.6,0,1.1-0.2,1.5-0.6s0.6-1,0.6-1.6c0-0.6-0.2-1.2-0.6-1.6s-0.9-0.6-1.5-0.6c-0.6,0-1.1,0.2-1.5,0.6
				S271.3,296.4,271.3,297z"/>
			<path class="st7" d="M279.1,299.1v-4.3h-1.3v-1.2h2.4v1.5c0.1-0.4,0.3-0.7,0.6-1s0.5-0.4,0.8-0.5c0.3-0.1,0.7-0.1,1.2-0.1h0.3
				v1.3h-0.3c-0.7,0-1.2,0.1-1.5,0.2c-0.3,0.1-0.6,0.4-0.7,0.7c-0.2,0.3-0.2,1-0.2,1.9v1.5h1.4v1.2h-4.1v-1.2H279.1z"/>
			<path class="st7" d="M81.2,315.9v-4.3h-1.1v-1.2h2.4v0.8c0.8-0.6,1.5-0.9,2.3-0.9c0.8,0,1.3,0.3,1.6,1c0.9-0.7,1.7-1,2.4-1
				c0.4,0,0.8,0.1,1.1,0.3c0.3,0.2,0.5,0.4,0.6,0.7c0.1,0.3,0.1,0.7,0.1,1.3v3.3h1.2v1.2h-2.5v-4.2c0-0.4,0-0.7-0.1-0.8
				c0-0.2-0.1-0.3-0.3-0.4c-0.1-0.1-0.3-0.2-0.5-0.2c-0.6,0-1.2,0.3-1.9,0.9v3.5h1.1v1.2h-2.4v-4.3c0-0.4-0.1-0.7-0.2-0.9
				c-0.1-0.2-0.3-0.3-0.6-0.3c-0.5,0-1.1,0.3-1.9,0.9v3.5h1.2v1.2H80v-1.2H81.2z"/>
			<path class="st7" d="M93.2,315.9v-4.3h-1v-1.2h2.3v5.5h1v1.2h-3.3v-1.2H93.2z M93.1,308.2c0-0.2,0.1-0.4,0.2-0.5s0.3-0.2,0.6-0.2
				c0.2,0,0.4,0.1,0.6,0.2s0.2,0.3,0.2,0.6s-0.1,0.4-0.2,0.6c-0.2,0.2-0.3,0.2-0.6,0.2c-0.2,0-0.4-0.1-0.6-0.2
				S93.1,308.4,93.1,308.2z"/>
			<path class="st7" d="M104.4,310.5v1.2h-1.2v4.9c0,0.7,0,1.2-0.1,1.5c-0.1,0.3-0.2,0.6-0.5,1c-0.3,0.3-0.7,0.6-1.2,0.8
				s-1.1,0.3-1.8,0.3c-1,0-1.8-0.3-2.6-0.9l0.8-0.9c0.6,0.4,1.2,0.7,1.9,0.7c0.4,0,0.7-0.1,1-0.2c0.3-0.1,0.6-0.3,0.7-0.5
				s0.3-0.4,0.3-0.6c0-0.2,0.1-0.5,0.1-0.9v-0.6c-0.2,0.3-0.5,0.5-1,0.7s-0.9,0.3-1.4,0.3c-0.9,0-1.7-0.3-2.3-1s-0.9-1.5-0.9-2.4
				c0-1,0.3-1.9,1-2.5c0.7-0.6,1.4-1,2.3-1c0.9,0,1.7,0.3,2.3,1v-0.9H104.4z M97.7,313.9c0,0.7,0.2,1.2,0.6,1.6s0.9,0.6,1.5,0.6
				c0.6,0,1.1-0.2,1.5-0.6c0.4-0.4,0.6-1,0.6-1.6c0-0.7-0.2-1.2-0.6-1.6c-0.4-0.4-0.9-0.6-1.5-0.6s-1.1,0.2-1.5,0.6
				C97.9,312.6,97.7,313.2,97.7,313.9z"/>
			<path class="st7" d="M106.1,315.9v-7.2h-1.2v-1.2h2.5v3.7c0.8-0.6,1.5-0.9,2.2-0.9c0.4,0,0.8,0.1,1.1,0.3s0.5,0.4,0.6,0.7
				c0.1,0.3,0.2,0.7,0.2,1.3v3.3h1.1v1.2h-2.4v-4c0-0.5,0-0.8,0-1s-0.1-0.3-0.3-0.4s-0.3-0.2-0.5-0.2c-0.5,0-1.1,0.3-1.9,0.9v3.6
				h1.1v1.2h-3.6v-1.2H106.1z"/>
			<path class="st7" d="M113.1,311.6v-1.2h0.9v-1l1.3-1.2v2.2h1.2v1.2h-1.2v3.2c0,0.5,0,0.8,0.1,1c0.1,0.1,0.2,0.2,0.4,0.2
				c0.2,0,0.5,0,0.7-0.1v1.2c-0.3,0.1-0.7,0.2-1,0.2c-0.4,0-0.7-0.1-1-0.3c-0.2-0.2-0.4-0.4-0.5-0.7s-0.1-0.7-0.1-1.4v-3.3H113.1z"
				/>
			<path class="st7" d="M121.8,315.9v-7.2h-1.2v-1.2h2.5v3.7c0.8-0.6,1.5-0.9,2.2-0.9c0.4,0,0.8,0.1,1.1,0.3s0.5,0.4,0.6,0.7
				c0.1,0.3,0.2,0.7,0.2,1.3v3.3h1.1v1.2h-2.4v-4c0-0.5,0-0.8,0-1s-0.1-0.3-0.3-0.4s-0.3-0.2-0.5-0.2c-0.5,0-1.1,0.3-1.9,0.9v3.6
				h1.1v1.2h-3.6v-1.2H121.8z"/>
			<path class="st7" d="M135.6,315.9v1.2h-2.3v-0.8c-0.6,0.6-1.3,0.9-2.1,0.9c-0.6,0-1.1-0.2-1.6-0.6s-0.7-0.9-0.7-1.5
				c0-0.6,0.2-1.1,0.7-1.5s1-0.6,1.7-0.6c0.6,0,1.2,0.2,1.8,0.6v-0.7c0-0.3,0-0.6-0.1-0.8s-0.2-0.3-0.4-0.5s-0.5-0.2-0.9-0.2
				c-0.7,0-1.1,0.3-1.4,0.8l-1.2-0.3c0.6-1,1.5-1.5,2.9-1.5c0.5,0,0.9,0.1,1.3,0.2c0.4,0.1,0.6,0.3,0.8,0.5c0.2,0.2,0.3,0.4,0.4,0.7
				s0.1,0.6,0.1,1.2v3.1H135.6z M133.2,314.6c-0.6-0.4-1.1-0.7-1.7-0.7c-0.4,0-0.7,0.1-0.9,0.3s-0.4,0.5-0.4,0.8
				c0,0.3,0.1,0.6,0.3,0.8s0.5,0.3,0.9,0.3c0.6,0,1.2-0.3,1.8-0.8V314.6z"/>
			<path class="st7" d="M138.8,317.2l-2.2-5.6h-1.2v-1.2h3.3v1.2H138l1.4,3.8l1.4-3.8h-0.9v-1.2h3.2v1.2h-1l-2.1,5.6H138.8z"/>
			<path class="st7" d="M150.3,314.1h-5.6c0.1,0.6,0.3,1.1,0.7,1.5s0.9,0.6,1.5,0.6c0.9,0,1.6-0.4,2.2-1.1l1.1,0.5
				c-0.4,0.6-0.9,1-1.5,1.3c-0.6,0.3-1.2,0.4-1.9,0.4c-1,0-1.9-0.3-2.6-0.9c-0.7-0.6-1.1-1.5-1.1-2.6c0-1,0.3-1.9,1-2.5s1.5-1,2.4-1
				c0.9,0,1.7,0.3,2.4,1C149.9,311.9,150.2,312.8,150.3,314.1z M148.9,313.2c-0.1-0.5-0.3-0.9-0.7-1.3c-0.4-0.4-0.9-0.6-1.4-0.6
				c-0.5,0-1,0.2-1.3,0.5c-0.4,0.3-0.6,0.8-0.7,1.3H148.9z"/>
			<path class="st7" d="M154.7,317.1v-1.2h1.2v-7.2h-1.2v-1.2h2.4v3.8c0.7-0.7,1.5-1.1,2.4-1.1c0.9,0,1.7,0.3,2.3,0.9
				c0.6,0.6,0.9,1.5,0.9,2.5c0,1-0.3,1.8-0.9,2.5c-0.6,0.7-1.4,1-2.3,1c-0.5,0-1-0.1-1.4-0.3s-0.8-0.5-0.9-0.8v1H154.7z
				 M157.1,313.8c0,0.7,0.2,1.2,0.6,1.6c0.4,0.4,0.9,0.6,1.5,0.6c0.6,0,1.1-0.2,1.5-0.6s0.6-1,0.6-1.7c0-0.7-0.2-1.2-0.6-1.6
				c-0.4-0.4-0.9-0.6-1.5-0.6c-0.6,0-1,0.2-1.5,0.6C157.4,312.5,157.1,313,157.1,313.8z"/>
			<path class="st7" d="M170.8,314.1h-5.6c0.1,0.6,0.3,1.1,0.7,1.5s0.9,0.6,1.5,0.6c0.9,0,1.6-0.4,2.2-1.1l1.1,0.5
				c-0.4,0.6-0.9,1-1.5,1.3c-0.6,0.3-1.2,0.4-1.9,0.4c-1,0-1.9-0.3-2.6-0.9c-0.7-0.6-1.1-1.5-1.1-2.6c0-1,0.3-1.9,1-2.5s1.5-1,2.4-1
				c0.9,0,1.7,0.3,2.4,1C170.4,311.9,170.8,312.8,170.8,314.1z M169.5,313.2c-0.1-0.5-0.3-0.9-0.7-1.3c-0.4-0.4-0.9-0.6-1.4-0.6
				c-0.5,0-1,0.2-1.3,0.5c-0.4,0.3-0.6,0.8-0.7,1.3H169.5z"/>
			<path class="st7" d="M178.9,314.1h-5.6c0.1,0.6,0.3,1.1,0.7,1.5s0.9,0.6,1.5,0.6c0.9,0,1.6-0.4,2.2-1.1l1.1,0.5
				c-0.4,0.6-0.9,1-1.5,1.3c-0.6,0.3-1.2,0.4-1.9,0.4c-1,0-1.9-0.3-2.6-0.9c-0.7-0.6-1.1-1.5-1.1-2.6c0-1,0.3-1.9,1-2.5s1.5-1,2.4-1
				c0.9,0,1.7,0.3,2.4,1C178.5,311.9,178.8,312.8,178.9,314.1z M177.5,313.2c-0.1-0.5-0.3-0.9-0.7-1.3c-0.4-0.4-0.9-0.6-1.4-0.6
				c-0.5,0-1,0.2-1.3,0.5c-0.4,0.3-0.6,0.8-0.7,1.3H177.5z"/>
			<path class="st7" d="M182.2,310.5v0.8c0.8-0.6,1.6-0.9,2.3-0.9c0.4,0,0.8,0.1,1.1,0.3c0.3,0.2,0.5,0.5,0.6,0.7
				c0.1,0.3,0.1,0.7,0.1,1.3v3.2h1.1v1.2H185v-4.3c0-0.5-0.1-0.8-0.2-1c-0.2-0.2-0.3-0.2-0.6-0.2c-0.6,0-1.2,0.3-1.9,0.8v3.5h1.1
				v1.2h-3.6v-1.2h1.2v-4.3h-1.2v-1.2H182.2z"/>
			<path class="st7" d="M192.5,315.9v-4.3h-1.1v-1.2h2.4v0.8c0.8-0.6,1.5-0.9,2.3-0.9c0.8,0,1.3,0.3,1.6,1c0.9-0.7,1.7-1,2.4-1
				c0.4,0,0.8,0.1,1.1,0.3c0.3,0.2,0.5,0.4,0.6,0.7c0.1,0.3,0.1,0.7,0.1,1.3v3.3h1.2v1.2h-2.5v-4.2c0-0.4,0-0.7-0.1-0.8
				c0-0.2-0.1-0.3-0.3-0.4c-0.1-0.1-0.3-0.2-0.5-0.2c-0.6,0-1.2,0.3-1.9,0.9v3.5h1.1v1.2h-2.4v-4.3c0-0.4-0.1-0.7-0.2-0.9
				c-0.1-0.2-0.3-0.3-0.6-0.3c-0.5,0-1.1,0.3-1.9,0.9v3.5h1.2v1.2h-3.6v-1.2H192.5z"/>
			<path class="st7" d="M203.6,313.8c0-1,0.3-1.9,1-2.5c0.7-0.7,1.5-1,2.5-1c1,0,1.8,0.3,2.5,1c0.7,0.6,1,1.5,1,2.5s-0.3,1.9-1,2.5
				c-0.7,0.6-1.5,1-2.5,1c-1,0-1.8-0.3-2.5-1C203.9,315.6,203.6,314.8,203.6,313.8z M204.9,313.8c0,0.7,0.2,1.2,0.6,1.6
				c0.4,0.4,0.9,0.6,1.5,0.6c0.6,0,1.1-0.2,1.5-0.6s0.6-1,0.6-1.6c0-0.6-0.2-1.2-0.6-1.6s-0.9-0.6-1.5-0.6c-0.6,0-1.1,0.2-1.5,0.6
				S204.9,313.2,204.9,313.8z"/>
			<path class="st7" d="M213.8,317.2l-2.2-5.6h-1.2v-1.2h3.3v1.2h-0.9l1.4,3.8l1.4-3.8h-0.9v-1.2h3.2v1.2h-1l-2.1,5.6H213.8z"/>
			<path class="st7" d="M225.2,314.1h-5.6c0.1,0.6,0.3,1.1,0.7,1.5c0.4,0.4,0.9,0.6,1.5,0.6c0.9,0,1.6-0.4,2.2-1.1l1.1,0.5
				c-0.4,0.6-0.9,1-1.5,1.3c-0.6,0.3-1.2,0.4-1.9,0.4c-1,0-1.9-0.3-2.6-0.9c-0.7-0.6-1.1-1.5-1.1-2.6c0-1,0.3-1.9,1-2.5
				c0.7-0.7,1.5-1,2.4-1c0.9,0,1.7,0.3,2.4,1C224.8,311.9,225.2,312.8,225.2,314.1z M223.9,313.2c-0.1-0.5-0.3-0.9-0.7-1.3
				c-0.4-0.4-0.9-0.6-1.4-0.6c-0.5,0-1,0.2-1.3,0.5c-0.4,0.3-0.6,0.8-0.7,1.3H223.9z"/>
			<path class="st7" d="M234.5,315.9v1.2H232v-1c-0.6,0.7-1.4,1.1-2.4,1.1c-0.9,0-1.6-0.3-2.3-0.9c-0.7-0.6-1-1.4-1-2.5
				c0-1.1,0.3-1.9,1-2.6s1.4-0.9,2.3-0.9c0.9,0,1.7,0.4,2.3,1.1v-2.6h-1.3v-1.2h2.6v8.4H234.5z M227.8,313.8c0,0.7,0.2,1.3,0.6,1.7
				c0.4,0.4,0.9,0.6,1.5,0.6c0.6,0,1-0.2,1.5-0.6c0.4-0.4,0.6-1,0.6-1.7c0-0.7-0.2-1.3-0.7-1.7c-0.4-0.4-0.9-0.6-1.5-0.6
				c-0.6,0-1.1,0.2-1.5,0.7C228,312.6,227.8,313.1,227.8,313.8z"/>
			<path class="st7" d="M235.7,317.1v-1.7h1.7v1.5c0,0.5,0,0.9-0.1,1.2c-0.1,0.3-0.2,0.5-0.5,0.7c-0.3,0.2-0.6,0.3-1.1,0.3v-0.7
				c0.5-0.1,0.8-0.4,0.8-1c0,0,0-0.1,0-0.2H235.7z"/>
			<path class="st7" d="M242.6,315.9v-4.3h-1.3v-1.2h2.4v1.5c0.1-0.4,0.3-0.7,0.6-1s0.5-0.4,0.8-0.5c0.3-0.1,0.7-0.1,1.2-0.1h0.3
				v1.3h-0.3c-0.7,0-1.2,0.1-1.5,0.2c-0.3,0.1-0.6,0.4-0.7,0.7c-0.2,0.3-0.2,1-0.2,1.9v1.5h1.4v1.2h-4.1v-1.2H242.6z"/>
			<path class="st7" d="M253.6,314.1h-5.6c0.1,0.6,0.3,1.1,0.7,1.5c0.4,0.4,0.9,0.6,1.5,0.6c0.9,0,1.6-0.4,2.2-1.1l1.1,0.5
				c-0.4,0.6-0.9,1-1.5,1.3c-0.6,0.3-1.2,0.4-1.9,0.4c-1,0-1.9-0.3-2.6-0.9c-0.7-0.6-1.1-1.5-1.1-2.6c0-1,0.3-1.9,1-2.5
				c0.7-0.7,1.5-1,2.4-1c0.9,0,1.7,0.3,2.4,1C253.2,311.9,253.6,312.8,253.6,314.1z M252.3,313.2c-0.1-0.5-0.3-0.9-0.7-1.3
				c-0.4-0.4-0.9-0.6-1.4-0.6c-0.5,0-1,0.2-1.3,0.5c-0.4,0.3-0.6,0.8-0.7,1.3H252.3z"/>
			<path class="st7" d="M257,310.5v0.8c0.8-0.6,1.6-0.9,2.3-0.9c0.4,0,0.8,0.1,1.1,0.3c0.3,0.2,0.5,0.5,0.6,0.7
				c0.1,0.3,0.1,0.7,0.1,1.3v3.2h1.1v1.2h-2.4v-4.3c0-0.5-0.1-0.8-0.2-1c-0.2-0.2-0.3-0.2-0.6-0.2c-0.6,0-1.2,0.3-1.9,0.8v3.5h1.1
				v1.2h-3.6v-1.2h1.2v-4.3h-1.2v-1.2H257z"/>
			<path class="st7" d="M269.4,315.9v1.2h-2.3v-0.8c-0.6,0.6-1.3,0.9-2.1,0.9c-0.6,0-1.1-0.2-1.6-0.6s-0.7-0.9-0.7-1.5
				c0-0.6,0.2-1.1,0.7-1.5s1-0.6,1.7-0.6c0.6,0,1.2,0.2,1.8,0.6v-0.7c0-0.3,0-0.6-0.1-0.8c-0.1-0.2-0.2-0.3-0.4-0.5
				c-0.2-0.1-0.5-0.2-0.9-0.2c-0.7,0-1.1,0.3-1.4,0.8l-1.2-0.3c0.6-1,1.5-1.5,2.9-1.5c0.5,0,0.9,0.1,1.3,0.2
				c0.4,0.1,0.6,0.3,0.8,0.5c0.2,0.2,0.3,0.4,0.4,0.7s0.1,0.6,0.1,1.2v3.1H269.4z M267,314.6c-0.6-0.4-1.1-0.7-1.7-0.7
				c-0.4,0-0.7,0.1-0.9,0.3c-0.2,0.2-0.4,0.5-0.4,0.8c0,0.3,0.1,0.6,0.3,0.8s0.5,0.3,0.9,0.3c0.6,0,1.2-0.3,1.8-0.8V314.6z"/>
			<path class="st7" d="M271.1,315.9v-4.3H270v-1.2h2.4v0.8c0.8-0.6,1.5-0.9,2.3-0.9c0.8,0,1.3,0.3,1.6,1c0.9-0.7,1.7-1,2.4-1
				c0.4,0,0.8,0.1,1.1,0.3c0.3,0.2,0.5,0.4,0.6,0.7c0.1,0.3,0.1,0.7,0.1,1.3v3.3h1.2v1.2h-2.5v-4.2c0-0.4,0-0.7-0.1-0.8
				c0-0.2-0.1-0.3-0.3-0.4c-0.1-0.1-0.3-0.2-0.5-0.2c-0.6,0-1.2,0.3-1.9,0.9v3.5h1.1v1.2h-2.4v-4.3c0-0.4-0.1-0.7-0.2-0.9
				c-0.1-0.2-0.3-0.3-0.6-0.3c-0.5,0-1.1,0.3-1.9,0.9v3.5h1.2v1.2H270v-1.2H271.1z"/>
			<path class="st7" d="M289.2,314.1h-5.6c0.1,0.6,0.3,1.1,0.7,1.5c0.4,0.4,0.9,0.6,1.5,0.6c0.9,0,1.6-0.4,2.2-1.1l1.1,0.5
				c-0.4,0.6-0.9,1-1.5,1.3c-0.6,0.3-1.2,0.4-1.9,0.4c-1,0-1.9-0.3-2.6-0.9c-0.7-0.6-1.1-1.5-1.1-2.6c0-1,0.3-1.9,1-2.5
				c0.7-0.7,1.5-1,2.4-1c0.9,0,1.7,0.3,2.4,1C288.8,311.9,289.2,312.8,289.2,314.1z M287.9,313.2c-0.1-0.5-0.3-0.9-0.7-1.3
				c-0.4-0.4-0.9-0.6-1.4-0.6c-0.5,0-1,0.2-1.3,0.5c-0.4,0.3-0.6,0.8-0.7,1.3H287.9z"/>
			<path class="st7" d="M298.4,315.9v1.2H296v-1c-0.6,0.7-1.4,1.1-2.4,1.1c-0.9,0-1.6-0.3-2.3-0.9c-0.7-0.6-1-1.4-1-2.5
				c0-1.1,0.3-1.9,1-2.6s1.4-0.9,2.3-0.9c0.9,0,1.7,0.4,2.3,1.1v-2.6h-1.3v-1.2h2.6v8.4H298.4z M291.7,313.8c0,0.7,0.2,1.3,0.6,1.7
				c0.4,0.4,0.9,0.6,1.5,0.6c0.6,0,1-0.2,1.5-0.6c0.4-0.4,0.6-1,0.6-1.7c0-0.7-0.2-1.3-0.7-1.7c-0.4-0.4-0.9-0.6-1.5-0.6
				c-0.6,0-1.1,0.2-1.5,0.7C291.9,312.6,291.7,313.1,291.7,313.8z"/>
			<path class="st7" d="M299.7,317.1v-1.7h1.7v1.5c0,0.5,0,0.9-0.1,1.2s-0.2,0.5-0.5,0.7c-0.3,0.2-0.6,0.3-1.1,0.3v-0.7
				c0.5-0.1,0.8-0.4,0.8-1c0,0,0-0.1,0-0.2H299.7z"/>
			<path class="st7" d="M116.9,330.6c0-1,0.3-1.9,1-2.5c0.7-0.7,1.5-1,2.5-1c1,0,1.8,0.3,2.5,1c0.7,0.6,1,1.5,1,2.5s-0.3,1.9-1,2.5
				s-1.5,1-2.5,1c-1,0-1.8-0.3-2.5-1S116.9,331.6,116.9,330.6z M118.3,330.6c0,0.7,0.2,1.2,0.6,1.6c0.4,0.4,0.9,0.6,1.5,0.6
				c0.6,0,1.1-0.2,1.5-0.6s0.6-1,0.6-1.6c0-0.6-0.2-1.2-0.6-1.6s-0.9-0.6-1.5-0.6c-0.6,0-1.1,0.2-1.5,0.6S118.3,330,118.3,330.6z"/>
			<path class="st7" d="M126.1,332.7v-4.3h-1.3v-1.2h2.4v1.5c0.1-0.4,0.3-0.7,0.6-1s0.5-0.4,0.8-0.5s0.7-0.1,1.2-0.1h0.3v1.3h-0.3
				c-0.7,0-1.2,0.1-1.5,0.2c-0.3,0.1-0.6,0.4-0.7,0.7c-0.2,0.3-0.2,1-0.2,1.9v1.5h1.4v1.2h-4.1v-1.2H126.1z"/>
			<path class="st7" d="M135.3,332.7v-4.3h-1.1v-1.2h2.4v0.8c0.8-0.6,1.5-0.9,2.3-0.9c0.8,0,1.3,0.3,1.6,1c0.9-0.7,1.7-1,2.4-1
				c0.4,0,0.8,0.1,1.1,0.3c0.3,0.2,0.5,0.4,0.6,0.7c0.1,0.3,0.1,0.7,0.1,1.3v3.3h1.2v1.2h-2.5v-4.2c0-0.4,0-0.7-0.1-0.8
				c0-0.2-0.1-0.3-0.3-0.4c-0.1-0.1-0.3-0.2-0.5-0.2c-0.6,0-1.2,0.3-1.9,0.9v3.5h1.1v1.2h-2.4v-4.3c0-0.4-0.1-0.7-0.2-0.9
				c-0.1-0.2-0.3-0.3-0.6-0.3c-0.5,0-1.1,0.3-1.9,0.9v3.5h1.2v1.2h-3.6v-1.2H135.3z"/>
			<path class="st7" d="M147.4,332.7v-4.3h-1v-1.2h2.3v5.5h1v1.2h-3.3v-1.2H147.4z M147.2,325c0-0.2,0.1-0.4,0.2-0.5
				s0.3-0.2,0.6-0.2c0.2,0,0.4,0.1,0.6,0.2s0.2,0.3,0.2,0.6s-0.1,0.4-0.2,0.6c-0.2,0.2-0.3,0.2-0.6,0.2c-0.2,0-0.4-0.1-0.6-0.2
				S147.2,325.2,147.2,325z"/>
			<path class="st7" d="M158.6,327.3v1.2h-1.2v4.9c0,0.7,0,1.2-0.1,1.5c-0.1,0.3-0.2,0.6-0.5,1c-0.3,0.3-0.7,0.6-1.2,0.8
				s-1.1,0.3-1.8,0.3c-1,0-1.8-0.3-2.6-0.9l0.8-0.9c0.6,0.4,1.2,0.7,1.9,0.7c0.4,0,0.7-0.1,1-0.2c0.3-0.1,0.6-0.3,0.7-0.5
				s0.3-0.4,0.3-0.6c0-0.2,0.1-0.5,0.1-0.9V333c-0.2,0.3-0.5,0.5-1,0.7s-0.9,0.3-1.4,0.3c-0.9,0-1.7-0.3-2.3-1s-0.9-1.5-0.9-2.4
				c0-1,0.3-1.9,1-2.5c0.7-0.6,1.4-1,2.3-1c0.9,0,1.7,0.3,2.3,1v-0.9H158.6z M151.8,330.7c0,0.7,0.2,1.2,0.6,1.6s0.9,0.6,1.5,0.6
				c0.6,0,1.1-0.2,1.5-0.6c0.4-0.4,0.6-1,0.6-1.6c0-0.7-0.2-1.2-0.6-1.6c-0.4-0.4-0.9-0.6-1.5-0.6s-1.1,0.2-1.5,0.6
				C152,329.4,151.8,330,151.8,330.7z"/>
			<path class="st7" d="M160.2,332.7v-7.2H159v-1.2h2.5v3.7c0.8-0.6,1.5-0.9,2.2-0.9c0.4,0,0.8,0.1,1.1,0.3s0.5,0.4,0.6,0.7
				c0.1,0.3,0.2,0.7,0.2,1.3v3.3h1.1v1.2h-2.4v-4c0-0.5,0-0.8,0-1s-0.1-0.3-0.3-0.4s-0.3-0.2-0.5-0.2c-0.5,0-1.1,0.3-1.9,0.9v3.6
				h1.1v1.2H159v-1.2H160.2z"/>
			<path class="st7" d="M167.2,328.4v-1.2h0.9v-1l1.3-1.2v2.2h1.2v1.2h-1.2v3.2c0,0.5,0,0.8,0.1,1c0.1,0.1,0.2,0.2,0.4,0.2
				c0.2,0,0.5,0,0.7-0.1v1.2c-0.3,0.1-0.7,0.2-1,0.2c-0.4,0-0.7-0.1-1-0.3c-0.2-0.2-0.4-0.4-0.5-0.7s-0.1-0.7-0.1-1.4v-3.3H167.2z"
				/>
			<path class="st7" d="M177.3,327.3v0.8c0.8-0.6,1.6-0.9,2.3-0.9c0.4,0,0.8,0.1,1.1,0.3c0.3,0.2,0.5,0.5,0.6,0.7
				c0.1,0.3,0.1,0.7,0.1,1.3v3.2h1.1v1.2H180v-4.3c0-0.5-0.1-0.8-0.2-1c-0.2-0.2-0.3-0.2-0.6-0.2c-0.6,0-1.2,0.3-1.9,0.8v3.5h1.1
				v1.2h-3.6v-1.2h1.2v-4.3h-1.2v-1.2H177.3z"/>
			<path class="st7" d="M190,330.9h-5.6c0.1,0.6,0.3,1.1,0.7,1.5s0.9,0.6,1.5,0.6c0.9,0,1.6-0.4,2.2-1.1l1.1,0.5
				c-0.4,0.6-0.9,1-1.5,1.3c-0.6,0.3-1.2,0.4-1.9,0.4c-1,0-1.9-0.3-2.6-0.9c-0.7-0.6-1.1-1.5-1.1-2.6c0-1,0.3-1.9,1-2.5s1.5-1,2.4-1
				c0.9,0,1.7,0.3,2.4,1C189.6,328.7,190,329.6,190,330.9z M188.7,330c-0.1-0.5-0.3-0.9-0.7-1.3c-0.4-0.4-0.9-0.6-1.4-0.6
				c-0.5,0-1,0.2-1.3,0.5c-0.4,0.3-0.6,0.8-0.7,1.3H188.7z"/>
			<path class="st7" d="M193.3,334l-2.2-5.6H190v-1.2h3.3v1.2h-0.9l1.4,3.8l1.4-3.8h-0.9v-1.2h3.2v1.2h-1l-2.1,5.6H193.3z"/>
			<path class="st7" d="M204.8,330.9h-5.6c0.1,0.6,0.3,1.1,0.7,1.5c0.4,0.4,0.9,0.6,1.5,0.6c0.9,0,1.6-0.4,2.2-1.1l1.1,0.5
				c-0.4,0.6-0.9,1-1.5,1.3c-0.6,0.3-1.2,0.4-1.9,0.4c-1,0-1.9-0.3-2.6-0.9c-0.7-0.6-1.1-1.5-1.1-2.6c0-1,0.3-1.9,1-2.5
				c0.7-0.7,1.5-1,2.4-1c0.9,0,1.7,0.3,2.4,1C204.4,328.7,204.7,329.6,204.8,330.9z M203.4,330c-0.1-0.5-0.3-0.9-0.7-1.3
				c-0.4-0.4-0.9-0.6-1.4-0.6c-0.5,0-1,0.2-1.3,0.5c-0.4,0.3-0.6,0.8-0.7,1.3H203.4z"/>
			<path class="st7" d="M206.9,332.7v-4.3h-1.3v-1.2h2.4v1.5c0.1-0.4,0.3-0.7,0.6-1s0.5-0.4,0.8-0.5c0.3-0.1,0.7-0.1,1.2-0.1h0.3
				v1.3h-0.3c-0.7,0-1.2,0.1-1.5,0.2c-0.3,0.1-0.6,0.4-0.7,0.7c-0.2,0.3-0.2,1-0.2,1.9v1.5h1.4v1.2h-4.1v-1.2H206.9z"/>
			<path class="st7" d="M222.1,330.9h-5.6c0.1,0.6,0.3,1.1,0.7,1.5c0.4,0.4,0.9,0.6,1.5,0.6c0.9,0,1.6-0.4,2.2-1.1l1.1,0.5
				c-0.4,0.6-0.9,1-1.5,1.3c-0.6,0.3-1.2,0.4-1.9,0.4c-1,0-1.9-0.3-2.6-0.9c-0.7-0.6-1.1-1.5-1.1-2.6c0-1,0.3-1.9,1-2.5
				c0.7-0.7,1.5-1,2.4-1c0.9,0,1.7,0.3,2.4,1C221.7,328.7,222.1,329.6,222.1,330.9z M220.8,330c-0.1-0.5-0.3-0.9-0.7-1.3
				c-0.4-0.4-0.9-0.6-1.4-0.6c-0.5,0-1,0.2-1.3,0.5c-0.4,0.3-0.6,0.8-0.7,1.3H220.8z"/>
			<path class="st7" d="M226.4,331.3l-1.3,1.5h0.9v1.2h-3.2v-1.2h1l2-2.2l-1.9-2.1h-0.9v-1.2h3.1v1.2h-0.8l1.2,1.3l1.1-1.3h-0.7
				v-1.2h3.1v1.2h-1.1l-1.8,2.1l2.1,2.3h0.8v1.2h-3.1v-1.2h0.9L226.4,331.3z"/>
			<path class="st7" d="M231.7,332.7v-4.3h-1v-1.2h2.3v5.5h1v1.2h-3.3v-1.2H231.7z M231.5,325c0-0.2,0.1-0.4,0.2-0.5
				c0.1-0.2,0.3-0.2,0.6-0.2c0.2,0,0.4,0.1,0.6,0.2c0.2,0.2,0.2,0.3,0.2,0.6s-0.1,0.4-0.2,0.6c-0.2,0.2-0.3,0.2-0.6,0.2
				c-0.2,0-0.4-0.1-0.6-0.2C231.6,325.4,231.5,325.2,231.5,325z"/>
			<path class="st7" d="M234.9,333.9v-2.3h1.2v0.2c0,0.3,0.2,0.6,0.5,0.8s0.6,0.3,1,0.3c0.4,0,0.8-0.1,1-0.2
				c0.3-0.1,0.4-0.3,0.4-0.6c0-0.3-0.1-0.4-0.3-0.6c-0.2-0.1-0.6-0.2-1.2-0.3c-0.9-0.2-1.6-0.4-2-0.7c-0.4-0.3-0.6-0.8-0.6-1.3
				c0-0.6,0.2-1,0.6-1.4s1-0.6,1.7-0.6c0.6,0,1.2,0.1,1.6,0.4v-0.3h1.2v2.2h-1.2v-0.4c-0.4-0.5-0.9-0.8-1.5-0.8
				c-0.3,0-0.6,0.1-0.8,0.2c-0.2,0.1-0.3,0.3-0.3,0.6c0,0.3,0.1,0.4,0.3,0.5c0.2,0.1,0.6,0.2,1.3,0.3c0.6,0.1,1.1,0.2,1.5,0.4
				s0.6,0.4,0.8,0.7c0.2,0.3,0.3,0.7,0.3,1.1c0,0.6-0.2,1.1-0.7,1.5s-1.1,0.5-1.8,0.5c-0.7,0-1.3-0.2-1.7-0.5v0.4H234.9z"/>
			<path class="st7" d="M241.2,328.4v-1.2h0.9v-1l1.3-1.2v2.2h1.2v1.2h-1.2v3.2c0,0.5,0,0.8,0.1,1c0.1,0.1,0.2,0.2,0.4,0.2
				c0.2,0,0.5,0,0.7-0.1v1.2c-0.3,0.1-0.7,0.2-1,0.2c-0.4,0-0.7-0.1-1-0.3c-0.2-0.2-0.4-0.4-0.5-0.7c-0.1-0.3-0.1-0.7-0.1-1.4v-3.3
				H241.2z"/>
			<path class="st7" d="M252.5,330.9h-5.6c0.1,0.6,0.3,1.1,0.7,1.5c0.4,0.4,0.9,0.6,1.5,0.6c0.9,0,1.6-0.4,2.2-1.1l1.1,0.5
				c-0.4,0.6-0.9,1-1.5,1.3c-0.6,0.3-1.2,0.4-1.9,0.4c-1,0-1.9-0.3-2.6-0.9c-0.7-0.6-1.1-1.5-1.1-2.6c0-1,0.3-1.9,1-2.5
				c0.7-0.7,1.5-1,2.4-1c0.9,0,1.7,0.3,2.4,1C252.1,328.7,252.4,329.6,252.5,330.9z M251.1,330c-0.1-0.5-0.3-0.9-0.7-1.3
				c-0.4-0.4-0.9-0.6-1.4-0.6c-0.5,0-1,0.2-1.3,0.5c-0.4,0.3-0.6,0.8-0.7,1.3H251.1z"/>
			<path class="st7" d="M261.7,332.7v1.2h-2.5v-1c-0.6,0.7-1.4,1.1-2.4,1.1c-0.9,0-1.6-0.3-2.3-0.9c-0.7-0.6-1-1.4-1-2.5
				c0-1.1,0.3-1.9,1-2.6s1.4-0.9,2.3-0.9c0.9,0,1.7,0.4,2.3,1.1v-2.6h-1.3v-1.2h2.6v8.4H261.7z M255,330.6c0,0.7,0.2,1.3,0.6,1.7
				c0.4,0.4,0.9,0.6,1.5,0.6c0.6,0,1-0.2,1.5-0.6c0.4-0.4,0.6-1,0.6-1.7c0-0.7-0.2-1.3-0.7-1.7c-0.4-0.4-0.9-0.6-1.5-0.6
				c-0.6,0-1.1,0.2-1.5,0.7C255.2,329.4,255,329.9,255,330.6z"/>
			<path class="st7" d="M262.9,333.9v-1.7h1.7v1.7H262.9z"/>
		</g>
		<g>
			<path class="st2" d="M172,252c0-1.4,0.5-2.5,1.4-3.5s2.1-1.4,3.5-1.4c1.5,0,2.7,0.5,3.6,1.4s1.4,2.1,1.4,3.5
				c0,1.4-0.5,2.6-1.4,3.5c-0.9,0.9-2.1,1.4-3.6,1.4c-0.9,0-1.8-0.2-2.5-0.7c-0.8-0.4-1.4-1.1-1.7-1.8
				C172.2,253.7,172,252.9,172,252z M173.6,252c0,1,0.3,1.9,0.9,2.6s1.4,1.1,2.4,1.1c1,0,1.8-0.4,2.4-1.1c0.6-0.7,1-1.6,1-2.6
				c0-1-0.3-1.9-1-2.6c-0.6-0.7-1.5-1-2.4-1c-1,0-1.8,0.3-2.4,1S173.6,251,173.6,252z"/>
			<path class="st2" d="M183.1,253.5c0-1,0.3-1.9,1-2.5c0.7-0.7,1.5-1,2.5-1c1,0,1.8,0.3,2.5,1c0.7,0.6,1,1.5,1,2.5s-0.3,1.9-1,2.5
				c-0.7,0.6-1.5,1-2.5,1c-1,0-1.8-0.3-2.5-1C183.4,255.4,183.1,254.5,183.1,253.5z M184.4,253.5c0,0.7,0.2,1.2,0.6,1.6
				c0.4,0.4,0.9,0.6,1.5,0.6c0.6,0,1.1-0.2,1.5-0.6s0.6-1,0.6-1.6c0-0.6-0.2-1.2-0.6-1.6s-0.9-0.6-1.5-0.6c-0.6,0-1.1,0.2-1.5,0.6
				S184.4,252.9,184.4,253.5z"/>
			<path class="st2" d="M191.9,258.6v-7.3h-1.1v-1.2h2.4v1c0.6-0.8,1.4-1.1,2.4-1.1c0.9,0,1.7,0.3,2.3,1c0.6,0.6,0.9,1.5,0.9,2.5
				c0,1.1-0.3,1.9-1,2.5c-0.7,0.6-1.4,0.9-2.3,0.9c-0.9,0-1.6-0.3-2.3-1v2.6h1.3v1.2h-3.8v-1.2H191.9z M193.1,253.6
				c0,0.4,0.1,0.7,0.2,1s0.4,0.6,0.7,0.8c0.3,0.2,0.7,0.3,1.2,0.3c0.6,0,1.1-0.2,1.5-0.6c0.4-0.4,0.6-1,0.6-1.7
				c0-0.7-0.2-1.3-0.6-1.7c-0.4-0.4-0.9-0.6-1.4-0.6c-0.6,0-1.1,0.2-1.5,0.6C193.4,252.3,193.1,252.9,193.1,253.6z"/>
			<path class="st2" d="M199.9,256.8v-2.3h1.2v0.2c0,0.3,0.2,0.6,0.5,0.8c0.3,0.2,0.6,0.3,1,0.3c0.4,0,0.8-0.1,1-0.2
				s0.4-0.3,0.4-0.6c0-0.3-0.1-0.4-0.3-0.6c-0.2-0.1-0.6-0.2-1.2-0.3c-0.9-0.2-1.6-0.4-2-0.7c-0.4-0.3-0.6-0.8-0.6-1.3
				c0-0.6,0.2-1,0.6-1.4s1-0.6,1.7-0.6c0.6,0,1.2,0.1,1.6,0.4v-0.3h1.2v2.2h-1.2V252c-0.4-0.5-0.9-0.8-1.5-0.8
				c-0.3,0-0.6,0.1-0.8,0.2c-0.2,0.1-0.3,0.3-0.3,0.6c0,0.3,0.1,0.4,0.3,0.5c0.2,0.1,0.6,0.2,1.3,0.3c0.6,0.1,1.1,0.2,1.5,0.4
				s0.6,0.4,0.8,0.7c0.2,0.3,0.3,0.7,0.3,1.1c0,0.6-0.2,1.1-0.7,1.5c-0.5,0.4-1.1,0.5-1.8,0.5c-0.7,0-1.3-0.2-1.7-0.5v0.4H199.9z"/>
			<path class="st2" d="M206.9,256.8v-1.7h1.7v1.7H206.9z M208.1,254.2h-0.7l-0.3-4v-2.9h1.4v2.9L208.1,254.2z"/>
			<path class="st2" d="M139.8,272.4v-7.1h-1v-1.2h3.5v1.2h-1v7.1h1v1.2h-3.5v-1.2H139.8z"/>
			<path class="st2" d="M143.2,268.1V267h0.9v-1l1.3-1.2v2.2h1.2v1.2h-1.2v3.2c0,0.5,0,0.8,0.1,1c0.1,0.1,0.2,0.2,0.4,0.2
				c0.2,0,0.5,0,0.7-0.1v1.2c-0.3,0.1-0.7,0.2-1,0.2c-0.4,0-0.7-0.1-1-0.3c-0.2-0.2-0.4-0.4-0.5-0.7s-0.1-0.7-0.1-1.4v-3.3H143.2z"
				/>
			<path class="st2" d="M148.2,265.8v-1.7h1.7v1.5c0,0.5,0,0.9-0.1,1.2s-0.2,0.5-0.5,0.7s-0.6,0.3-1.1,0.3V267
				c0.5-0.1,0.8-0.4,0.8-1c0,0,0-0.1,0-0.2H148.2z"/>
			<path class="st2" d="M150.1,273.6v-2.3h1.2v0.2c0,0.3,0.2,0.6,0.5,0.8s0.6,0.3,1,0.3c0.4,0,0.8-0.1,1-0.2s0.4-0.3,0.4-0.6
				c0-0.3-0.1-0.4-0.3-0.6s-0.6-0.2-1.2-0.3c-0.9-0.2-1.6-0.4-2-0.7c-0.4-0.3-0.6-0.8-0.6-1.3c0-0.6,0.2-1,0.6-1.4s1-0.6,1.7-0.6
				c0.6,0,1.2,0.1,1.6,0.4V267h1.2v2.2H154v-0.4c-0.4-0.5-0.9-0.8-1.5-0.8c-0.3,0-0.6,0.1-0.8,0.2c-0.2,0.1-0.3,0.3-0.3,0.6
				c0,0.3,0.1,0.4,0.3,0.5c0.2,0.1,0.6,0.2,1.3,0.3c0.6,0.1,1.1,0.2,1.5,0.4s0.6,0.4,0.8,0.7c0.2,0.3,0.3,0.7,0.3,1.1
				c0,0.6-0.2,1.1-0.7,1.5s-1.1,0.5-1.8,0.5c-0.7,0-1.3-0.2-1.7-0.5v0.4H150.1z"/>
			<path class="st2" d="M166.7,272.4v1.2h-2.3v-0.8c-0.6,0.6-1.3,0.9-2.1,0.9c-0.6,0-1.1-0.2-1.6-0.6s-0.7-0.9-0.7-1.5
				c0-0.6,0.2-1.1,0.7-1.5s1-0.6,1.7-0.6c0.6,0,1.2,0.2,1.8,0.6v-0.7c0-0.3,0-0.6-0.1-0.8s-0.2-0.3-0.4-0.5s-0.5-0.2-0.9-0.2
				c-0.7,0-1.1,0.3-1.4,0.8l-1.2-0.3c0.6-1,1.5-1.5,2.9-1.5c0.5,0,0.9,0.1,1.3,0.2c0.4,0.1,0.6,0.3,0.8,0.5c0.2,0.2,0.3,0.4,0.4,0.7
				s0.1,0.6,0.1,1.2v3.1H166.7z M164.3,271.1c-0.6-0.4-1.1-0.7-1.7-0.7c-0.4,0-0.7,0.1-0.9,0.3s-0.4,0.5-0.4,0.8
				c0,0.3,0.1,0.6,0.3,0.8s0.5,0.3,0.9,0.3c0.6,0,1.2-0.3,1.8-0.8V271.1z"/>
			<path class="st2" d="M179.1,272.4v1.2h-2.5v-1c-0.6,0.7-1.4,1.1-2.4,1.1c-0.9,0-1.6-0.3-2.3-0.9s-1-1.4-1-2.5
				c0-1.1,0.3-1.9,1-2.6s1.4-0.9,2.3-0.9c0.9,0,1.7,0.4,2.3,1.1v-2.6h-1.3v-1.2h2.6v8.4H179.1z M172.4,270.3c0,0.7,0.2,1.3,0.6,1.7
				s0.9,0.6,1.5,0.6c0.6,0,1-0.2,1.5-0.6c0.4-0.4,0.6-1,0.6-1.7c0-0.7-0.2-1.3-0.7-1.7s-0.9-0.6-1.5-0.6c-0.6,0-1.1,0.2-1.5,0.7
				C172.6,269.1,172.4,269.6,172.4,270.3z"/>
			<path class="st2" d="M186.6,270.6H181c0.1,0.6,0.3,1.1,0.7,1.5s0.9,0.6,1.5,0.6c0.9,0,1.6-0.4,2.2-1.1l1.1,0.5
				c-0.4,0.6-0.9,1-1.5,1.3c-0.6,0.3-1.2,0.4-1.9,0.4c-1,0-1.9-0.3-2.6-0.9c-0.7-0.6-1.1-1.5-1.1-2.6c0-1,0.3-1.9,1-2.5s1.5-1,2.4-1
				c0.9,0,1.7,0.3,2.4,1C186.2,268.4,186.6,269.4,186.6,270.6z M185.3,269.7c-0.1-0.5-0.3-0.9-0.7-1.3c-0.4-0.4-0.9-0.6-1.4-0.6
				c-0.5,0-1,0.2-1.3,0.5c-0.4,0.3-0.6,0.8-0.7,1.3H185.3z"/>
			<path class="st2" d="M194.4,272.4v1.2h-2.3v-0.8c-0.6,0.6-1.3,0.9-2.1,0.9c-0.6,0-1.1-0.2-1.6-0.6s-0.7-0.9-0.7-1.5
				c0-0.6,0.2-1.1,0.7-1.5s1-0.6,1.7-0.6c0.6,0,1.2,0.2,1.8,0.6v-0.7c0-0.3,0-0.6-0.1-0.8s-0.2-0.3-0.4-0.5s-0.5-0.2-0.9-0.2
				c-0.7,0-1.1,0.3-1.4,0.8l-1.2-0.3c0.6-1,1.5-1.5,2.9-1.5c0.5,0,0.9,0.1,1.3,0.2c0.4,0.1,0.6,0.3,0.8,0.5c0.2,0.2,0.3,0.4,0.4,0.7
				c0.1,0.2,0.1,0.6,0.1,1.2v3.1H194.4z M192,271.1c-0.6-0.4-1.1-0.7-1.7-0.7c-0.4,0-0.7,0.1-0.9,0.3s-0.4,0.5-0.4,0.8
				c0,0.3,0.1,0.6,0.3,0.8s0.5,0.3,0.9,0.3c0.6,0,1.2-0.3,1.8-0.8V271.1z"/>
			<path class="st2" d="M203.3,272.4v1.2h-2.5v-1c-0.6,0.7-1.4,1.1-2.4,1.1c-0.9,0-1.6-0.3-2.3-0.9s-1-1.4-1-2.5
				c0-1.1,0.3-1.9,1-2.6s1.4-0.9,2.3-0.9c0.9,0,1.7,0.4,2.3,1.1v-2.6h-1.3v-1.2h2.6v8.4H203.3z M196.6,270.3c0,0.7,0.2,1.3,0.6,1.7
				c0.4,0.4,0.9,0.6,1.5,0.6c0.6,0,1-0.2,1.5-0.6c0.4-0.4,0.6-1,0.6-1.7c0-0.7-0.2-1.3-0.7-1.7c-0.4-0.4-0.9-0.6-1.5-0.6
				c-0.6,0-1.1,0.2-1.5,0.7C196.8,269.1,196.6,269.6,196.6,270.3z"/>
			<path class="st2" d="M214.3,270.6h-5.6c0.1,0.6,0.3,1.1,0.7,1.5s0.9,0.6,1.5,0.6c0.9,0,1.6-0.4,2.2-1.1l1.1,0.5
				c-0.4,0.6-0.9,1-1.5,1.3c-0.6,0.3-1.2,0.4-1.9,0.4c-1,0-1.9-0.3-2.6-0.9c-0.7-0.6-1.1-1.5-1.1-2.6c0-1,0.3-1.9,1-2.5
				c0.7-0.7,1.5-1,2.4-1c0.9,0,1.7,0.3,2.4,1C213.9,268.4,214.3,269.4,214.3,270.6z M213,269.7c-0.1-0.5-0.3-0.9-0.7-1.3
				c-0.4-0.4-0.9-0.6-1.4-0.6c-0.5,0-1,0.2-1.3,0.5c-0.4,0.3-0.6,0.8-0.7,1.3H213z"/>
			<path class="st2" d="M217.7,267v0.8c0.8-0.6,1.6-0.9,2.3-0.9c0.4,0,0.8,0.1,1.1,0.3c0.3,0.2,0.5,0.5,0.5,0.7
				c0.1,0.3,0.1,0.7,0.1,1.3v3.2h1.1v1.2h-2.4v-4.3c0-0.5-0.1-0.8-0.2-1c-0.2-0.2-0.3-0.2-0.6-0.2c-0.6,0-1.2,0.3-1.9,0.8v3.5h1.1
				v1.2h-3.6v-1.2h1.2v-4.3h-1.2V267H217.7z"/>
			<path class="st2" d="M231.6,272.4v1.2h-2.5v-1c-0.6,0.7-1.4,1.1-2.4,1.1c-0.9,0-1.6-0.3-2.3-0.9s-1-1.4-1-2.5
				c0-1.1,0.3-1.9,1-2.6s1.4-0.9,2.3-0.9c0.9,0,1.7,0.4,2.3,1.1v-2.6h-1.3v-1.2h2.6v8.4H231.6z M224.9,270.3c0,0.7,0.2,1.3,0.6,1.7
				c0.4,0.4,0.9,0.6,1.5,0.6c0.6,0,1-0.2,1.5-0.6c0.4-0.4,0.6-1,0.6-1.7c0-0.7-0.2-1.3-0.7-1.7c-0.4-0.4-0.9-0.6-1.5-0.6
				c-0.6,0-1.1,0.2-1.5,0.7C225.1,269.1,224.9,269.6,224.9,270.3z"/>
			<path class="st2" d="M232.8,273.6v-1.7h1.7v1.7H232.8z"/>
			<path class="st2" d="M236.9,273.6v-1.7h1.7v1.7H236.9z"/>
			<path class="st2" d="M241,273.6v-1.7h1.7v1.7H241z"/>
		</g>
	</g>
</g>
<g id="Designed_By_Freepik">
</g>
</svg>
