<?xml version="1.0" encoding="utf-8"?>
<!-- Generator: Adobe Illustrator 23.0.0, SVG Export Plug-In . SVG Version: 6.00 Build 0)  -->
<svg version="1.1" id="Capa_1" xmlns="http://www.w3.org/2000/svg" xmlns:xlink="http://www.w3.org/1999/xlink" x="0px" y="0px"
	 viewBox="0 0 374.2 368.2" style="enable-background:new 0 0 374.2 368.2;" xml:space="preserve">
<style type="text/css">
	.st0{fill:#FFFFFF;}
	.st1{fill:#193651;}
	.st2{fill:#E1E6E9;}
	.st3{fill:#CFD0D1;}
	.st4{fill:#4FBF9F;}
	.st5{fill:#F16051;}
	.st6{fill:#2EA2DB;}
</style>
<path class="st0" d="M70.1,86.6c-14.1,0-25,11.3-25,25V141h50.4v-29.5C95.5,97.9,84.1,86.6,70.1,86.6z"/>
<path class="st1" d="M95.5,146H45.1c-2.7,0-4.5-1.8-4.5-4.5V112c0-16.3,13.2-29.5,29.5-29.5S99.5,95.7,99.5,112v29.5
	C100,143.8,97.7,146,95.5,146z M49.6,137h41.3v-25c0-11.3-9.1-20.4-20.4-20.4s-20.4,9.1-20.4,20.4v25H49.6z"/>
<path class="st2" d="M271.5,112c0-14.1-11.3-25-25-25H70.1c14.1,0,25,11.3,25,25v0.5v29v171.9c0,7.7,5.9,13.6,13.6,13.6H217
	l54.4-54.4L271.5,112L271.5,112z"/>
<path class="st1" d="M217,331.1h-108c-10,0-18.1-8.2-18.1-18.1V112.5c0-11.8-9.1-20.9-20.4-20.9c-2.7,0-4.5-1.8-4.5-4.5
	c0-2.7,1.8-4.5,4.5-4.5h176c16.3,0,29.5,13.2,29.5,29.5v160.6c0,1.4-0.5,2.3-1.4,3.2l-54.4,54.4C219.3,330.7,218.4,331.1,217,331.1z
	 M91.4,91.1c5,5.4,8.2,12.7,8.2,20.4v201c0,5,4.1,9.1,9.1,9.1h106.2l51.7-51.7V112c0-11.3-9.1-20.4-20.4-20.4H91.4V91.1z"/>
<g>
	<path class="st0" d="M113.6,308.4v-196c0-2.7,0-5-0.5-7.3h133.4c4.1,0,6.8,3.2,6.8,6.8v160.6L217,308.9H113.6V308.4z"/>
	<path class="st0" d="M217,326.6l54.4-54.4h-40.8c-7.7,0-13.6,5.9-13.6,13.6V326.6z"/>
</g>
<g>
	<path class="st1" d="M217,331.1c-0.5,0-1.4,0-1.8-0.5c-1.8-0.9-2.7-2.3-2.7-4.1v-40.8c0-10,8.2-18.1,18.1-18.1h40.8
		c1.8,0,3.6,0.9,4.1,2.7c0.9,1.8,0.5,3.6-0.9,5l-54.4,54.4C219.3,330.7,218.4,331.1,217,331.1z M230.7,277.1c-5,0-9.1,4.1-9.1,9.1
		v29.9l39-39L230.7,277.1L230.7,277.1z"/>
	<rect x="127.7" y="140.1" class="st1" width="111.2" height="9.1"/>
</g>
<g>
	<rect x="127.7" y="140.1" class="st3" width="111.2" height="9.1"/>
	<rect x="127.7" y="165.5" class="st3" width="111.2" height="9.1"/>
	<rect x="127.7" y="190.9" class="st3" width="111.2" height="9.1"/>
	<rect x="127.7" y="216.8" class="st3" width="111.2" height="9.1"/>
	<rect x="127.7" y="242.2" class="st3" width="111.2" height="9.1"/>
</g>
<g>
	<rect x="127.7" y="268.1" class="st1" width="9.1" height="9.1"/>
	<rect x="145.8" y="268.1" class="st1" width="9.1" height="9.1"/>
	<rect x="164" y="268.1" class="st1" width="9.1" height="9.1"/>
	<rect x="182.1" y="268.1" class="st1" width="9.1" height="9.1"/>
</g>
<circle class="st4" cx="291.4" cy="186" r="35.8"/>
<path class="st1" d="M291.4,226.8c-22.2,0-40.4-18.1-40.4-40.4s18.1-40.4,40.4-40.4s40.4,18.1,40.4,40.4S313.7,226.8,291.4,226.8z
	 M291.4,154.6c-17.2,0-31.3,14.1-31.3,31.3s14.1,31.3,31.3,31.3c17.2,0,31.3-14.1,31.3-31.3C322.7,168.7,308.7,154.6,291.4,154.6z"
	/>
<circle class="st5" cx="282.4" cy="87.1" r="35.8"/>
<path class="st1" d="M282.4,127.9c-22.2,0-40.4-18.1-40.4-40.4s18.1-40.4,40.4-40.4s40.4,18.1,40.4,40.4S304.6,127.9,282.4,127.9z
	 M282.4,55.7c-17.2,0-31.3,14.1-31.3,31.3s14.1,31.3,31.3,31.3c17.2,0,31.3-14.1,31.3-31.3S299.6,55.7,282.4,55.7z"/>
<circle class="st6" cx="170.8" cy="82.5" r="35.8"/>
<path class="st1" d="M170.8,122.9c-22.2,0-40.4-18.1-40.4-40.4s18.1-40.4,40.4-40.4s40.4,18.1,40.4,40.4S193.5,122.9,170.8,122.9z
	 M170.8,51.2c-17.2,0-31.3,14.1-31.3,31.3s14.1,31.3,31.3,31.3s31.3-14.1,31.3-31.3C202.5,65.3,188,51.2,170.8,51.2z"/>
<g>
	<path class="st0" d="M173.9,62.6H168l-13.2,29.9l-0.5,0.5h6.4l3.2-6.8H178l3.2,6.8h6.4L173.9,62.6L173.9,62.6z M175.8,80.7h-9.5
		l4.5-10.9L175.8,80.7z"/>
	<path class="st0" d="M296,99.3c1.4-1.8,2.3-3.6,2.3-5.9c0-1.8-0.5-3.6-1.8-5c-0.9-0.9-2.3-1.8-3.6-2.3c0.5,0,0.5-0.5,1.4-0.9
		c1.4-1.4,2.3-3.2,2.3-5.4c0-1.8-0.9-4.1-2.3-5.4c-0.9-0.9-1.8-1.4-3.6-2.3c-1.4,0-3.2-0.5-5-0.5h-11.8V102h13.6
		C291,102.5,294.2,101.6,296,99.3z M279.2,84.3v-6.8h5.9c1.8,0,3.2,0.5,3.6,0.9c0.9,0.5,0.9,1.4,0.9,2.7c0,0.9,0,3.2-5,3.2
		L279.2,84.3L279.2,84.3z M291.9,92.9c0,1.4-0.5,2.3-1.4,2.7c-0.9,0.5-2.3,0.9-4.1,0.9h-7.3v-6.8h6.8
		C290.1,89.8,291.9,90.7,291.9,92.9z"/>
	<path class="st0" d="M299.6,192.8c-1.4,1.4-2.7,2.3-3.6,2.7c-1.4,0.5-2.7,0.9-4.1,0.9c-2.7,0-5-0.9-6.8-2.7
		c-1.8-1.8-2.7-4.5-2.7-7.3c0-2.7,0.9-5.4,2.7-7.3c1.8-1.8,4.5-2.7,7.3-2.7c1.8,0,3.2,0.5,4.1,0.9c1.4,0.5,2.7,1.4,4.1,2.7l0.5,0.5
		l3.6-4.5l-0.5-0.5c-3.2-3.6-7.3-5.4-11.8-5.4c-4.5,0-8.6,1.4-11.8,4.5c-3.2,3.2-4.5,6.8-4.5,11.3c0,4.5,1.4,8.2,4.5,11.3
		c3.2,3.2,6.8,4.5,11.3,4.5s8.6-1.8,11.8-5.4l0.5-0.5L299.6,192.8L299.6,192.8z"/>
</g>
</svg>
