<?xml version="1.0" encoding="utf-8"?>
<!-- Generator: Adobe Illustrator 23.0.0, SVG Export Plug-In . SVG Version: 6.00 Build 0)  -->
<svg version="1.1" id="Layer_1" xmlns="http://www.w3.org/2000/svg" xmlns:xlink="http://www.w3.org/1999/xlink" x="0px" y="0px"
	 viewBox="0 0 451 451" style="enable-background:new 0 0 451 451;" xml:space="preserve">
<style type="text/css">
	.st0{fill:#D7E057;}
	.st1{fill:#3A312A;}
	.st2{fill:#FCE8CB;}
	.st3{fill:#8AC6DD;}
	.st4{fill:#F16C7A;}
	.st5{fill:#87796F;}
	.st6{fill-rule:evenodd;clip-rule:evenodd;fill:#FCE8CB;}
	.st7{fill:#F5978A;}
	.st8{fill:#EF6D7A;}
	.st9{fill:#8AC5DC;}
	.st10{fill:#FAE6CA;}
	.st11{fill:#D6DF58;}
	.st12{fill:#B9C239;}
	.st13{fill:#DECAAD;}
	.st14{fill:#D34E5C;}
</style>
<path class="st0" d="M41.1,226.1v-2.6c0-5.8,5.3-10.5,11.8-10.5h383.4c6.5,0,11.8,4.7,11.8,10.5v6c0,5.8-5.3,10.5-11.8,10.5H52.8
	c-6.5,0-11.8-4.7-11.8-10.5V226.1z"/>
<path class="st1" d="M436.2,242.8H52.9c-8.1,0-14.8-5.9-14.8-13.2v-6c0-7.3,6.6-13.2,14.8-13.2h383.4c8.1,0,14.8,5.9,14.8,13.2v6
	C451,236.8,444.4,242.8,436.2,242.8z M52.9,215.7c-4.8,0-8.8,3.5-8.8,7.9v6c0,4.3,3.9,7.9,8.8,7.9h383.4c4.8,0,8.8-3.5,8.8-7.9v-6
	c0-4.3-3.9-7.9-8.8-7.9H52.9z"/>
<path class="st2" d="M195,3.1H77c-9.5,0-17.2,6.9-17.2,15.4V213h369.4V18.5c0-8.5-7.7-15.4-17.2-15.4H195z"/>
<path class="st1" d="M429.2,215.7H59.9c-1.7,0-3-1.2-3-2.7V18.5c0-10,9.1-18.1,20.2-18.1h118c1.7,0,3,1.2,3,2.7s-1.3,2.7-3,2.7H77
	c-7.8,0-14.2,5.7-14.2,12.7v191.8h363.4V18.5c0-7-6.4-12.7-14.2-12.7H220.6c-1.7,0-3-1.2-3-2.7s1.3-2.7,3-2.7H412
	c11.1,0,20.2,8.1,20.2,18.1V213C432.2,214.5,430.9,215.7,429.2,215.7z"/>
<path class="st3" d="M210.9,126.5l-6.6,1.6c8.7,29,35.7,52.2,71,57.2c28.7,4.1,56.4-4.7,75.6-21.7l-61.7-56.1l-67,16.2L210.9,126.5z
	"/>
<path class="st1" d="M289.1,189c-4.7,0-9.5-0.3-14.2-1c-35.3-5.1-64.1-28.3-73.4-59.2c-0.2-0.7-0.1-1.4,0.3-2c0.4-0.6,1-1.1,1.8-1.3
	l6.6-1.6l78.3-18.9c1-0.3,2.2,0,2.9,0.7l61.7,56.1c0.6,0.5,0.9,1.2,0.9,1.9c0,0.7-0.3,1.4-0.9,1.9C335.9,180.7,312.8,189,289.1,189z
	 M208,130c9.5,27.6,35.8,48.1,67.7,52.7c25.6,3.7,51.8-3.4,70.8-19.1l-58.3-53l-76.6,18.5L208,130z"/>
<path class="st0" d="M329.3,80l-40.2,27.7l61.7,56.1c12.9-11.4,22-26.4,25.1-43.6c4-22.3-2.9-43.9-17.2-60.5l-20,13.8L329.3,80z"/>
<path class="st1" d="M350.9,166.4c-0.8,0-1.5-0.3-2.1-0.8L287,109.5c-0.6-0.5-0.9-1.3-0.9-2.1c0.1-0.8,0.5-1.5,1.2-1.9l40.2-27.7
	L357,57.5c1.3-0.9,3.2-0.7,4.2,0.5c15.5,18,21.8,40.2,17.8,62.6c-3.1,17.3-12.1,32.9-26,45.1C352.4,166.2,351.6,166.4,350.9,166.4z
	 M293.7,107.9l57.2,52c11.8-11.1,19.4-25,22.2-40.2c3.6-20-1.7-39.9-14.8-56.3L293.7,107.9z"/>
<path class="st4" d="M338.8,73.4l20-13.8c-0.3-0.3-0.5-0.6-0.8-0.9c-13.2-14.9-32.4-25.5-54.9-28.8c-45.6-6.5-88.6,19.6-99.3,59.1
	l85.4,18.6L329.3,80L338.8,73.4z"/>
<path class="st1" d="M289.2,110.3c-0.2,0-0.5,0-0.7-0.1l-85.4-18.6c-1.6-0.4-2.6-1.8-2.2-3.2c11.1-40.9,56.2-67.8,102.7-61.1
	c22.5,3.2,42.7,13.8,56.8,29.7l0.2,0.3c0.2,0.2,0.4,0.5,0.6,0.7c1,1.2,0.7,2.8-0.6,3.7l-20,13.8L291,109.8
	C290.5,110.1,289.8,110.3,289.2,110.3z M207.5,87l81,17.7l66.1-45.6c-13.1-14.2-31.5-23.6-52-26.6C260.2,26.5,219,50.3,207.5,87z
	 M338.8,73.4L338.8,73.4L338.8,73.4z"/>
<path class="st5" d="M222.2,123.8l67-16.2L203.8,89c-0.6,2-1,4.1-1.4,6.2c-2,11.4-1.2,22.5,1.9,32.9l6.6-1.6L222.2,123.8z"/>
<g>
	<path class="st1" d="M204.3,130.8c-1.3,0-2.5-0.8-2.9-2c-3.4-11.1-4-22.6-2-34.1c0.4-2.1,0.9-4.3,1.4-6.4c0.4-1.4,2-2.3,3.6-2
		l85.4,18.6c1.3,0.3,2.3,1.3,2.3,2.6c0,1.2-0.9,2.3-2.2,2.6l-84.9,20.5C204.8,130.8,204.6,130.8,204.3,130.8z M206,92.3
		c-0.3,1.1-0.5,2.2-0.7,3.4c-1.8,9.8-1.4,19.6,1.1,29.2l15-3.6l55.7-13.4L206,92.3z"/>
	<path class="st1" d="M174.3,54.9H112c-1.7,0-3-1.2-3-2.7s1.3-2.7,3-2.7h62.3c1.7,0,3,1.2,3,2.7S176,54.9,174.3,54.9z"/>
	<path class="st1" d="M174.3,82.4H112c-1.7,0-3-1.2-3-2.7s1.3-2.7,3-2.7h62.3c1.7,0,3,1.2,3,2.7S176,82.4,174.3,82.4z"/>
	<path class="st1" d="M174.3,109.9H112c-1.7,0-3-1.2-3-2.7s1.3-2.7,3-2.7h62.3c1.7,0,3,1.2,3,2.7S176,109.9,174.3,109.9z"/>
	<path class="st1" d="M174.3,137.4H112c-1.7,0-3-1.2-3-2.7s1.3-2.7,3-2.7h62.3c1.7,0,3,1.2,3,2.7S176,137.4,174.3,137.4z"/>
	<path class="st1" d="M174.3,164.9H112c-1.7,0-3-1.2-3-2.7s1.3-2.7,3-2.7h62.3c1.7,0,3,1.2,3,2.7S176,164.9,174.3,164.9z"/>
	<path class="st1" d="M174.9,208.8c-0.9,0-1.9-0.4-2.5-1.1c-0.9-1.2-0.6-2.9,0.7-3.7l85.9-53.7c1.4-0.8,3.2-0.5,4.2,0.7
		c0.9,1.2,0.6,2.9-0.7,3.7l-85.9,53.7C176,208.6,175.4,208.8,174.9,208.8z"/>
</g>
<path class="st5" d="M57.4,379.8v10.3c0,6.2-5.6,11.2-12.5,11.2h-2.5c-6.9,0-12.5-5-12.5-11.2v-10.3H57.4z"/>
<path class="st1" d="M45,404h-2.5c-8.5,0-15.5-6.2-15.5-13.8v-10.3c0-1.5,1.3-2.7,3-2.7h27.5c1.7,0,3,1.2,3,2.7v10.3
	C60.4,397.8,53.5,404,45,404z M32.9,382.5v7.7c0,4.7,4.2,8.5,9.5,8.5H45c5.2,0,9.5-3.8,9.5-8.5v-7.7H32.9z"/>
<path class="st5" d="M84.9,379.8v10.3c0,6.2-5.6,11.2-12.5,11.2h-2.6c-6.9,0-12.5-5-12.5-11.2v-10.3H84.9z"/>
<path class="st1" d="M72.4,404h-2.6c-8.5,0-15.5-6.2-15.5-13.8v-10.3c0-1.5,1.3-2.7,3-2.7h27.5c1.7,0,3,1.2,3,2.7v10.3
	C87.9,397.8,81,404,72.4,404z M60.4,382.5v7.7c0,4.7,4.2,8.5,9.5,8.5h2.6c5.2,0,9.5-3.8,9.5-8.5v-7.7H60.4z"/>
<path class="st0" d="M22.9,283.7h69.6v96.2H22.9V283.7z"/>
<path class="st1" d="M92.6,382.5H22.9c-1.7,0-3-1.2-3-2.7v-96.2c0-1.5,1.3-2.7,3-2.7h69.6c1.7,0,3,1.2,3,2.7v96.2
	C95.6,381.3,94.2,382.5,92.6,382.5z M25.9,377.2h63.6v-90.8H25.9V377.2z"/>
<path class="st1" d="M57.4,382.5c-1.7,0-3-1.2-3-2.7v-96.2c0-1.5,1.3-2.7,3-2.7c1.7,0,3,1.2,3,2.7v96.2
	C60.4,381.3,59.1,382.5,57.4,382.5z"/>
<path class="st2" d="M92.6,198.5v85.2H3v-63.4c0-6.9,3.5-13,9-17.1c2.4-1.8,5.3-3.2,8.4-4.1c2.3-0.7,4.8-1,7.3-1H44v-9.2
	c4.6,3,9.3,4.7,13.8,4.7c4.5,0,9.2-1.6,13.7-4.4v8.9h16.3C89.4,198.1,91,198.3,92.6,198.5z"/>
<path class="st1" d="M92.6,286.4H3c-1.7,0-3-1.2-3-2.7v-63.4c0-7.4,3.7-14.4,10.1-19.2c2.8-2.1,5.9-3.6,9.4-4.6
	c2.7-0.7,5.4-1.1,8.2-1.1H41v-6.5c0-1,0.6-1.9,1.6-2.4c1-0.5,2.2-0.4,3.1,0.2c4.3,2.8,8.4,4.2,12,4.2c3.7,0,7.7-1.3,12-3.9
	c0.9-0.6,2.1-0.6,3.1-0.2c1,0.5,1.6,1.4,1.6,2.4v6.2h13.3c1.8,0,3.6,0.2,5.3,0.5c1.4,0.2,2.4,1.3,2.4,2.6v85.1
	C95.6,285.1,94.2,286.4,92.6,286.4z M6,281h83.6v-80.1c-0.6,0-1.2-0.1-1.8-0.1H71.5c-1.7,0-3-1.2-3-2.7v-4.2
	c-7.3,3.2-14,3.3-21.5-0.2v4.4c0,1.5-1.3,2.7-3,2.7H27.7c-2.2,0-4.4,0.3-6.5,0.9c-2.7,0.7-5.2,1.9-7.3,3.6c-5,3.7-7.9,9.2-7.9,15
	L6,281L6,281z"/>
<path class="st5" d="M57.8,212.4L57.8,212.4L57.8,212.4L57.8,212.4L57.8,212.4z"/>
<path class="st1" d="M57.8,215.1c-0.6,0-1.2-0.2-1.7-0.5c-0.7-0.4-1.2-1-1.3-1.7c-0.2-0.7,0-1.5,0.4-2c0.5-0.7,1.3-1.1,2.2-1.2
	c0.9-0.1,1.8,0.2,2.4,0.7c0.6,0.5,0.9,1.2,0.9,1.9c0,0.7-0.3,1.4-0.9,1.9l0,0C59.3,214.8,58.6,215.1,57.8,215.1z"/>
<path class="st6" d="M25,143.7c0,4.8-4.4,8.7-9.8,8.7c-5.4,0-9.7-3.9-9.7-8.7s4.4-8.7,9.7-8.7C20.6,134.9,25,138.8,25,143.7z"/>
<path class="st1" d="M15.2,155.1c-7,0-12.7-5.1-12.7-11.4c0-6.3,5.7-11.4,12.7-11.4c7,0,12.8,5.1,12.8,11.4
	C28,150,22.3,155.1,15.2,155.1z M15.2,137.6c-3.7,0-6.8,2.7-6.8,6c0,3.3,3,6,6.8,6c3.7,0,6.8-2.7,6.8-6
	C22,140.3,19,137.6,15.2,137.6z"/>
<path class="st6" d="M110.1,143.7c0,4.8-4.4,8.7-9.7,8.7c-5.4,0-9.8-3.9-9.8-8.7s4.4-8.7,9.8-8.7
	C105.7,134.9,110.1,138.8,110.1,143.7z"/>
<path class="st1" d="M100.3,155.1c-7,0-12.7-5.1-12.7-11.4c0-6.3,5.7-11.4,12.7-11.4s12.8,5.1,12.8,11.4
	C113.1,150,107.4,155.1,100.3,155.1z M100.3,137.6c-3.7,0-6.8,2.7-6.8,6c0,3.3,3,6,6.8,6c3.7,0,6.8-2.7,6.8-6
	C107.1,140.3,104.1,137.6,100.3,137.6z"/>
<path class="st2" d="M101,139.4c0,21.4-23,54.2-43.2,54.2c-19.3,0-43.2-32.8-43.2-54.2s19.4-38.7,43.2-38.7S101,118,101,139.4z"/>
<path class="st1" d="M57.8,196.3c-21.4,0-46.2-34.4-46.2-56.9c0-22.8,20.7-41.4,46.2-41.4s46.2,18.6,46.2,41.4
	C104,162.4,79.7,196.3,57.8,196.3z M57.8,103.4c-22.2,0-40.2,16.2-40.2,36c0,21.2,23.7,51.5,40.2,51.5c18.3,0,40.2-31.6,40.2-51.5
	C98,119.6,80,103.4,57.8,103.4z"/>
<path class="st5" d="M58.3,92.2c-24.7,0-44.7,17.1-44.7,38.3c0,2.2,0.5,3.9,1.3,6c0.4,1,6.8-2.2,7.3-2.5c2.7-1.7,5-4.1,6.6-6.6
	c0.7-1.1,1.3-2.2,1.7-3.3c1.5-3.5,5.5-13.2,9.6-12.4c5.5,1,11.6,1.6,18.2,1.6s12.7-0.6,18.2-1.6c4.1-0.8,8.1,8.9,9.6,12.4
	c0.5,1.1,1,2.2,1.7,3.3c2.8,4.3,7.4,8.3,13.1,9.1c0-0.2,0.4-0.3,0.6-0.4c1.8-0.6,1.6-4.2,1.6-5.5C103,109.3,83,92.2,58.3,92.2z"/>
<path class="st1" d="M15.2,139.3c-0.4,0-0.7,0-1-0.1c-1-0.3-1.8-0.9-2.1-1.8c-0.9-2.2-1.5-4.2-1.5-6.9c0-22.6,21.4-41,47.7-41
	s47.7,18.4,47.7,41l0,0.4c0,2,0.1,6.1-3.2,7.5c0,0-0.1,0.1-0.1,0.1c-0.7,0.5-1.5,0.7-2.3,0.6c-5.8-0.8-11.5-4.6-15.2-10.4
	c-0.8-1.2-1.4-2.4-1.9-3.6l-0.1-0.2c-3.6-8.5-5.6-10.2-6.3-10.5c-5.8,1.1-12.1,1.6-18.6,1.6s-12.8-0.5-18.6-1.6
	c-0.7,0.3-2.6,1.9-6.3,10.5l-0.1,0.2c-0.5,1.2-1.2,2.5-1.9,3.6c-2,3-4.6,5.6-7.5,7.5C23.9,136.2,18.5,139.3,15.2,139.3z
	 M103.8,136.5L103.8,136.5L103.8,136.5z M77,108.9c5.1,0,8.7,6.7,11.7,14l0.1,0.2c0.4,1,0.9,1.9,1.5,2.9c2.5,3.8,6,6.6,9.5,7.5
	c0.1-0.5,0.2-1.4,0.1-2.5l0-0.5c0-19.6-18.7-35.6-41.7-35.6s-41.7,16-41.7,35.6c0,1.1,0.1,2,0.4,2.9c1.4-0.5,3-1.3,3.6-1.7
	c2.2-1.4,4.2-3.4,5.7-5.7c0.6-0.9,1.1-1.9,1.5-2.9l0.1-0.2c3.3-7.8,7.2-14.9,12.9-13.9c5.4,1,11.5,1.5,17.6,1.5
	c6.2,0,12.1-0.5,17.6-1.5C76.3,109,76.6,108.9,77,108.9z"/>
<path class="st5" d="M17.1,95.9c3.4,4.8,7.4,9.3,12,13.2c5.6,4.7,12.1,8.6,18.8,10.3c17.1,4.3,47.3-1.1,47.3-23.1
	c0-14.1-13.2-31.1-37.8-18.1C27,94.3,9.3,63.5,9.3,77.5c0,1.4,0.3,3,0.7,4.7c1.1,4.1,3,8,5.5,11.5L17.1,95.9z"/>
<path class="st1" d="M59.9,123.5c-4.6,0-9-0.5-12.7-1.5c-6.6-1.7-13.4-5.4-20-10.9c-4.5-3.8-8.7-8.4-12.5-13.7L13,95.2
	c-2.8-4-4.8-8.1-5.9-12.3c-0.5-2-0.8-3.8-0.8-5.3c0-2.1,0.3-4.7,2.7-5.9c2.8-1.4,5.8,0.2,9.9,2.4c8,4.3,20.2,10.8,37,2
	c13.7-7.2,23.3-5.3,28.9-2.4c8.1,4.2,13.4,13.1,13.4,22.8c0,8.1-3.8,15-11,19.8C79.7,121.4,69.3,123.5,59.9,123.5z M19.6,94.5
	c3.5,4.9,7.4,9.2,11.6,12.7c6,5,11.9,8.3,17.6,9.7c9.7,2.5,25.2,1.6,34.9-5c5.7-3.8,8.6-9.1,8.6-15.5c0-6.4-3.2-14.5-10.4-18.2
	c-6.1-3.1-14-2.3-22.9,2.4c-19.9,10.5-35,2.4-43.2-2c-1.2-0.6-2.5-1.4-3.5-1.8c0,0.2,0,0.5,0,0.7c0,1.1,0.2,2.5,0.6,4.1
	c1,3.6,2.7,7.2,5.1,10.7L19.6,94.5z"/>
<path class="st1" d="M46.7,139c0,2.1-1.9,3.8-4.2,3.8c-2.3,0-4.2-1.7-4.2-3.8s1.9-3.8,4.2-3.8C44.8,135.2,46.7,136.9,46.7,139z"/>
<path class="st1" d="M77.2,139c0,2.1-1.9,3.8-4.2,3.8s-4.2-1.7-4.2-3.8s1.9-3.8,4.2-3.8C75.3,135.2,77.2,136.9,77.2,139z"/>
<path class="st7" d="M41.3,150.2c0,2.7-3.3,4.9-7.3,4.9s-7.3-2.2-7.3-4.9c0-2.7,3.3-4.9,7.3-4.9S41.3,147.5,41.3,150.2z"/>
<path class="st7" d="M88.7,150.2c0,2.7-3.3,4.9-7.3,4.9c-4,0-7.3-2.2-7.3-4.9c0-2.7,3.3-4.9,7.3-4.9
	C85.5,145.4,88.7,147.5,88.7,150.2z"/>
<path class="st1" d="M57.7,172.8c-6.7,0-11.8-2.8-14.7-8.2c-0.7-1.3-0.1-2.9,1.4-3.6c1.5-0.6,3.3-0.1,4,1.3c1.9,3.5,4.8,5.1,9.2,5.1
	c5.2,0,8.3-2.9,9.1-4.9c0.6-1.4,2.3-2.1,3.9-1.6c1.5,0.5,2.3,2.1,1.8,3.5C70.8,168.4,65.4,172.8,57.7,172.8z"/>
<path class="st0" d="M57.8,212.4L57.8,212.4L57.8,212.4L57.8,212.4L57.8,212.4z"/>
<path class="st1" d="M57.8,215.1c-0.6,0-1.2-0.2-1.7-0.5c-0.7-0.4-1.2-1-1.3-1.7c-0.2-0.7,0-1.5,0.4-2c0.5-0.7,1.3-1.1,2.2-1.2
	c0.9-0.1,1.8,0.2,2.4,0.7c0.6,0.5,0.9,1.2,0.9,1.9c0,0.7-0.3,1.4-0.9,1.9l0,0C59.3,214.8,58.6,215.1,57.8,215.1z"/>
<path class="st0" d="M57.8,212.3L57.8,212.3L57.8,212.3L57.8,212.3L57.8,212.3z"/>
<path class="st1" d="M57.8,215.1c-0.6,0-1.1-0.1-1.6-0.4c-0.7-0.4-1.2-1-1.3-1.7c-0.2-0.7,0-1.5,0.4-2c0.5-0.7,1.3-1.1,2.2-1.2
	c0.9-0.1,1.8,0.2,2.4,0.7l0.1,0c0.6,0.5,0.9,1.2,0.9,1.9c0,0.7-0.3,1.4-0.9,1.9C59.4,214.8,58.6,215.1,57.8,215.1z"/>
<path class="st2" d="M13,301.5c-5.5,0-10-4-10-8.9v-8.9h19.9v8.9C22.9,297.5,18.5,301.5,13,301.5z"/>
<path class="st1" d="M13,304.2c-7.2,0-13-5.2-13-11.6v-8.9c0-1.5,1.3-2.7,3-2.7h19.9c1.7,0,3,1.2,3,2.7v8.9
	C25.9,299,20.1,304.2,13,304.2z M6,286.3v6.2c0,3.4,3.1,6.2,7,6.2c3.8,0,7-2.8,7-6.2v-6.2H6z"/>
<path class="st5" d="M165.7,198.3V216H92.6v67.7H3v-63.4c0-6.9,3.5-13,9-17.1c2.4-1.8,5.3-3.2,8.4-4.1c2.3-0.6,4.8-1,7.3-1h4.4l0,0
	l17,20.2l8.8-5.9l8.7,5.9l17-20.2l-0.1,0L165.7,198.3z"/>
<path class="st1" d="M92.6,286.4H3c-1.7,0-3-1.2-3-2.7v-63.4c0-7.4,3.7-14.4,10.1-19.2c2.8-2.1,5.9-3.6,9.4-4.6
	c2.7-0.7,5.5-1.1,8.2-1.1h4.4c1.2,0,2.2,0.6,2.7,1.5l14.8,17.6l6.4-4.3c1.1-0.7,2.5-0.7,3.6,0l6.4,4.3l14.9-17.7
	c0.5-0.9,1.5-1.4,2.6-1.4h0l82.2,0.2c1.7,0,3,1.2,3,2.7V216c0,1.5-1.3,2.7-3,2.7H95.6v65C95.6,285.1,94.2,286.4,92.6,286.4z M6,281
	h83.6v-65c0-1.5,1.3-2.7,3-2.7h70.1V201L85,200.8l-16.1,19.1c-1,1.2-2.9,1.4-4.2,0.5l-6.9-4.7l-7,4.7c-1.3,0.9-3.2,0.7-4.2-0.5
	l-16.1-19.1h-2.8c-2.2,0-4.4,0.3-6.5,0.9c-2.7,0.8-5.2,2-7.3,3.6c-5,3.7-7.9,9.2-7.9,15L6,281z"/>
<path class="st2" d="M185.3,207.2c0,4.9-4.4,8.8-9.9,8.8h-9.8v-17.7l9.8,0C180.9,198.3,185.3,202.3,185.3,207.2z"/>
<path class="st1" d="M175.4,218.7h-9.8c-1.7,0-3-1.2-3-2.7v-17.7c0-0.7,0.3-1.4,0.9-1.9c0.6-0.5,1.3-0.8,2.1-0.8h0l9.8,0
	c7.1,0,12.9,5.2,12.9,11.5C188.3,213.5,182.5,218.7,175.4,218.7z M168.7,213.3h6.8c3.8,0,6.9-2.8,6.9-6.2c0-3.4-3.1-6.2-6.9-6.2
	l-6.8,0V213.3z"/>
<path class="st1" d="M22.9,286.3c-1.7,0-3-1.2-3-2.7v-59.2c0-1.5,1.3-2.7,3-2.7c1.7,0,3,1.2,3,2.7v59.2
	C25.9,285.1,24.6,286.3,22.9,286.3z"/>
<path class="st3" d="M69.1,264.7l-11.4,11.6l-11.4-11.6l6.3-36.6h10.2L69.1,264.7z"/>
<path class="st1" d="M57.7,279c-0.9,0-1.7-0.3-2.3-0.9l-11.4-11.6c-0.6-0.6-0.8-1.4-0.7-2.2l6.3-36.6c0.2-1.3,1.5-2.3,3-2.3h10.2
	c1.5,0,2.7,1,3,2.3l6.3,36.6c0.1,0.8-0.1,1.6-0.7,2.2L60,278.1C59.4,278.6,58.6,279,57.7,279z M49.5,263.9l8.2,8.3l8.2-8.3
	l-5.7-33.1h-5L49.5,263.9z"/>
<path class="st3" d="M66.3,212.4l-3.5,15.8H52.6l-3.4-15.8H66.3z"/>
<path class="st1" d="M62.8,230.8H52.6c-1.4,0-2.7-0.9-2.9-2.2l-3.4-15.8c-0.2-0.8,0.1-1.6,0.6-2.2c0.6-0.6,1.4-1,2.3-1h17.1
	c0.9,0,1.7,0.4,2.3,1c0.6,0.6,0.8,1.4,0.6,2.2l-3.5,15.8C65.4,229.9,64.2,230.8,62.8,230.8z M55.1,225.5h5.2l2.3-10.4h-9.8
	L55.1,225.5z"/>
<path class="st0" d="M32.1,198.1l8.8-5.9l17,20.2l-8.8,5.9L32.1,198.1z"/>
<path class="st1" d="M49,221c-0.1,0-0.3,0-0.4,0c-0.8-0.1-1.5-0.5-2-1l-17-20.2c-1-1.2-0.7-2.9,0.6-3.8l8.8-5.9
	c0.6-0.4,1.4-0.6,2.2-0.5c0.8,0.1,1.5,0.5,2,1l17,20.2c1,1.2,0.7,2.9-0.6,3.8l-8.8,5.9C50.3,220.8,49.7,221,49,221z M36.2,198.7
	l13.4,15.9l4-2.7L40.3,196L36.2,198.7z"/>
<path class="st0" d="M66.6,218.3l-8.8-5.9l17-20.2l8.8,5.9L66.6,218.3z"/>
<path class="st1" d="M66.6,221c-0.6,0-1.3-0.2-1.8-0.5l-8.8-5.9c-1.3-0.9-1.6-2.6-0.6-3.8l17-20.2c0.5-0.6,1.2-0.9,2-1
	c0.8-0.1,1.6,0.1,2.2,0.5l8.8,5.9c1.3,0.9,1.6,2.6,0.6,3.8l-17,20.2c-0.5,0.6-1.2,0.9-2,1C66.8,221,66.7,221,66.6,221z M62,211.9
	l4,2.7l13.4-15.9l-4-2.7L62,211.9z"/>
<path class="st4" d="M350.7,213h52v-15.5c0-5.1-4.7-9.3-10.4-9.3h-31.2c-5.7,0-10.4,4.2-10.4,9.3V213z"/>
<path class="st1" d="M402.6,215.7h-52c-1.7,0-3-1.2-3-2.7v-15.5c0-6.6,6-12,13.4-12h31.2c7.4,0,13.4,5.4,13.4,12V213
	C405.6,214.5,404.3,215.7,402.6,215.7z M353.7,210.3h46v-12.8c0-3.7-3.3-6.6-7.4-6.6h-31.2c-4.1,0-7.4,3-7.4,6.6L353.7,210.3
	L353.7,210.3z"/>
<path class="st8" d="M186.1,317.8h-64.6c-5.9,0-10.6,4.3-10.6,9.5v10.4c0,5.2,4.8,9.5,10.6,9.5h315.9c5.9,0,10.6-4.3,10.6-9.5v-10.4
	c0-5.2-4.8-9.5-10.6-9.5H186.1z"/>
<path class="st1" d="M437.4,349.9H121.5c-7.5,0-13.6-5.5-13.6-12.2v-10.4c0-6.7,6.1-12.2,13.6-12.2h64.6c1.7,0,3,1.2,3,2.7
	s-1.3,2.7-3,2.7h-64.6c-4.2,0-7.6,3.1-7.6,6.8v10.4c0,3.8,3.4,6.8,7.6,6.8h315.9c4.2,0,7.6-3.1,7.6-6.8v-10.4c0-3.8-3.4-6.8-7.6-6.8
	H211.6c-1.7,0-3-1.2-3-2.7s1.3-2.7,3-2.7h225.8c7.5,0,13.6,5.5,13.6,12.2v10.4C451,344.4,444.9,349.9,437.4,349.9z"/>
<path class="st8" d="M141.3,347.2h30.4v54.1h-30.4V347.2z"/>
<path class="st1" d="M171.6,404h-30.4c-1.7,0-3-1.2-3-2.7v-54.1c0-1.5,1.3-2.7,3-2.7h30.4c1.7,0,3,1.2,3,2.7v54.1
	C174.6,402.8,173.3,404,171.6,404z M144.3,398.6h24.4v-48.8h-24.4V398.6z"/>
<path class="st8" d="M387.3,347.2h30.4v54.1h-30.4V347.2z"/>
<path class="st1" d="M417.6,404h-30.4c-1.7,0-3-1.2-3-2.7v-54.1c0-1.5,1.3-2.7,3-2.7h30.4c1.7,0,3,1.2,3,2.7v54.1
	C420.6,402.8,419.3,404,417.6,404z M390.3,398.6h24.4v-48.8h-24.4V398.6z"/>
<path class="st9" d="M235,312v-15.4c0-3.2,2.9-5.8,6.5-5.8h133.3c3.6,0,6.5,2.6,6.5,5.8V312c0,3.2-2.9,5.8-6.5,5.8H241.5
	C237.9,317.8,235,315.2,235,312z"/>
<path class="st1" d="M374.9,320.5H241.5c-5.2,0-9.5-3.8-9.5-8.5v-15.4c0-4.7,4.3-8.5,9.5-8.5h133.3c5.2,0,9.5,3.8,9.5,8.5V312
	C384.4,316.7,380.1,320.5,374.9,320.5z M241.5,293.4c-1.9,0-3.5,1.4-3.5,3.1V312c0,1.7,1.6,3.1,3.5,3.1h133.3c1.9,0,3.5-1.4,3.5-3.1
	v-15.4c0-1.7-1.6-3.1-3.5-3.1H241.5z"/>
<path class="st8" d="M325.2,290.7h30.4v27.1h-30.4V290.7z"/>
<path class="st1" d="M355.6,320.5h-30.4c-1.7,0-3-1.2-3-2.7v-27.1c0-1.5,1.3-2.7,3-2.7h30.4c1.7,0,3,1.2,3,2.7v27.1
	C358.6,319.3,357.2,320.5,355.6,320.5z M328.2,315.1h24.4v-21.7h-24.4V315.1z"/>
<path class="st10" d="M235,270.6v14.3c0,3.2,2.9,5.8,6.5,5.8h107.5c3.6,0,6.5-2.6,6.5-5.8v-14.3c0-3.2-2.9-5.8-6.5-5.8H241.5
	C237.9,264.8,235,267.4,235,270.6z"/>
<path class="st1" d="M349.1,293.4H241.5c-5.2,0-9.5-3.8-9.5-8.5v-14.3c0-4.7,4.3-8.5,9.5-8.5h107.5c5.2,0,9.5,3.8,9.5,8.5v14.3
	C358.6,289.6,354.3,293.4,349.1,293.4z M241.5,267.5c-1.9,0-3.5,1.4-3.5,3.1v14.3c0,1.7,1.6,3.1,3.5,3.1h107.5
	c1.9,0,3.5-1.4,3.5-3.1v-14.3c0-1.7-1.6-3.1-3.5-3.1H241.5z"/>
<path class="st11" d="M309.3,264.8h25v26h-25V264.8z"/>
<path class="st1" d="M334.3,293.4h-25c-1.7,0-3-1.2-3-2.7v-26c0-1.5,1.3-2.7,3-2.7h25c1.7,0,3,1.2,3,2.7v26
	C337.3,292.2,336,293.4,334.3,293.4z M312.3,288.1h19v-20.6h-19V288.1z"/>
<path class="st12" d="M445,223.5v6c0,4.3-3.9,7.9-8.8,7.9h-30c4.8,0,8.8-3.5,8.8-7.9v-6c0-4.3-3.9-7.8-8.8-7.8h30
	C441.1,215.7,445,219.2,445,223.5z"/>
<path class="st13" d="M412,5.8h-30c7.8,0,14.2,5.7,14.2,12.7V186c5.4,1.5,9.4,6.1,9.4,11.5v12.8h20.6V18.5
	C426.2,11.5,419.9,5.8,412,5.8z"/>
<path class="st14" d="M445,327.3v10.4c0,3.8-3.4,6.8-7.6,6.8h-19.8c0,0,0,0,0,0h-10.2c4.2,0,7.6-3.1,7.6-6.8v-10.4
	c0-3.8-3.4-6.8-7.6-6.8h30C441.6,320.5,445,323.6,445,327.3z"/>
</svg>
