<?xml version="1.0" encoding="utf-8"?>
<!-- Generator: Adobe Illustrator 23.0.0, SVG Export Plug-In . SVG Version: 6.00 Build 0)  -->
<svg version="1.1" id="Layer_1" xmlns="http://www.w3.org/2000/svg" xmlns:xlink="http://www.w3.org/1999/xlink" x="0px" y="0px"
	 viewBox="0 0 187 48" style="enable-background:new 0 0 187 48;" xml:space="preserve">
<style type="text/css">
	.Drop_x0020_Shadow{fill:none;}
	.Outer_x0020_Glow_x0020_5_x0020_pt{fill:none;}
	.Blue_x0020_Neon{fill:none;stroke:#8AACDA;stroke-width:7;stroke-linecap:round;stroke-linejoin:round;}
	.Chrome_x0020_Highlight{fill:url(#SVGID_1_);stroke:#FFFFFF;stroke-width:0.3629;stroke-miterlimit:1;}
	.Jive_GS{fill:#FFDD00;}
	.Alyssa_GS{fill:#A6D0E4;}
	.st0{fill:#42CB6F;}
	.st1{fill:#F8F8F7;}
</style>
<linearGradient id="SVGID_1_" gradientUnits="userSpaceOnUse" x1="-934" y1="179" x2="-934" y2="178">
	<stop  offset="0" style="stop-color:#656565"/>
	<stop  offset="0.618" style="stop-color:#1B1B1B"/>
	<stop  offset="0.6292" style="stop-color:#545454"/>
	<stop  offset="0.9831" style="stop-color:#3E3E3E"/>
</linearGradient>
<g>
	<g>
		<g id="XMLID_11_">
			<path id="XMLID_13_" class="st0" d="M180.4,47H5c-1.2,0-3-1.8-3-4V5c0-2.2,1.8-4,3-4h175.4c3.2,0,5,1.8,5,4V43
				C185.5,45.2,183.6,47,180.4,47z"/>
			<path id="XMLID_12_" class="st1" d="M66,24l-5.5-4.7c-2.6-2.2-4.1-5.2-4.1-8.3V0.5H5.1c-2,0-3.7,1.4-3.7,3v40.9
				c0,1.7,1.7,3,3.7,3h51.3V37c0-3.1,1.5-6.1,4.1-8.3L66,24z"/>
		</g>
	</g>
</g>
<path class="st0" d="M33.4,19.4h-1.7c-0.4,0-0.7-0.3-0.7-0.7v-4.9c0-0.4-0.3-0.7-0.7-0.7h-4.6c-0.4,0-0.7,0.3-0.7,0.7v4.9
	c0,0.4-0.3,0.7-0.7,0.7h-1.7c-0.6,0-0.9,0.7-0.5,1.2l5.4,5.7c0.3,0.3,0.7,0.3,1,0l5.4-5.7C34.3,20.1,34,19.4,33.4,19.4z"/>
<rect x="21" y="28.9" class="st0" width="14" height="2.1"/>
</svg>
