<?xml version="1.0" encoding="utf-8"?>
<!-- Generator: Adobe Illustrator 23.0.0, SVG Export Plug-In . SVG Version: 6.00 Build 0)  -->
<svg version="1.1" id="Layer_1" xmlns="http://www.w3.org/2000/svg" xmlns:xlink="http://www.w3.org/1999/xlink" x="0px" y="0px"
	 viewBox="0 0 55 43.6" style="enable-background:new 0 0 55 43.6;" xml:space="preserve">
<style type="text/css">
	.st0{fill:#DEBB7E;}
	.st1{fill:#B89558;}
	.st2{fill:none;stroke:#1E1C1A;stroke-linecap:round;stroke-linejoin:round;stroke-miterlimit:10;}
	.st3{fill:#6DD627;}
	.st4{fill:#9CEB60;}
	.st5{fill:#FF6242;}
	.st6{fill:#FF866E;}
	.st7{opacity:0.15;fill:#45413C;enable-background:new    ;}
	.st8{fill:#FFFACF;}
	.st9{fill:#FFF48C;}
	.st10{fill:#E0E0E0;stroke:#1E1C1A;stroke-linecap:round;stroke-linejoin:round;stroke-miterlimit:10;}
	.st11{fill:#BF8256;}
	.st12{fill:#915E3A;}
	.st13{fill:#00B8F0;}
	.st14{fill:#4ACFFF;}
</style>
<g id="Bg">
</g>
<g id="Icons">
	<g id="XMLID_1973_">
		<rect id="XMLID_2430_" x="14.8" y="14.2" class="st0" width="5" height="25.9"/>
		<path id="XMLID_2429_" class="st1" d="M14.8,32.1c0.5,0.2,0.9,0.3,1.5,0.3c1.4,0,2.7-0.9,3.3-2.1c0.1,0,0.2,0,0.2,0.1V14.2h-5
			V32.1z"/>
		<rect id="XMLID_2428_" x="14.8" y="14.2" class="st2" width="5" height="25.9"/>
		<path id="XMLID_2427_" class="st3" d="M17.3,2.8c-6.4,0-11.6,5-12.1,11.3c-2.9,1.2-4.9,3.9-4.9,7.2c0,4.3,3.5,7.7,7.7,7.7
			c2.2,0,4.2-0.9,5.6-2.4c1.2,0.3,2.4,0.6,3.7,0.6C24,27,29.4,21.6,29.4,15S24,2.8,17.3,2.8z"/>
		<path id="XMLID_2426_" class="st4" d="M5.2,17.3C5.7,11,10.9,6,17.3,6c6.2,0,11.3,4.5,12,10.6c0.1-0.6,0.1-1,0.1-1.6
			c0-6.7-5.5-12.1-12.1-12.1c-6.4,0-11.6,5-12.1,11.3c-2.9,1.2-4.9,3.9-4.9,7.2c0,0.6,0.1,1.2,0.2,1.6C1,20.3,2.8,18.2,5.2,17.3z"/>
		<path id="XMLID_2425_" class="st2" d="M17.3,2.8c-6.4,0-11.6,5-12.1,11.3c-2.9,1.2-4.9,3.9-4.9,7.2c0,4.3,3.5,7.7,7.7,7.7
			c2.2,0,4.2-0.9,5.6-2.4c1.2,0.3,2.4,0.6,3.7,0.6C24,27,29.4,21.6,29.4,15S24,2.8,17.3,2.8z"/>
		<path id="XMLID_2424_" class="st5" d="M17.3,20.3l13.5-7.9c0.6-0.3,1.4-0.3,2,0l13.6,7.9c0.8,0.5,1,1.4,0.7,2.2l0,0
			c-0.5,0.9-1.5,1.3-2.4,0.7l-12.8-7.4L19,23.2c-0.9,0.5-2,0.1-2.4-0.7l0,0C16.1,21.7,16.5,20.8,17.3,20.3z"/>
		<path id="XMLID_2423_" class="st6" d="M16.7,22.7c0.1-0.2,0.3-0.3,0.6-0.5l13.5-7.9c0.6-0.3,1.4-0.3,2,0l13.6,7.9
			c0.2,0.1,0.5,0.3,0.6,0.5c0-0.1,0.1-0.1,0.1-0.2c0.3-0.8,0.1-1.7-0.7-2.2l-13.6-7.9c-0.6-0.3-1.4-0.3-2,0l-13.6,7.9
			c-0.8,0.5-1,1.4-0.7,2.2C16.6,22.6,16.6,22.7,16.7,22.7z"/>
		<path id="XMLID_2422_" class="st2" d="M17.3,20.3l13.5-7.9c0.6-0.3,1.4-0.3,2,0l13.6,7.9c0.8,0.5,1,1.4,0.7,2.2l0,0
			c-0.5,0.9-1.5,1.3-2.4,0.7l-12.8-7.4L19,23.2c-0.9,0.5-2,0.1-2.4-0.7l0,0C16.1,21.7,16.5,20.8,17.3,20.3z"/>
		<ellipse id="XMLID_2421_" class="st7" cx="29.8" cy="41" rx="24.4" ry="1.7"/>
		<polygon id="XMLID_2420_" class="st8" points="43.8,40 19.8,40 19.8,22.7 31.8,15.8 43.8,22.7 		"/>
		<polygon id="XMLID_2419_" class="st9" points="31.8,15.8 19.8,22.7 19.8,25.5 31.8,18.6 43.8,25.5 43.8,22.7 		"/>
		<polygon id="XMLID_2418_" class="st2" points="43.8,40 19.8,40 19.8,22.7 31.8,15.8 43.8,22.7 		"/>
		<path id="XMLID_2417_" class="st10" d="M33.3,40H21.8v-1.5c0-0.6,0.5-1,1-1h9.5c0.6,0,1,0.5,1,1V40H33.3z"/>
		<path id="XMLID_1763_" class="st11" d="M30.9,25.5h-6.5c-0.6,0-1,0.5-1,1v10.9h8.5V26.6C31.8,26,31.3,25.5,30.9,25.5z"/>
		<path id="XMLID_722_" class="st12" d="M30.9,25.5h-6.5c-0.6,0-1,0.5-1,1v2c0-0.6,0.5-1,1-1h6.5c0.6,0,1,0.5,1,1v-2
			C31.8,26,31.3,25.5,30.9,25.5z"/>
		<path id="XMLID_721_" class="st2" d="M30.9,25.5h-6.5c-0.6,0-1,0.5-1,1v10.9h8.5V26.6C31.8,26,31.3,25.5,30.9,25.5z"/>
		<path id="XMLID_720_" class="st13" d="M39.8,31.6h-3.9c-0.6,0-1-0.5-1-1v-3.9c0-0.6,0.5-1,1-1h3.9c0.6,0,1,0.5,1,1v3.9
			C40.7,31.1,40.4,31.6,39.8,31.6z"/>
		<path id="XMLID_718_" class="st14" d="M39.8,25.5h-3.9c-0.6,0-1,0.5-1,1v3.9c0,0.6,0.5,1,1,1h0.7l3.5-5.9
			C39.9,25.6,39.8,25.5,39.8,25.5z"/>
		<path id="XMLID_717_" class="st13" d="M28.8,32h-2.4c-0.6,0-1-0.5-1-1v-2.4c0-0.6,0.5-1,1-1h2.4c0.6,0,1,0.5,1,1V31
			C29.8,31.6,29.4,32,28.8,32z"/>
		<path id="XMLID_716_" class="st14" d="M28.8,27.5h-2.4c-0.6,0-1,0.5-1,1V31c0,0.6,0.5,1,1,1h0.2l2.6-4.4
			C29,27.6,28.9,27.5,28.8,27.5z"/>
		<path id="XMLID_713_" class="st2" d="M39.8,31.6h-3.9c-0.6,0-1-0.5-1-1v-3.9c0-0.6,0.5-1,1-1h3.9c0.6,0,1,0.5,1,1v3.9
			C40.7,31.1,40.4,31.6,39.8,31.6z"/>
		<path id="XMLID_712_" class="st2" d="M28.8,32h-2.4c-0.6,0-1-0.5-1-1v-2.4c0-0.6,0.5-1,1-1h2.4c0.6,0,1,0.5,1,1V31
			C29.8,31.6,29.4,32,28.8,32z"/>
		<path id="XMLID_709_" class="st3" d="M52.2,40c0.6-0.5,1-1.2,1-2c0-1.4-1.2-2.4-2.4-2.4c-0.6,0-1.2,0.2-1.6,0.6
			c-0.5-2.1-2.2-3.6-4.4-3.6c-2.4,0-4.5,2-4.5,4.5c0,1.2,0.5,2.2,1.2,3h10.8V40z"/>
		<path id="XMLID_708_" class="st4" d="M44.8,34.6c2.2,0,3.9,1.5,4.4,3.6c0.5-0.3,0.9-0.6,1.6-0.6c1,0,1.9,0.6,2.3,1.5
			c0.1-0.3,0.2-0.6,0.2-1c0-1.4-1.2-2.4-2.4-2.4c-0.6,0-1.2,0.2-1.6,0.6c-0.5-2.1-2.2-3.6-4.4-3.6c-2.4,0-4.5,2-4.5,4.5
			c0,0.3,0,0.7,0.1,1C40.9,36.1,42.6,34.6,44.8,34.6z"/>
		<path id="XMLID_707_" class="st2" d="M52.2,40c0.6-0.5,1-1.2,1-2c0-1.4-1.2-2.4-2.4-2.4c-0.6,0-1.2,0.2-1.6,0.6
			c-0.5-2.1-2.2-3.6-4.4-3.6c-2.4,0-4.5,2-4.5,4.5c0,1.2,0.5,2.2,1.2,3h10.8V40z"/>
	</g>
</g>
</svg>
