<?xml version="1.0" encoding="utf-8"?>
<!-- Generator: Adobe Illustrator 23.0.0, SVG Export Plug-In . SVG Version: 6.00 Build 0)  -->
<svg version="1.1" id="_x31_" xmlns="http://www.w3.org/2000/svg" xmlns:xlink="http://www.w3.org/1999/xlink" x="0px" y="0px"
	 viewBox="0 0 800 500" style="enable-background:new 0 0 800 500;" xml:space="preserve">
<style type="text/css">
	._x005B_Ïî_x0020_óìîë÷àíèþ_x005D_{fill:#FFFFFF;stroke:#231F20;stroke-miterlimit:10;}
	.Ñêðóãëåííûå_x0020_óãëû_x0020_2_x0020_pt_x002E_{fill:#FFFFFF;stroke:#231F20;stroke-miterlimit:10;}
	.Áûñòðîå_x0020_îòðàæåíèå_x0020_X{fill:none;}
	.Ñêîñ_x0020_ìÿãêèé{fill:url(#SVGID_1_);}
	.Ñóìðàê{fill:#FFFFFF;}
	.Ïîìïàäóð_÷á{fill-rule:evenodd;clip-rule:evenodd;fill:#44ADE2;}
	.st0{clip-path:url(#SVGID_3_);}
	.st1{fill:#99846B;}
	.st2{clip-path:url(#SVGID_3_);fill:#493832;}
	.st3{fill:#BA4D17;}
	.st4{fill:#F7C046;}
	.st5{fill:#FFDD50;}
	.st6{fill:#FFEF7B;}
	.st7{fill:#EFA53A;}
	.st8{fill:#E5D48C;}
	.st9{fill:#4E9381;}
	.st10{fill:#64AF9D;}
	.st11{fill:#BCAD6C;}
	.st12{fill:#634D3B;}
	.st13{fill:#493628;}
	.st14{fill:#EA952F;}
	.st15{fill:#B78A65;}
	.st16{fill:#E5BD88;}
	.st17{fill:#FFEFAE;}
	.st18{fill:#61AF98;}
	.st19{clip-path:url(#SVGID_5_);}
	.st20{fill:#755849;}
	.st21{fill:#E05E4C;}
	.st22{fill:#4F221A;}
	.st23{fill:#493832;}
	.st24{fill:#5E4740;}
	.st25{fill:#8C6B60;}
	.st26{fill:#91756B;}
	.st27{fill:#7F655C;}
	.st28{fill:#E5A973;}
	.st29{fill:#EDBF8E;}
	.st30{opacity:0.7;}
	.st31{fill:#CDB7A4;}
	.st32{fill:#FFFFFF;}
	.st33{fill:#78A098;}
	.st34{fill:#A7CEC8;}
	.st35{fill:#C4A095;}
	.st36{clip-path:url(#SVGID_3_);fill:#7C664D;}
	.st37{fill:#F9BD87;}
	.st38{fill:#AD494E;}
	.st39{fill:#8C2F38;}
	.st40{fill:#4C4234;}
	.st41{fill:#352C21;}
	.st42{fill:#C15660;}
	.st43{fill:#E2868F;}
	.st44{opacity:0.6;fill:#FFA1AF;}
	.st45{fill:#E58057;}
	.st46{fill:#BC7764;}
	.st47{fill:#683B37;}
	.st48{fill:#D3BEA3;}
	.st49{opacity:0.5;fill:#934437;}
	.st50{fill:#964F33;}
	.st51{fill:#773924;}
	.st52{fill:#47291F;}
	.st53{fill:#FFE3CC;}
	.st54{fill:#E59199;}
	.st55{fill:#558499;}
	.st56{fill:#87BACC;}
	.st57{fill:#E28054;}
	.st58{opacity:0.5;clip-path:url(#SVGID_3_);fill:#8E6040;}
	.st59{fill:#915A2D;}
	.st60{fill:#7A4623;}
	.st61{fill:#75B3CC;}
	.st62{fill:#5797AA;}
	.st63{fill:#774D3C;}
	.st64{fill:#5E382B;}
	.st65{fill:#F7916D;}
	.st66{fill:#4C1C19;}
	.st67{fill:#5A94A3;}
	.st68{fill:#95CBD8;}
	.st69{fill:#6B3E1C;}
	.st70{fill:#E88D60;}
	.st71{clip-path:url(#SVGID_3_);fill:#BBC443;}
	.st72{clip-path:url(#SVGID_3_);fill:#D8654A;}
	.st73{fill:#F2A697;}
	.st74{fill:#FFE2B3;}
	.st75{fill:#B55E24;}
	.st76{fill:#E5913C;}
	.st77{fill:#42697F;}
	.st78{fill:#305666;}
	.st79{fill:#EF9D65;}
	.st80{fill:#8E2E29;}
	.st81{fill:#D8772E;}
	.st82{opacity:0.4;fill:#FFC476;}
	.st83{fill:#B74239;}
	.st84{fill:#754F30;}
	.st85{fill:#5B3B24;}
	.st86{fill:#5C889B;}
	.st87{fill:#FFD371;}
	.st88{fill:#E89F64;}
	.st89{fill:#633F25;}
	.st90{fill:#FFC271;}
	.st91{fill:#B77748;}
	.st92{fill:#D65751;}
	.st93{fill:#FFF8DC;}
	.st94{filter:url(#Adobe_OpacityMaskFilter);}
	.st95{filter:url(#Adobe_OpacityMaskFilter_1_);}
	.st96{mask:url(#SVGID_6_);fill:url(#SVGID_7_);}
	.st97{fill:url(#SVGID_8_);}
	.st98{filter:url(#Adobe_OpacityMaskFilter_2_);}
	.st99{filter:url(#Adobe_OpacityMaskFilter_3_);}
	.st100{mask:url(#SVGID_9_);fill:url(#SVGID_10_);}
	.st101{fill:url(#SVGID_11_);}
</style>
<linearGradient id="SVGID_1_" gradientUnits="userSpaceOnUse" x1="0" y1="-150" x2="0.7071" y2="-149.2929">
	<stop  offset="0" style="stop-color:#DEDFE3"/>
	<stop  offset="0.1783" style="stop-color:#DADBDF"/>
	<stop  offset="0.3611" style="stop-color:#CECFD3"/>
	<stop  offset="0.546" style="stop-color:#B9BCBF"/>
	<stop  offset="0.7324" style="stop-color:#9CA0A2"/>
	<stop  offset="0.9181" style="stop-color:#787D7E"/>
	<stop  offset="1" style="stop-color:#656B6C"/>
</linearGradient>
<g>
	<defs>
		<rect id="SVGID_2_" width="800" height="500"/>
	</defs>
	<clipPath id="SVGID_3_">
		<use xlink:href="#SVGID_2_"  style="overflow:visible;"/>
	</clipPath>
	<g class="st0">
		<path class="st1" d="M399.1,71.4c0-2.4-1.6-4.3-3.6-4.3c-2,0-3.6,1.9-3.6,4.3c0,2.4,1.6,4.3,3.6,4.3
			C397.5,75.8,399.1,73.8,399.1,71.4z"/>
		<ellipse class="st1" cx="358" cy="83.1" rx="2.3" ry="2.7"/>
		<path class="st1" d="M486.8,50c1.1-0.8,1.5-2.3,0.7-3.3c-0.7-1-2.3-1.1-3.4-0.3c-1.1,0.8-1.5,2.3-0.7,3.3
			C484.2,50.7,485.7,50.8,486.8,50z"/>
		<path class="st1" d="M460.3,77.6c1.1-0.8,1.5-2.3,0.7-3.3c-0.7-1-2.3-1.1-3.4-0.3c-1.1,0.8-1.5,2.3-0.7,3.3
			C457.7,78.3,459.2,78.5,460.3,77.6z"/>
		<g>
			<path class="st1" d="M544.5,92.9c-14.4,0-26.3-7.2-37.8-14.1c-11.3-6.8-21.9-13.2-34.6-13.2c-11.1,0-18.5,5.1-27.2,11
				c-11,7.5-23.4,16-46.6,16c-15.9,0-35.1-10.3-35.1-23c0-9.8,9.9-19.9,26.5-19.9c21,0,28.4,11.9,28.4,22.1
				c0,7.5-5.9,10.9-11.8,10.9c-6.5,0-12.4-4.2-14.3-10.2l1.9-0.6c1.6,5.2,6.7,8.8,12.4,8.8c4.5,0,9.8-2.3,9.8-8.9
				c0-9.3-6.9-20.1-26.4-20.1c-16.9,0-24.5,10.5-24.5,17.9c0,11.6,18.1,21,33.1,21c22.5,0,34.7-8.3,45.4-15.7
				c8.5-5.8,16.6-11.4,28.3-11.4c13.3,0,24.7,6.9,35.7,13.5c11.3,6.8,22.9,13.8,36.8,13.8c25.3,0,31.7-43.4,61-47.8L606,45
				C578.3,50.8,570.9,92.9,544.5,92.9z"/>
		</g>
		<g>
			<path class="st1" d="M357.7,83.2h-2l0-0.9c0-4.2,3.5-6.1,6.8-6.1c2.2,0,4.2,0.8,5.5,1.4l-0.9,1.8c-1.5-0.8-3.2-1.2-4.6-1.2
				c-2.2,0-4.8,1.1-4.8,4.1L357.7,83.2z"/>
		</g>
		<g>
			<path class="st1" d="M485.7,68c-8.5-2.3-13.3-7.9-12-13.9c1.1-5.2,4.9-7.8,11.9-8.3l0.1,2c-7.7,0.5-9.4,3.7-10.1,6.7
				c-1.1,4.9,3.2,9.5,10.6,11.5L485.7,68z"/>
		</g>
		<g>
			<path class="st1" d="M455.4,83.8c-3.9,0-6.5-1.5-7.2-4.2c-1-4.2,3.1-9.8,9.9-13.2l0.9,1.8c-6.4,3.2-9.5,8.1-8.8,10.9
				c0.4,1.7,2.3,2.7,5.2,2.7c2.5,0,4-0.8,4.8-1.5c0.9-0.8,1.5-1.8,1.5-2.8c0-1.3-1.1-2.1-2.8-2.1v-2c3.3,0,4.8,2.1,4.8,4.1
				C463.7,80.6,460.6,83.8,455.4,83.8z"/>
		</g>
	</g>
	<rect x="543.1" y="92.3" class="st2" width="1" height="6.5"/>
	<rect x="398.1" y="92.3" class="st2" width="1" height="6.5"/>
	<rect x="576.6" y="112.7" class="st2" width="24.6" height="3.8"/>
	<rect x="576.6" y="147.2" class="st2" width="24.6" height="3.8"/>
	<g class="st0">
		<g>
			<polygon class="st3" points="435.5,424.8 100.3,423.2 108.7,438.4 435.5,437.4 			"/>
			<polygon class="st4" points="67.3,400.4 66.7,394.4 174,367.9 177.5,371 			"/>
			<polygon class="st4" points="344.4,254.1 268.3,261.4 255.9,294.7 356.9,288.7 			"/>
			<polygon class="st5" points="41.8,405.8 46.6,432.8 485.1,429.3 492.5,373.9 436.2,365.2 402.8,285 222.3,296.6 176.5,369.1 			
				"/>
			<g>
				<polygon class="st6" points="437.6,367.7 492.3,376.1 492.5,373.9 436.6,365.3 				"/>
				<polygon class="st6" points="43.2,408.2 177.9,371.5 223.7,299.1 403.8,287.5 402.8,285 222.3,296.6 176.5,369.1 41.8,405.8 
					46.6,432.8 47.6,432.8 				"/>
			</g>
			<polygon class="st4" points="45.3,409 49.5,433.9 485.1,431 492.3,375.5 181,378.8 			"/>
			<polygon class="st7" points="46.9,418.5 49.5,433.9 485.1,431 488.6,403.9 			"/>
			<polygon class="st6" points="182,383.2 491.8,379.2 492.3,375.5 322.1,376.3 180.2,378.4 45.4,408.2 45.8,412.2 			"/>
			<polygon class="st8" points="492.6,421.1 426.6,424.3 427.7,432.6 487.9,432.5 493.8,429 			"/>
			<polygon class="st9" points="181.3,368.2 221.8,304 394.2,293.7 423.6,363.3 			"/>
			<polygon class="st10" points="183.7,366.5 224.3,305.5 382.5,298.3 411.7,359 			"/>
			<polygon class="st9" points="191.1,354.6 207.8,366.5 183.2,367.4 			"/>
			<path class="st9" d="M214.5,366.3c-10.7-12.7-10.6-15.9-9.8-16.6C205.6,349,219,366,219,366L214.5,366.3z"/>
			<polygon class="st9" points="245.8,302.9 241.5,302.9 234.4,366.2 242.7,366.2 			"/>
			<path class="st9" d="M374.2,362.5c2.7-29,8.2-44.4,19.4-43c11.1,1.4,21,40.3,21,40.3L374.2,362.5z"/>
			<path class="st9" d="M280.7,364.8c6.1-23.3,11.9-35.6,18.5-34.2c6.5,1.4,6.5,33.1,6.5,33.1L280.7,364.8z"/>
			<path class="st9" d="M300.1,364.3c6.1-23.3,11.9-35.6,18.5-34.2c6.5,1.4,6.5,33.1,6.5,33.1L300.1,364.3z"/>
			<polygon class="st9" points="325,300.1 317.1,300.1 321.3,364.6 329.2,364.6 			"/>
			<polygon class="st11" points="493.8,428.6 427.1,429.3 427.7,432.6 487.9,434.2 			"/>
			<path class="st5" d="M383.9,432.6c-11.6-25.3,18.1-44.7,44,0H383.9z"/>
			<path class="st3" d="M385.9,434c-10.3-23.5,16-41.5,38.9,0H385.9z"/>
			<path class="st5" d="M121.6,433.7c-13.3-27,20.7-47.7,50.5,0H121.6z"/>
			<path class="st3" d="M124.3,434.4c-11.9-25.5,18.5-45,45,0H124.3z"/>
			<path class="st12" d="M417,433.5c-5-11.2-14.1-18-20.4-15.2c-6.3,2.8-7.3,14.1-2.3,25.3c5,11.2,14.1,18,20.4,15.2
				C421,456,422,444.7,417,433.5z"/>
			<path class="st13" d="M416.6,433.7c-1.3-2.9-2.9-5.5-4.7-7.8c1.7,8,0.1,15-4.5,17c-4.3,1.9-10.1-1-14.8-6.7
				c0.5,2.3,1.3,4.8,2.4,7.2c4.8,10.7,13.5,17.2,19.5,14.5C420.4,455.3,421.3,444.4,416.6,433.7z"/>
			<path class="st12" d="M155.1,433.3c-4.8-10.7-13.6-17.3-19.6-14.6c-6,2.7-7,13.6-2.2,24.3c4.8,10.7,13.6,17.3,19.6,14.6
				C159,454.9,159.9,444,155.1,433.3z"/>
			<polygon class="st14" points="300.8,365.8 299.2,421.5 195.6,423.5 183.4,368.4 181.7,368.4 194.7,425.5 301.8,423.5 
				303.5,365.8 			"/>
			<path class="st14" d="M314.5,365.7l1.1,55.6l46.2-1c4.6-21.7,4.6-24.9,29.7-22.8l5.2-33.6l1.2,0l-5.2,35.4
				c-23.8,0.1-23.4,2.8-29,23l-49.8,1.1l-1.2-57.7L314.5,365.7z"/>
			<path class="st15" d="M412.8,435.4c-3.1-7-8.8-11.2-12.8-9.5c-3.9,1.8-4.6,8.9-1.4,15.8c3.1,7,8.8,11.2,12.8,9.5
				C415.3,449.5,415.9,442.4,412.8,435.4z"/>
			<path class="st16" d="M410.2,434.8c-2.3-5.2-6.6-8.4-9.5-7.1c-2.9,1.3-3.4,6.6-1.1,11.8c2.3,5.2,4.5,3.6,7.4,2.3
				C410,440.5,412.5,440,410.2,434.8z"/>
			<path class="st13" d="M153,432.8c-1.3-2.8-2.8-5.3-4.5-7.4c2,7.7,1,14.5-2.9,16.6c-3.7,2-9-0.6-13.6-6.3c0.6,2.3,1.5,4.7,2.6,7.1
				c5,10.4,13,16.3,18,13.4C157.5,453.3,157.7,442.9,153,432.8z"/>
			<path class="st15" d="M149.9,434.4c-3.1-6.7-8.4-10.9-11.7-9.1c-3.4,1.8-3.5,8.8-0.3,15.7c3.2,6.8,8.5,10.7,11.8,8.8
				C152.9,448,153,441.1,149.9,434.4z"/>
			<path class="st16" d="M147.7,433.9c-2.3-5.1-6.3-8.1-8.8-6.8c-2.5,1.3-2.6,6.6-0.2,11.7c2.4,5.1,4.2,3.5,6.7,2.1
				C147.8,439.5,150,438.9,147.7,433.9z"/>
			<polygon class="st6" points="41.8,407.2 48.4,407.9 57.5,427.8 45.9,427.8 			"/>
			<polygon class="st14" points="41.8,407.2 46.9,407.9 53.8,427.8 44.9,427.8 			"/>
			<polygon class="st8" points="109.4,426.9 41.6,426.2 39.2,433.2 109.4,433.9 			"/>
			<polygon class="st11" points="109.4,430.4 39.2,432.8 44.8,440.5 109.9,437.7 			"/>
			<polygon class="st17" points="109.4,426.9 41.6,426.2 41.1,428.1 109.4,428.8 			"/>
			<polygon class="st18" points="206.6,334.7 223.8,307.5 389.4,297.6 399.6,321.8 			"/>
			
				<rect x="302.4" y="295.9" transform="matrix(0.9997 -2.475464e-02 2.475464e-02 0.9997 -8.2007 7.7068)" class="st5" width="9.5" height="78.3"/>
			<polygon class="st5" points="379.8,291.8 375.3,292.2 388.5,366.6 397,364.3 			"/>
			<polygon class="st5" points="227.2,300.3 222.9,300.1 214.8,376.9 223.2,377.2 			"/>
			<path class="st14" d="M269.2,373.7c5,6.3,28.6,10.7,29.1-0.5L269.2,373.7z"/>
			<path class="st4" d="M277,373.2c0-1.8,23-3.6,22.4,0.7C298.8,378.2,276.9,375.3,277,373.2z"/>
			<path class="st14" d="M362.4,372.4c5,6.3,28.6,10.7,29.1-0.5L362.4,372.4z"/>
			<path class="st4" d="M369.9,371.9c0-1.8,23-3.6,22.4,0.7C391.7,376.8,369.8,374,369.9,371.9z"/>
			<g>
				<defs>
					<polygon id="SVGID_4_" points="344.4,254.1 268.3,261.4 255.9,294.7 356.9,288.7 					"/>
				</defs>
				<clipPath id="SVGID_5_">
					<use xlink:href="#SVGID_4_"  style="overflow:visible;"/>
				</clipPath>
				<g class="st19">
					<polygon class="st20" points="266.1,272.2 260.2,272.6 260.8,278.1 266.6,277.7 					"/>
					<polygon class="st20" points="270.9,266.2 264.9,266.6 265.4,272.3 271.3,271.8 					"/>
					<polygon class="st20" points="277.2,271.6 271.2,272 271.7,277.6 277.6,277.1 					"/>
					<polygon class="st20" points="282.9,265.8 276.9,266.2 277.2,271.9 283.3,271.5 					"/>
					<polygon class="st20" points="289.7,271.2 283.6,271.6 283.9,277.2 289.9,276.8 					"/>
					<polygon class="st20" points="296.1,264.7 290,265.2 290.2,270.9 296.3,270.5 					"/>
					<polygon class="st20" points="302.1,269.8 296,270.2 296.2,275.8 302.2,275.4 					"/>
					<polygon class="st20" points="314.3,268.6 308.1,269.1 308.2,274.7 314.2,274.3 					"/>
					<polygon class="st20" points="308.1,263.9 301.9,264.4 302,270.2 308.2,269.7 					"/>
					<polygon class="st20" points="320.4,262.6 314.1,263.1 314.1,268.9 320.3,268.5 					"/>
					<polygon class="st20" points="326.3,268.2 320.1,268.6 320,274.3 326.2,273.9 					"/>
					<polygon class="st20" points="332.8,262.2 326.5,262.7 326.4,268.5 332.6,268.1 					"/>
					<polygon class="st20" points="339.2,267.7 333,268.2 332.7,273.9 338.9,273.5 					"/>
					<polygon class="st20" points="346.6,261.1 340.2,261.6 339.8,267.5 346.1,267 					"/>
					<polygon class="st20" points="352.2,266.3 345.9,266.8 345.5,272.5 351.7,272.1 					"/>
				</g>
			</g>
			<polygon class="st6" points="344.9,252.7 267.9,259.8 265.8,266.8 348,261.1 			"/>
			<polygon class="st6" points="352.2,271.8 261.6,278.1 260.6,281 352.8,274.5 			"/>
			<polygon class="st21" points="102.6,406.5 89.8,409.1 89.8,413 102.6,413 			"/>
			<polygon class="st17" points="43,412.4 44.7,421.3 49.5,420.3 47.6,413.3 			"/>
			<polygon class="st21" points="488.6,395.5 480.6,394.6 478.9,408.2 486.9,409.1 			"/>
			
				<rect x="482.4" y="387.3" transform="matrix(0.1279 -0.9918 0.9918 0.1279 35.569 822.1213)" class="st6" width="5.8" height="7"/>
			<g>
				<path class="st22" d="M230.2,387.4c0.1,0.6,0.1,1.2,0.1,1.7c0,0.5,0.1,1.1,0.1,1.7c0,0.7,0,1.4,0,2.2c0,0.7,0,1.4,0,2.2
					c0,0.2-0.1,0.3-0.2,0.3c-0.6,0-1.1,0-1.8,0.1c-0.6,0-1.2,0.1-1.8,0.1c0,0.6,0,1.4-0.1,2.2c0,0.8-0.1,1.7-0.1,2.7
					c0,0.9-0.1,1.9-0.2,2.9c-0.1,1-0.1,1.9-0.2,2.8c0,0.3-0.7,0.4-2,0.5c-0.7,0-1.3,0-1.8,0c-0.5,0-1,0-1.5,0
					c-0.1,0-0.2-0.1-0.2-0.1c0-0.1-0.1-0.3-0.1-0.5c-0.1-1.8-0.3-3.5-0.5-5.2c-0.2-1.7-0.4-3.3-0.6-4.9c-0.4,0-0.7,0-1.1,0
					c-0.4,0-0.7,0-1.1,0l-1.4,0.1c-0.2,0-0.3-0.1-0.3-0.2c-0.1-1.4-0.2-2.8-0.2-4.3c0-0.6,0-1.3-0.1-1.8c0-0.6,0-1.2,0-1.8
					c0-0.2,0.1-0.3,0.2-0.3c0.5-0.1,1-0.1,1.5-0.1c0.5,0,1,0,1.5-0.1c1.9-0.1,3.8-0.1,5.7-0.1c1.9,0,3.8,0,5.7,0
					C230.1,387.1,230.2,387.2,230.2,387.4z"/>
				<path class="st22" d="M242.4,387.3c0.8,3.1,1.6,6.2,2.3,9.2c0.7,3,1.4,6.1,2.1,9.2l0,0.1c0,0.1-0.1,0.2-0.2,0.2
					c-1.1,0-2.1,0.1-3.2,0.1c-1,0-2.1,0-3.2-0.1c-0.1,0-0.2,0-0.2-0.1c-0.1,0-0.1-0.2-0.1-0.4l-0.2-1.8c-0.1,0.1-0.3,0.2-0.4,0.4
					c-0.2,0.1-0.3,0.2-0.5,0.3c-0.2,0.1-0.3,0.2-0.4,0.2c-0.1,0.1-0.2,0.1-0.3,0.1c-0.2,0-0.3-0.1-0.5-0.4c-0.2-0.3-0.3-0.5-0.3-0.7
					l-0.2,1.6c0,0.1-0.1,0.3-0.1,0.4c-0.1,0.1-0.2,0.2-0.4,0.2c-0.2,0.1-0.5,0.1-0.9,0.1c-0.4,0-1,0.1-1.7,0.1
					c-1.5,0.1-2.6,0.1-3.2,0.1c-0.6,0-0.9-0.1-0.9-0.2c0,0,0-0.1,0-0.3c0.6-3.1,1.3-6.2,2-9.2c0.7-3,1.4-6,2.3-9.1
					c0-0.1,0.1-0.2,0.2-0.2c0.1-0.1,0.3-0.1,0.5-0.1c0.2,0,0.6-0.1,1-0.1c0.4,0,1,0,1.7-0.1c1,0,1.8,0,2.4-0.1c0.6,0,1.1,0,1.5,0
					c0.4,0,0.6,0.1,0.8,0.1C242.3,387.2,242.4,387.2,242.4,387.3z M238.9,400.1c0.1,0,0.2,0,0.4,0.1c0.1,0.1,0.3,0.3,0.6,0.7
					c-0.2-0.9-0.4-1.8-0.6-2.6c-0.2-0.9-0.5-1.7-0.8-2.6c-0.3,0.9-0.5,1.8-0.7,2.7c-0.2,0.9-0.3,1.8-0.5,2.8
					c0.5-0.4,0.9-0.7,1.1-0.8C238.5,400.2,238.7,400.1,238.9,400.1z"/>
				<path class="st22" d="M263.1,386.8c-0.6,1.7-1.3,3.3-2,4.8c-0.7,1.5-1.5,3-2.4,4.4c0.9,1.4,1.7,2.8,2.4,4.3c0.7,1.5,1.4,3,2,4.6
					c0,0.1-0.2,0.2-0.6,0.3c-0.4,0.1-0.9,0.2-1.5,0.3c-0.6,0.1-1.1,0.2-1.7,0.2c-0.6,0.1-1,0.1-1.3,0.1l-0.8,0c-0.1,0-0.3,0-0.4,0
					c-0.1,0-0.2-0.1-0.3-0.3c-0.2-0.6-0.4-1.2-0.6-1.8c-0.2-0.7-0.5-1.2-0.7-1.6c-0.2,0.5-0.4,1.1-0.6,1.8c-0.2,0.7-0.3,1.3-0.4,1.9
					c0,0.2-0.1,0.3-0.3,0.3c-0.2,0-0.5,0-0.9,0c-0.4,0-0.8,0-1.2,0c-0.4,0-0.9,0-1.4,0c-0.5,0-0.9,0-1.3-0.1c-0.4,0-0.7-0.1-0.9-0.2
					c-0.2-0.1-0.4-0.1-0.4-0.2c0.5-1.7,1-3.2,1.7-4.8c0.6-1.5,1.3-3,2.1-4.4c-1-1.4-1.9-2.7-2.7-4.2c-0.8-1.4-1.5-2.9-2.2-4.3
					c-0.1-0.1-0.1-0.3-0.1-0.4c0-0.2,0.1-0.4,0.4-0.4c0.8-0.1,1.7-0.2,2.6-0.3c1-0.1,2-0.1,2.9-0.2c0.2,0,0.4,0,0.5,0
					c0.2,0,0.3,0.1,0.3,0.1c0.2,0.8,0.5,1.6,0.8,2.4c0.3,0.8,0.7,1.5,1.1,2.3c0.3-0.8,0.7-1.5,0.9-2.3c0.3-0.8,0.5-1.6,0.7-2.5
					c0-0.1,0.1-0.1,0.2-0.1c0.1,0,0.3,0,0.5,0l0.7,0c1.1,0,1.9-0.1,2.5-0.1c0.6,0,1.1,0,1.4,0c0.3,0,0.6,0.1,0.7,0.1
					c0.1,0.1,0.2,0.1,0.2,0.2l0,0.1C263.1,386.7,263.1,386.7,263.1,386.8C263.1,386.8,263.1,386.8,263.1,386.8z"/>
				<path class="st22" d="M273,386.2c0,0.2,0,0.5,0,0.9c0,0.4,0,0.9,0,1.7c0,0.8,0,1.9,0,3.4c0,1.4,0,3.4,0.1,5.8
					c0,1.5,0,2.8,0.1,3.9c0,1.1,0,1.9,0.1,2.6c0,0.2,0,0.4-0.2,0.4c-0.1,0-0.2,0.1-0.3,0.1c-0.4,0-0.7,0.1-1.1,0.1
					c-0.4,0-0.7,0-1.1,0c-0.7,0-1.4,0-2.1,0c-0.7,0-1.4,0-1.9,0c-0.2,0-0.4-0.1-0.5-0.2c-0.1-0.1-0.1-0.3-0.2-0.6
					c-0.3-2.7-0.5-5.5-0.8-8.5c-0.2-3-0.4-6-0.5-9.1c0-0.1,0-0.3,0.1-0.3c0.1-0.1,0.2-0.2,0.5-0.2c0.3,0,0.7-0.1,1.2-0.1
					c0.5,0,1-0.1,1.6-0.1c0.8,0,1.6,0,2.4,0c0.8,0,1.5,0,2.3,0.1c0.2,0,0.3,0.1,0.3,0.1C272.9,386,273,386.1,273,386.2z"/>
			</g>
		</g>
	</g>
	<g class="st0">
		<rect x="608.3" y="-10.9" class="st23" width="370.8" height="414.3"/>
		<g>
			<path class="st24" d="M707.5,210.1c0-7-5.1-12.7-11.5-12.7h-99.4c-5.3,0-9.5,5.9-9.5,13.2v50.5c0,7.7,4.5,14,10.1,14H696
				c6.3,0,11.5-5.7,11.5-12.7V210.1z"/>
			<path class="st24" d="M957.6,210.1c0-7-5.1-12.7-11.5-12.7h-99.4c-5.3,0-9.5,5.9-9.5,13.2v50.5c0,7.7,4.5,14,10.1,14h98.8
				c6.3,0,11.5-5.7,11.5-12.7V210.1z"/>
			<path class="st24" d="M988.9,210.1c0-7-5.1-12.7-11.5-12.7h-5.9c-5.3,0-9.5,5.9-9.5,13.2v50.5c0,7.7,4.5,14,10.1,14h5.4
				c6.3,0,11.5-5.7,11.5-12.7V210.1z"/>
			<path class="st24" d="M832.8,210.1c0-7-5.1-12.7-11.5-12.7h-99.4c-5.3,0-9.5,5.9-9.5,13.2v50.5c0,7.7,4.5,14,10.1,14h98.8
				c6.3,0,11.5-5.7,11.5-12.7V210.1z"/>
			<path class="st24" d="M652.5,152.1c0-7-5.1-12.6-11.5-12.6h-36.5c-4.1,0-7.5,4.2-7.5,9.3v35.6c0,5.4,3.5,9.9,7.9,9.9h36
				c6.3,0,11.5-5.7,11.5-12.6V152.1z"/>
			<path class="st24" d="M713.5,152.1c0-7-5.1-12.6-11.5-12.6h-36.5c-4.1,0-7.5,4.2-7.5,9.3v35.6c0,5.4,3.5,9.9,7.9,9.9h36
				c6.3,0,11.5-5.7,11.5-12.6V152.1z"/>
			<path class="st24" d="M929.6,181.6c0,7,5.1,12.6,11.5,12.6h36.5c4.1,0,7.5-4.2,7.5-9.3v-35.6c0-5.4-3.5-9.9-7.9-9.9h-36
				c-6.3,0-11.5,5.7-11.5,12.6V181.6z"/>
			<path class="st24" d="M789.8,75.1c0-10.4-9.9-18.9-22-18.9h-70.1c-7.9,0-14.4,6.2-14.4,13.9v53.2c0,8.1,6.8,14.7,15.2,14.7h69.2
				c12.2,0,22-8.5,22-18.9V75.1z"/>
			<path class="st24" d="M900.1,75.1c0-10.4-9.9-18.9-22.1-18.9h-70.1c-7.9,0-14.4,6.2-14.4,13.9v53.2c0,8.1,6.8,14.7,15.2,14.7H878
				c12.2,0,22.1-8.5,22.1-18.9V75.1z"/>
			<path class="st24" d="M989.5,75c0-9.8-9.9-17.8-22.1-17.8l-49.3-1c-7.9,0-14.4,5.9-14.4,13.1v50.2c0,7.7,6.8,13.9,15.2,13.9
				l48.4,1c12.2,0,22.1-8,22.1-17.8V75z"/>
			<path class="st24" d="M678.4,69.4c0-7-5.1-12.6-11.5-12.6h-61.1c-4.4,0-8,6-8,13.4v51.3c0,7.8,3.8,14.2,8.5,14.2h60.6
				c6.3,0,11.5-5.7,11.5-12.6V69.4z"/>
			<path class="st24" d="M646.4,291.2c0-7.2-6.7-13.1-15-13.1h-22.5c-5.3,0-9.5,3.7-9.5,8.3V318c0,4.8,4.5,8.8,10.1,8.8h25.4
				c6.3,0,11.5-4.5,11.5-10V291.2z"/>
			<path class="st24" d="M733.5,291.2c0-7.2-11.6-13.1-26-13.1h-38.8c-9.1,0-16.4,3.7-16.4,8.3V318c0,4.8,7.8,8.8,17.4,8.8h44
				c11,0,19.8-4.5,19.8-10V291.2z"/>
			<path class="st24" d="M784.1,291.2c0-7.2-6.4-13.1-14.2-13.1h-21.3c-5,0-9,3.7-9,8.3V318c0,4.8,4.3,8.8,9.5,8.8h24.1
				c6,0,10.9-4.5,10.9-10V291.2z"/>
			<path class="st24" d="M920.7,291.2c0-7.2-3-13.1-10.9-13.1h-14.9c-5,0-9,3.7-9,8.3V318c0,4.8,4.3,8.8,9.5,8.8h17.7
				c6,0,7.5-4.5,7.5-10V291.2z"/>
			<path class="st24" d="M880.9,291.2c0-7.2-6.4-13.1-14.2-13.1h-70c-5,0-9,3.7-9,8.3V318c0,4.8,4.3,8.8,9.5,8.8h72.8
				c6,0,10.9-4.5,10.9-10V291.2z"/>
			<path class="st24" d="M994,291.2c0-7.2-6.4-13.1-14.2-13.1h-44.5c-5,0-9,3.7-9,8.3V318c0,4.8,4.3,8.8,9.5,8.8h47.3
				c6,0,10.9-4.5,10.9-10V291.2z"/>
			<path class="st24" d="M707.5-2.6c0-6-4.7-11-10.5-11h-91c-4.8,0-8.7,5.1-8.7,11.4v43.7c0,6.7,4.1,12.1,9.2,12.1h90.5
				c5.8,0,10.5-4.9,10.5-10.9V-2.6z"/>
			<path class="st24" d="M821.6-2.6c0-6-4.7-11-10.5-11h-91c-4.8,0-8.7,5.1-8.7,11.4v43.7c0,6.7,4.1,12.1,9.2,12.1h90.5
				c5.8,0,10.5-4.9,10.5-10.9V-2.6z"/>
			<path class="st24" d="M936.9-2.6c0-6-4.7-11-10.5-11h-91c-4.8,0-8.7,5.1-8.7,11.4v43.7c0,6.7,4.1,12.1,9.2,12.1h90.5
				c5.8,0,10.5-4.9,10.5-10.9V-2.6z"/>
			<path class="st24" d="M985-2.6c0-6-4.7-11-10.5-11H949c-4.8,0-8.7,5.1-8.7,11.4v43.7c0,6.7,4.1,12.1,9.2,12.1h25
				c5.8,0,10.5-4.9,10.5-10.9V-2.6z"/>
			<path class="st24" d="M640.8,340.8c0-5.6-4.2-10.2-9.3-10.2h-28.2c-5.3,0-9.5,4.7-9.5,10.5v40.1c0,6.1,4.5,11.1,10.1,11.1h27.4
				c5.3,0,9.5-4.7,9.5-10.5V340.8z"/>
			<path class="st24" d="M750.3,340.8c0-5.7-2.4-10.2-13.7-10.2h-77.9c-11.6,0-12,4.7-12,10.5v40.1c0,6.1,1,11.1,13.2,11.1H736
				c11.6,0,14.3-4.7,14.3-10.5V340.8z"/>
			<path class="st24" d="M842.3,340.8c0-5.7-1.6-10.2-12.9-10.2h-62.2c-11.6,0-12,4.7-12,10.5v40.1c0,6.1,1,11.1,13.2,11.1h60.4
				c11.6,0,13.5-4.7,13.5-10.5V340.8z"/>
			<path class="st24" d="M934.7,340.8c0-5.7-1.6-10.2-12.9-10.2h-62.2c-11.6,0-12,4.7-12,10.5v40.1c0,6.1,1,11.1,13.2,11.1h60.4
				c11.6,0,13.5-4.7,13.5-10.5V340.8z"/>
			<path class="st24" d="M986.2,340.8c0-5.7-1.6-10.2-12.9-10.2h-21.9c-11.6,0-12,4.7-12,10.5v40.1c0,6.1,1,11.1,13.2,11.1h20.1
				c11.6,0,13.5-4.7,13.5-10.5V340.8z"/>
		</g>
		<g>
			<path class="st25" d="M707.5,207.6c0-7-5.1-12.7-11.5-12.7h-99.4c-5.3,0-9.5,5.9-9.5,13.2v50.5c0,7.7,4.5,14,10.1,14H696
				c6.3,0,11.5-5.7,11.5-12.7V207.6z"/>
			<path class="st26" d="M957.6,207.6c0-7-5.1-12.7-11.5-12.7h-99.4c-5.3,0-9.5,5.9-9.5,13.2v50.5c0,7.7,4.5,14,10.1,14h98.8
				c6.3,0,11.5-5.7,11.5-12.7V207.6z"/>
			<path class="st26" d="M988.9,207.6c0-7-5.1-12.7-11.5-12.7h-5.9c-5.3,0-9.5,5.9-9.5,13.2v50.5c0,7.7,4.5,14,10.1,14h5.4
				c6.3,0,11.5-5.7,11.5-12.7V207.6z"/>
			<path class="st27" d="M832.8,207.6c0-7-5.1-12.7-11.5-12.7h-99.4c-5.3,0-9.5,5.9-9.5,13.2v50.5c0,7.7,4.5,14,10.1,14h98.8
				c6.3,0,11.5-5.7,11.5-12.7V207.6z"/>
			<path class="st26" d="M652.5,149.7c0-7-5.1-12.6-11.5-12.6h-36.5c-4.1,0-7.5,4.2-7.5,9.3v35.6c0,5.4,3.5,9.9,7.9,9.9h36
				c6.3,0,11.5-5.7,11.5-12.6V149.7z"/>
			<path class="st27" d="M713.5,149.7c0-7-5.1-12.6-11.5-12.6h-36.5c-4.1,0-7.5,4.2-7.5,9.3v35.6c0,5.4,3.5,9.9,7.9,9.9h36
				c6.3,0,11.5-5.7,11.5-12.6V149.7z"/>
			<path class="st27" d="M817.7,149.7c0-7-9.1-12.6-20.3-12.6h-64.6c-7.3,0-13.3,4.2-13.3,9.3v35.6c0,5.4,6.3,9.9,14,9.9h63.8
				c11.2,0,20.3-5.7,20.3-12.6V149.7z"/>
			<path class="st27" d="M929.6,179.1c0,7,5.1,12.6,11.5,12.6h36.5c4.1,0,7.5-4.2,7.5-9.3v-35.6c0-5.4-3.5-9.9-7.9-9.9h-36
				c-6.3,0-11.5,5.7-11.5,12.6V179.1z"/>
			<path class="st27" d="M789.8,72.7c0-10.4-9.9-18.9-22-18.9h-70.1c-7.9,0-14.4,6.2-14.4,13.9v53.2c0,8.1,6.8,14.7,15.2,14.7
				l69.2,0c12.2,0,22-8.5,22-18.9V72.7z"/>
			<path class="st26" d="M900.1,72.7c0-10.4-9.9-18.9-22.1-18.9h-70.1c-7.9,0-14.4,6.2-14.4,13.9v53.2c0,8.1,6.8,14.7,15.2,14.7H878
				c12.2,0,22.1-8.5,22.1-18.9V72.7z"/>
			<path class="st25" d="M989.5,72.6c0-9.8-9.9-17.8-22.1-17.8l-49.3-1c-7.9,0-14.4,5.9-14.4,13.1v50.2c0,7.7,6.8,13.9,15.2,13.9
				l48.4,1c12.2,0,22.1-8,22.1-17.8V72.6z"/>
			<path class="st27" d="M678.4,66.9c0-7-5.1-12.6-11.5-12.6h-61.1c-4.4,0-8,6-8,13.4V119c0,7.8,3.8,14.2,8.5,14.2h60.6
				c6.3,0,11.5-5.7,11.5-12.6V66.9z"/>
			<path class="st27" d="M646.4,288.7c0-7.2-6.7-13.1-15-13.1h-22.5c-5.3,0-9.5,3.7-9.5,8.3v31.7c0,4.8,4.5,8.8,10.1,8.8h25.4
				c6.3,0,11.5-4.5,11.5-10V288.7z"/>
			<path class="st25" d="M733.5,288.7c0-7.2-11.6-13.1-26-13.1h-38.8c-9.1,0-16.4,3.7-16.4,8.3v31.7c0,4.8,7.8,8.8,17.4,8.8h44
				c11,0,19.8-4.5,19.8-10V288.7z"/>
			<path class="st26" d="M784.1,288.7c0-7.2-6.4-13.1-14.2-13.1h-21.3c-5,0-9,3.7-9,8.3v31.7c0,4.8,4.3,8.8,9.5,8.8h24.1
				c6,0,10.9-4.5,10.9-10V288.7z"/>
			<path class="st26" d="M920.7,288.7c0-7.2-3-13.1-10.9-13.1h-14.9c-5,0-9,3.7-9,8.3v31.7c0,4.8,4.3,8.8,9.5,8.8h17.7
				c6,0,7.5-4.5,7.5-10V288.7z"/>
			<path class="st25" d="M880.9,288.7c0-7.2-6.4-13.1-14.2-13.1h-70c-5,0-9,3.7-9,8.3v31.7c0,4.8,4.3,8.8,9.5,8.8h72.8
				c6,0,10.9-4.5,10.9-10V288.7z"/>
			<path class="st27" d="M994,288.7c0-7.2-6.4-13.1-14.2-13.1h-44.5c-5,0-9,3.7-9,8.3v31.7c0,4.8,4.3,8.8,9.5,8.8h47.3
				c6,0,10.9-4.5,10.9-10V288.7z"/>
			<path class="st25" d="M707.5-5c0-6-4.7-11-10.5-11h-91c-4.8,0-8.7,5.1-8.7,11.4v43.7c0,6.7,4.1,12.1,9.2,12.1h90.5
				c5.8,0,10.5-4.9,10.5-10.9V-5z"/>
			<path class="st26" d="M821.6-5c0-6-4.7-11-10.5-11h-91c-4.8,0-8.7,5.1-8.7,11.4v43.7c0,6.7,4.1,12.1,9.2,12.1h90.5
				c5.8,0,10.5-4.9,10.5-10.9V-5z"/>
			<path class="st25" d="M936.9-5c0-6-4.7-11-10.5-11h-91c-4.8,0-8.7,5.1-8.7,11.4v43.7c0,6.7,4.1,12.1,9.2,12.1h90.5
				c5.8,0,10.5-4.9,10.5-10.9V-5z"/>
			<path class="st26" d="M985-5c0-6-4.7-11-10.5-11H949c-4.8,0-8.7,5.1-8.7,11.4v43.7c0,6.7,4.1,12.1,9.2,12.1h25
				c5.8,0,10.5-4.9,10.5-10.9V-5z"/>
			<path class="st26" d="M640.8,338.4c0-5.6-4.2-10.2-9.3-10.2h-28.2c-5.3,0-9.5,4.7-9.5,10.5v40.1c0,6.1,4.5,11.1,10.1,11.1h27.4
				c5.3,0,9.5-4.7,9.5-10.5V338.4z"/>
			<path class="st26" d="M750.3,338.4c0-5.6-2.4-10.2-13.7-10.2h-77.9c-11.6,0-12,4.7-12,10.5v40.1c0,6.1,1,11.1,13.2,11.1H736
				c11.6,0,14.3-4.7,14.3-10.5V338.4z"/>
			<path class="st27" d="M842.3,338.4c0-5.6-1.6-10.2-12.9-10.2h-62.2c-11.6,0-12,4.7-12,10.5v40.1c0,6.1,1,11.1,13.2,11.1h60.4
				c11.6,0,13.5-4.7,13.5-10.5V338.4z"/>
			<path class="st26" d="M934.7,338.4c0-5.6-1.6-10.2-12.9-10.2h-62.2c-11.6,0-12,4.7-12,10.5v40.1c0,6.1,1,11.1,13.2,11.1h60.4
				c11.6,0,13.5-4.7,13.5-10.5V338.4z"/>
			<path class="st25" d="M986.2,338.4c0-5.6-1.6-10.2-12.9-10.2h-21.9c-11.6,0-12,4.7-12,10.5v40.1c0,6.1,1,11.1,13.2,11.1h20.1
				c11.6,0,13.5-4.7,13.5-10.5V338.4z"/>
		</g>
		<rect x="605.9" y="393.2" class="st23" width="373.6" height="12.6"/>
		<path class="st28" d="M979.4,396.7H602.2c-5.9,0-10.7,4.8-10.7,10.6v52h387.9V396.7z"/>
		<path class="st29" d="M972.6,403.3h-364c-5.7,0-10.3,4.3-10.3,9.5v46.6h374.3V403.3z"/>
		<g>
			<path class="st28" d="M635.3,396.7h-33.1c-5.9,0-10.7,4.8-10.7,10.6v52h43.8V396.7z"/>
			<rect x="935.5" y="396.7" class="st28" width="43.9" height="62.7"/>
		</g>
		<g class="st30">
			<polygon class="st31" points="705,350.3 704.7,351.3 705,350 705,350.3 705,350.3 			"/>
			<polygon class="st31" points="704.7,351.5 704.6,351.7 704.8,351 704.7,351.5 704.7,351.5 			"/>
			<polygon class="st31" points="723.3,231.9 724.8,231.1 725.2,231.8 723.3,231.9 723.3,231.9 			"/>
			<polygon class="st31" points="639.6,346.3 639.8,346.2 640,346.9 639.8,347 639.6,346.3 639.6,346.3 			"/>
			<polygon class="st31" points="718.7,234.9 718.6,234.2 719.7,234.6 718.7,234.9 718.7,234.9 			"/>
			<polygon class="st31" points="640.9,356.7 640.1,357.1 640.2,353.1 640.9,356.7 640.9,356.7 			"/>
			<polygon class="st31" points="707.6,224.7 709,222.5 710.5,224.4 707.6,224.7 707.6,224.7 			"/>
			<polygon class="st31" points="720.6,311.1 720.9,311.3 715.4,307.4 721.4,311 720.6,311.1 720.6,311.1 			"/>
			<polygon class="st31" points="728.6,367.1 728,367.4 725.9,363.9 732.2,362.7 733.2,368.3 728.6,367.1 728.6,367.1 			"/>
			<polygon class="st31" points="715.6,302.8 716.1,301.4 715.6,302.8 715.6,302.8 			"/>
			<polygon class="st31" points="712.2,307 712.2,306 713.6,307.2 712.2,307 712.2,307 			"/>
			<polygon class="st32" points="712.6,306.5 713,306.7 712.6,306.5 712.6,306.5 			"/>
			<polygon class="st31" points="711,310.3 711.1,310.2 711,310.3 711.2,310.6 711,310.3 711,310.3 			"/>
			<polygon class="st31" points="696.2,270.9 697.1,270.3 696.9,271 696.2,270.9 696.2,270.9 			"/>
			<polygon class="st31" points="690.6,268.3 689.3,266.6 695.2,268 690.6,268.3 690.6,268.3 			"/>
			<polygon class="st31" points="680.4,273.2 679.4,274.4 680.1,275.4 673.6,274 678.1,270.3 677.8,270.9 680.7,272.7 680.4,273.2 
				680.4,273.2 			"/>
			<polygon class="st31" points="671.5,259.2 676.2,257.8 671.5,259.2 671.5,259.2 			"/>
			<polygon class="st32" points="672.7,258.7 672.9,257.5 673.8,258.5 673,257.7 672.7,258.7 672.7,258.7 			"/>
			<polygon class="st31" points="666.5,412.5 666.4,413.7 657.8,404.6 666.5,412.5 			"/>
			<polygon class="st31" points="666.1,257.4 666.8,257.7 666.4,258.1 666.1,257.4 666.1,257.4 			"/>
			<polygon class="st31" points="659.7,259.1 658.4,258.6 658.6,256.9 662.5,256.3 662.6,255.9 662.2,256.6 663.3,256.7 
				659.7,259.1 659.7,259.1 			"/>
			<polygon class="st32" points="660.4,257.4 661.5,257.3 660.4,257.4 660.4,257.4 			"/>
			<polygon class="st31" points="654.9,257.2 651.4,259.9 649.9,258.5 655.5,255.6 654.9,257.2 654.9,257.2 			"/>
			<polygon class="st32" points="653.6,258.1 653.3,257.9 653.4,257.8 653.6,258.1 			"/>
			<polygon class="st31" points="609.5,229.7 608.6,229.4 615.5,222.3 609.5,229.7 609.5,229.7 			"/>
			<polygon class="st31" points="610.6,300.4 609.9,301.4 608.6,296.6 609,296.9 609.9,295.6 610.6,300.4 610.6,300.4 			"/>
			<polygon class="st32" points="616.6,275.2 616.8,273.9 616.6,275.2 616.6,275.2 			"/>
			<polygon class="st31" points="609.1,327.7 609.6,328.1 609.6,326.9 610.3,334.3 607.7,329 608,329.1 609.2,326.5 609.1,327.7 
				609.1,327.7 			"/>
			<polygon class="st31" points="605.5,350.2 605.5,354 602.9,349.8 605.5,350.2 			"/>
			<polygon class="st31" points="601.1,356.8 602.1,356.3 601.7,357.7 601,355.1 601.1,356.8 601.1,356.8 			"/>
			<polygon class="st31" points="726.2,310.9 728,310.5 726.2,310.9 726.2,310.9 			"/>
			<polygon class="st31" points="606.8,375.1 607,379.2 603.8,375.3 606.8,375.1 			"/>
			<polygon class="st31" points="621.7,416.6 626,422.8 620.5,420.1 620.8,420.1 620.1,417.3 621.7,416.6 			"/>
			<polygon class="st31" points="679.4,343.9 679.6,343.9 679.5,344 679.6,344.3 679.2,344.5 679.5,343.7 679.4,343.9 679.4,343.9 
							"/>
			<polygon class="st31" points="619.1,431.3 619.7,430.6 624,437.5 617.3,434.7 617.8,434.5 617.1,431.9 617.4,432 616.8,430.5 
				619.1,431.3 			"/>
			<polygon class="st31" points="680.8,346.2 679.5,346.2 679.2,345 679.9,344.9 679.5,346 680.5,345.6 680.1,344.3 680.3,344.3 
				680.2,343.4 680.8,346.2 680.8,346.2 			"/>
			<polygon class="st31" points="677.2,374.8 676.8,375.8 677.2,374.8 			"/>
			<polygon class="st31" points="655.5,434.2 655.5,434.8 654.5,434.7 654.5,433.3 655.5,434.2 			"/>
			<polygon class="st31" points="691.8,379.7 691.9,379.7 691.6,380.4 691.8,379.7 691.8,379.7 			"/>
			<polygon class="st31" points="692.2,380.5 692,381.2 692.7,380.4 692.7,380.7 693.2,379.8 692.1,380.1 692.1,379.9 693.7,380.3 
				693.5,381.5 691.7,380.7 692.2,380.5 			"/>
			<polygon class="st32" points="692.5,381.6 692.9,381 692.5,381.6 692.5,381.6 			"/>
			<polygon class="st31" points="714.9,452 716.1,454.6 710.2,456.2 711.1,455.6 708.4,455.1 709.4,454.5 708.1,453.8 714.9,452 			
				"/>
			<polygon class="st31" points="696.6,403.7 699.6,404.8 696.3,406.6 696.6,403.7 			"/>
			<polygon class="st32" points="698.2,404.3 697.4,404 698.1,403.6 698,405.6 696.4,405.7 698.2,404.3 			"/>
			<polygon class="st31" points="698.1,405.1 697.4,405.8 697.5,405.5 697.7,405.5 697.4,404.8 698.1,405.1 			"/>
			<polygon class="st31" points="700.3,459.2 700.6,460.5 696.3,460.9 698.5,460.4 696.1,459.4 700.3,459.2 			"/>
			<polygon class="st31" points="703.4,396.2 702.9,397.7 702.9,397 702.3,398 701.8,397.7 702.2,397.7 702.2,397.3 702.4,397.5 
				702.7,396.4 701.3,396.4 703.4,396.2 			"/>
			<polygon class="st31" points="779.8,420.2 778.5,423.2 778.2,420.1 777.5,423.9 776.1,416.9 774.9,417.7 773.2,411.4 
				772.7,412.5 775.4,390 787.2,411.1 786.8,409.9 786.1,410.6 787.6,413.6 785.2,412 785.3,415.6 784.8,414.4 781.4,424.6 
				779.8,420.2 779.8,420.2 			"/>
			<polygon class="st31" points="711.3,403.8 711.2,404.5 712.5,405 712.6,404.3 711.6,403.9 713.5,403.5 710.5,404.7 711.3,403.8 
							"/>
			<polygon class="st31" points="723.8,404.1 728.5,409.5 720.5,410.2 720.9,409.3 720,409 723.8,404.1 			"/>
			<polygon class="st31" points="731.7,280.3 732.1,280.3 730.7,281.8 731.6,282.3 731.8,282.1 730.8,283.4 731.1,283.6 
				723.5,286.3 718.7,276 727.8,270.2 726.7,271.4 728.5,271.2 727.5,271.9 728.1,272.5 727.4,273.1 728,273.8 727.3,274.4 
				730.8,276.2 730.2,276.8 731.5,277 731.1,277.8 732.7,277.9 731.7,280.3 731.7,280.3 			"/>
			<polygon class="st32" points="734.3,424 734.2,423.8 735.1,423.4 735.2,423.5 734.3,424 734.3,424 			"/>
			<polygon class="st31" points="776.6,342.5 774.5,340.2 774.3,340.4 774.4,332.6 781.9,340.1 781.3,339.7 780.9,341.6 
				780.2,341.3 779.6,342.6 779,342.2 778.7,343.1 776.6,342.5 776.6,342.5 			"/>
			<polygon class="st32" points="787.5,341.1 787.5,343.2 787.5,341.1 787.5,341.1 			"/>
			<polygon class="st32" points="810.5,273.7 810.3,273.8 809.4,271.8 809.6,271.7 810.5,273.7 			"/>
			<polygon class="st31" points="751.5,250.3 745.4,249.9 745.9,247.4 752.1,250.5 751.5,250.3 751.5,250.3 			"/>
			<polygon class="st31" points="740.4,251.3 741.3,250.4 742.3,251.6 740.4,251.3 740.4,251.3 			"/>
			<polygon class="st31" points="801.9,240.8 797.8,235.4 802.3,239.1 801.5,240 801.9,240.8 			"/>
			<polygon class="st32" points="800,238 799.6,237.2 801.4,239.4 800,238 800,238 			"/>
			<polygon class="st31" points="714.2,226.2 713.7,227.7 714.3,228 710,229.4 711.1,231.1 685.8,228.2 708.5,216.2 708.1,218.3 
				711.1,216.9 711.7,219.6 715.2,218.8 713.2,220.9 716.4,221.3 714.4,222.6 717.9,223.5 714.2,226.2 714.2,226.2 			"/>
			<polygon class="st31" points="644.2,241.8 644.9,241.4 630.4,266.9 630.6,265.7 625.2,266.4 628.2,249.9 629.2,250.2 
				631.5,245.2 631.7,246 633.8,242.9 634.2,243.3 635.4,241.8 635.3,242.4 638.4,238.9 638.9,240.4 641.7,238.4 641.8,240.6 
				644.5,237.3 644.2,241.8 644.2,241.8 			"/>
			<polygon class="st31" points="716.1,320.8 714.9,319.1 716.1,320.8 			"/>
			<polygon class="st31" points="644.6,270 642.1,272.1 642.9,268.6 643.9,269.5 644,268.3 644.6,270 			"/>
			<polygon class="st31" points="647.8,337.4 648.6,334.5 650,335.6 649.8,332.8 651.5,337.2 651.7,335.7 653,338.8 653.3,336.7 
				656.1,341.2 656.8,339.5 680.8,379.3 678.8,378.8 680.7,381.4 678.1,380.1 677.6,382.2 678.1,382.5 675.2,383.6 675.8,385.9 
				671.8,383.3 671.1,385.6 643.2,359.8 645.6,358.3 642.8,350.3 644,349.7 642.3,346 643.8,346.9 643,337.3 645.5,339.6 
				644.4,334.4 645.9,336.6 645.7,332 647.8,337.4 			"/>
			<polygon class="st31" points="814,280.7 812.8,283.4 811.6,282 811.3,284.8 810.3,280.1 810,281.5 809.2,278.2 808.5,280.2 
				806.5,275.2 805.6,276.7 788.6,232.8 790.6,233.6 789.1,230.7 791.4,232.5 792.3,230.6 791.8,230.1 794.9,229.7 794.7,227.3 
				798.2,230.6 799.3,228.6 822.3,259.6 819.7,260.6 821.1,269 819.8,269.3 820.9,273.3 819.6,272.2 818.7,281.7 816.7,278.9 
				816.9,284.2 815.7,281.8 815.2,286.3 814,280.7 814,280.7 			"/>
			<polygon class="st31" points="756.4,305 756.4,302.1 760.4,302.8 756.4,305 756.4,305 			"/>
			<polygon class="st31" points="756.6,299.1 755.7,298.4 756.6,299.1 			"/>
			<polygon class="st31" points="753.7,297.1 755.1,297.8 754.9,298 755.3,298.2 754.9,298.5 753.7,297.1 753.7,297.1 			"/>
			<polygon class="st31" points="750.9,297.1 751,297.5 750.2,297.3 750.4,298.3 744.3,294.2 749.6,286.5 749.7,287.5 751.3,285.8 
				757.5,289.7 754.9,292.2 755.6,292.3 753.8,294.1 756.4,294.4 750.9,297.1 750.9,297.1 			"/>
			<polygon class="st31" points="753,296.8 752.2,296.5 753,296.8 			"/>
			<polygon class="st31" points="753.1,282.8 753.2,283 752.8,283.6 753.1,282.8 			"/>
		</g>
		<g class="st30">
			<polygon class="st31" points="685.8,74.2 686.2,73.3 685.6,74.5 685.8,74.2 685.8,74.2 			"/>
			<polygon class="st31" points="686.3,73.1 686.4,72.9 686.1,73.6 686.3,73.1 686.3,73.1 			"/>
			<polygon class="st31" points="640.8,185.3 639.1,185.7 638.9,184.9 640.8,185.3 640.8,185.3 			"/>
			<polygon class="st31" points="748.5,93 748.2,93.1 748.2,92.4 748.4,92.3 748.5,93 748.5,93 			"/>
			<polygon class="st31" points="646,183.4 645.9,184.1 644.9,183.5 646,183.4 646,183.4 			"/>
			<polygon class="st31" points="749.6,82.6 750.4,82.4 749.5,86.4 749.6,82.6 749.6,82.6 			"/>
			<polygon class="st31" points="654.4,195.8 652.6,197.7 651.6,195.5 654.4,195.8 654.4,195.8 			"/>
			<polygon class="st31" points="661.6,108.8 661.3,108.6 665.7,113.6 660.8,108.7 661.6,108.8 661.6,108.8 			"/>
			<polygon class="st31" points="666.6,52.4 667.2,52.3 668.4,56.2 662.1,55.9 662.4,50.2 666.6,52.4 666.6,52.4 			"/>
			<polygon class="st31" points="664.5,118 663.7,119.3 664.5,118 664.5,118 			"/>
			<polygon class="st31" points="668.8,114.7 668.6,115.7 667.5,114.2 668.8,114.7 668.8,114.7 			"/>
			<polygon class="st32" points="668.2,115.1 668,114.8 668.2,115.1 668.2,115.1 			"/>
			<polygon class="st31" points="670.7,111.8 670.6,111.9 670.7,111.8 670.6,111.5 670.7,111.8 670.7,111.8 			"/>
			<polygon class="st31" points="676.1,153.6 675.1,153.9 675.5,153.3 676.1,153.6 676.1,153.6 			"/>
			<polygon class="st31" points="680.9,157.3 681.9,159.3 676.4,156.6 680.9,157.3 680.9,157.3 			"/>
			<polygon class="st31" points="692.1,154.9 693.3,154 692.8,152.8 698.8,155.6 693.6,158.3 694,157.8 691.6,155.3 692.1,154.9 
				692.1,154.9 			"/>
			<polygon class="st31" points="697.5,170.6 692.6,170.8 697.5,170.6 697.5,170.6 			"/>
			<polygon class="st32" points="696.2,170.8 695.7,171.9 695,170.7 695.7,171.7 696.2,170.8 696.2,170.8 			"/>
			<polygon class="st31" points="737.4,22.5 737.8,21.4 744,32.1 737.4,22.5 			"/>
			<polygon class="st31" points="702.3,173.5 701.7,173.1 702.2,172.8 702.3,173.5 702.3,173.5 			"/>
			<polygon class="st31" points="709,173.3 710.1,174.1 709.5,175.8 705.5,175.5 705.4,175.8 705.9,175.2 704.9,174.9 709,173.3 
				709,173.3 			"/>
			<polygon class="st32" points="707.9,174.9 706.8,174.7 707.9,174.9 707.9,174.9 			"/>
			<polygon class="st31" points="713.2,176.3 717.2,174.5 718.3,176.2 712.2,177.8 713.2,176.3 713.2,176.3 			"/>
			<polygon class="st32" points="714.7,175.7 714.9,175.9 714.8,176 714.7,175.7 			"/>
			<polygon class="st31" points="751,213.5 751.9,214 743.5,219.3 751,213.5 751,213.5 			"/>
			<polygon class="st31" points="766.2,144.4 767.1,143.6 767.3,148.5 766.9,148.1 765.8,149.2 766.2,144.4 766.2,144.4 			"/>
			<polygon class="st32" points="754.6,167.6 754.1,168.7 754.6,167.6 754.6,167.6 			"/>
			<polygon class="st31" points="773.9,118.2 773.5,117.7 773.2,118.8 774.2,111.5 775.6,117.2 775.3,117 773.5,119.3 773.9,118.2 
				773.9,118.2 			"/>
			<polygon class="st31" points="782.5,97.1 783.4,93.4 785,98.1 782.5,97.1 			"/>
			<polygon class="st31" points="788.3,91.6 787.2,91.9 787.9,90.7 788,93.4 788.3,91.6 788.3,91.6 			"/>
			<polygon class="st31" points="656,107.7 654.2,107.7 656,107.7 656,107.7 			"/>
			<polygon class="st31" points="787,72.6 787.7,68.5 789.9,73.1 787,72.6 			"/>
			<polygon class="st31" points="781.9,28.7 779.2,21.7 783.9,25.6 783.6,25.5 783.7,28.4 781.9,28.7 			"/>
			<polygon class="st31" points="709.2,86.3 709,86.2 709.1,86.1 709.1,85.8 709.5,85.8 709,86.5 709.2,86.3 709.2,86.3 			"/>
			<polygon class="st31" points="787.9,15.1 787.1,15.6 784.5,7.9 790.4,12.1 789.8,12.1 789.9,14.9 789.6,14.8 789.9,16.3 
				787.9,15.1 			"/>
			<polygon class="st31" points="708.3,83.7 709.6,84 709.6,85.3 708.9,85.2 709.6,84.2 708.5,84.4 708.6,85.8 708.4,85.7 
				708.3,86.6 708.3,83.7 708.3,83.7 			"/>
			<polygon class="st31" points="718.4,56.7 719,55.9 718.4,56.7 			"/>
			<polygon class="st31" points="753.1,3.9 753.3,3.3 754.2,3.6 753.8,5 753.1,3.9 			"/>
			<polygon class="st31" points="705.3,48.6 705.2,48.5 705.7,48 705.3,48.6 705.3,48.6 			"/>
			<polygon class="st31" points="705.1,47.7 705.4,47.1 704.5,47.7 704.6,47.4 704,48.2 705.1,48.1 705.1,48.4 703.5,47.6 704,46.4 
				705.6,47.6 705.1,47.7 			"/>
			<polygon class="st32" points="705.1,46.6 704.5,47.1 705.1,46.6 705.1,46.6 			"/>
			<polygon class="st31" points="699.4,-27 698.7,-29.9 704.9,-30.1 703.8,-29.7 706.3,-28.6 705.3,-28.2 706.4,-27.3 699.4,-27 			
				"/>
			<polygon class="st31" points="706.1,24.2 703.4,22.4 707.1,21.4 706.1,24.2 			"/>
			<polygon class="st32" points="704.7,23.2 705.4,23.7 704.6,23.9 705.1,22 706.7,22.3 704.7,23.2 			"/>
			<polygon class="st31" points="705,22.4 705.8,21.9 705.7,22.2 705.5,22.1 705.5,22.9 705,22.4 			"/>
			<polygon class="st31" points="715.2,-30.7 715.2,-32 719.5,-31.5 717.2,-31.5 719.4,-30 715.2,-30.7 			"/>
			<polygon class="st31" points="697.7,29.9 698.6,28.6 698.4,29.2 699.2,28.4 699.7,28.8 699.3,28.7 699.2,29.1 699.1,28.9 
				698.5,29.8 699.8,30.2 697.7,29.9 			"/>
			<polygon class="st31" points="628.9,-11 630.9,-13.6 630.4,-10.5 632,-14.1 631.8,-6.9 633.1,-7.4 633.3,-0.9 634,-1.8 
				626.3,19.4 619.6,-3.8 619.7,-2.5 620.6,-3 619.8,-6.3 621.8,-4.2 622.5,-7.8 622.7,-6.5 628.4,-15.6 628.9,-11 628.9,-11 			"/>
			<polygon class="st31" points="691.8,20.7 692.1,20 691,19.2 690.7,19.9 691.5,20.5 689.6,20.4 692.8,20 691.8,20.7 			"/>
			<polygon class="st31" points="679.8,17.5 676.3,11.2 684.3,12.4 683.7,13.2 684.6,13.6 679.8,17.5 			"/>
			<polygon class="st31" points="643.7,136.3 643.3,136.2 645,135 644.3,134.3 644.1,134.5 645.2,133.5 645,133.2 653,132.3 
				655.4,143.4 645.2,146.9 646.6,146 644.7,145.8 645.9,145.4 645.4,144.6 646.2,144.2 645.8,143.4 646.7,143 643.6,140.4 
				644.4,140 643.1,139.4 643.7,138.8 642.2,138.3 643.7,136.3 643.7,136.3 			"/>
			<polygon class="st32" points="674,-4.2 674.1,-4 673.1,-3.8 673.1,-4 674,-4.2 674,-4.2 			"/>
			<polygon class="st31" points="614.2,65.4 615.7,68.1 615.9,68 614.1,75.6 608.5,66.5 609,67.1 609.9,65.3 610.4,65.7 611.3,64.6 
				611.9,65.1 612.3,64.4 614.2,65.4 614.2,65.4 			"/>
			<polygon class="st32" points="603.3,64.3 603.8,62.3 603.3,64.3 603.3,64.3 			"/>
			<polygon class="st31" points="617.6,160.9 623.4,162.7 622.4,165 617,160.6 617.6,160.9 617.6,160.9 			"/>
			<polygon class="st31" points="628.6,162.5 627.5,163.2 626.8,161.7 628.6,162.5 628.6,162.5 			"/>
			<polygon class="st31" points="648.4,192.9 649.2,191.5 648.7,191.1 653.2,190.7 652.5,188.9 676.5,197.5 651.6,204 652.5,202 
				649.3,202.7 649.3,199.9 645.7,199.9 648.1,198.3 645.1,197.2 647.4,196.3 644.2,194.7 648.4,192.9 648.4,192.9 			"/>
			<polygon class="st31" points="720.1,193.8 719.3,194 739.2,172.4 738.7,173.6 744.2,174.1 737.5,189.5 736.5,189 733.2,193.4 
				733.2,192.5 730.4,195 730.2,194.6 728.6,195.7 728.8,195.2 725.1,197.8 724.9,196.3 721.7,197.6 722.1,195.5 718.7,198.1 
				720.1,193.8 720.1,193.8 			"/>
			<polygon class="st31" points="668.1,100.4 668.9,102.3 668.1,100.4 			"/>
			<polygon class="st31" points="726.2,166.2 729,164.7 727.5,168 726.6,166.9 726.3,168 726.2,166.2 			"/>
			<polygon class="st31" points="738.4,99.9 737,102.5 735.9,101.1 735.5,103.9 734.7,99.2 734.3,100.6 733.7,97.3 732.9,99.3 
				731.3,94.3 730.2,95.7 715.9,51.6 717.8,52.4 716.5,49.4 718.7,51.3 719.7,49.4 719.2,49 722.4,48.6 722.3,46.3 725.6,49.6 
				726.8,47.6 748,79.1 745.3,80 746.3,88.5 744.9,88.8 745.8,92.7 744.5,91.6 743,101 741.2,98.2 741.1,103.5 740.1,101.1 
				739.3,105.6 738.4,99.9 			"/>
			<polygon class="st31" points="625.3,106.6 624.7,109.3 620.9,107.8 625.3,106.6 625.3,106.6 			"/>
			<polygon class="st31" points="623.7,112.2 624.5,113.1 623.7,112.2 			"/>
			<polygon class="st31" points="626.2,114.8 625,113.8 625.2,113.7 624.8,113.4 625.3,113.2 626.2,114.8 626.2,114.8 			"/>
			<polygon class="st31" points="628.8,115.5 628.9,115.1 629.6,115.4 629.7,114.5 634.6,119.8 627.7,126.1 627.8,125.1 
				625.9,126.4 620.8,121.2 623.9,119.3 623.2,119.1 625.4,117.7 622.9,116.8 628.8,115.5 628.8,115.5 			"/>
			<polygon class="st31" points="626.7,115.3 627.4,115.8 626.7,115.3 			"/>
			<polygon class="st31" points="623.5,128.9 623.3,128.7 623.9,128.2 623.5,128.9 			"/>
		</g>
		<g>
			<rect x="690.9" y="137.6" class="st23" width="83.1" height="175.6"/>
			<path class="st23" d="M690.9,129.6H774C774,87.2,690.9,87.2,690.9,129.6z"/>
			<rect x="697" y="150.6" class="st33" width="70.8" height="140.3"/>
			<rect x="701.5" y="156.9" class="st34" width="61.9" height="127.8"/>
			<rect x="691.3" y="206" class="st23" width="79.1" height="5.4"/>
			<rect x="729.7" y="140.9" class="st23" width="5.4" height="166.6"/>
			<path class="st35" d="M702.3,124.2h60.3C762.6,96.2,702.3,96.2,702.3,124.2z"/>
			<rect x="696.2" y="297.2" class="st35" width="71.7" height="9.3"/>
		</g>
	</g>
	<path class="st36" d="M743.3,460.3c0,1.3-136,5.8-303.7,5.8c-167.7,0-303.7-4.5-303.7-5.8c0-1.3,136-2.4,303.7-2.4
		C607.4,457.9,743.3,459,743.3,460.3z"/>
	<g class="st0">
		<g>
			<path class="st37" d="M500.1,301.8c-0.4-1.2-1.5-4.7-4.3-6.7l3.7-2.4c0,0,0.1,5.6,4.4,8.2L500.1,301.8z"/>
			<path class="st37" d="M494.8,294.5c-2.2-1.4-2-3.3-0.8-4.1c1.2-0.8,2.7-1.6,4.8,1.4c1.6,2.1,1.3,3.7,0.1,4.5
				C497.8,297,497,295.9,494.8,294.5z"/>
			<path class="st37" d="M499.8,292.5c0.2,1.6,0.1,3.2-0.6,3.2c-0.7,0-1.7-1.4-1.6-3c0.1-1.6,2.5-5.2,3.8-4.8
				C502.8,288.4,499.6,290.3,499.8,292.5z"/>
			<path class="st37" d="M495.5,287.6c0.9,1.9,1.5,3.6,1,3.9c-0.5,0.3-1.2-1.2-2.1-3.1c-0.9-1.9-1.8-3.4-1.3-3.8
				C493.7,284.3,494.6,285.7,495.5,287.6z"/>
			<path class="st37" d="M492.5,290.7c1.3,1.4,2.3,2.6,1.9,3c-0.4,0.4-1.3-0.8-2.6-2.1c-1.3-1.4-2.4-2.5-2-2.9
				C490.2,288.3,491.2,289.3,492.5,290.7z"/>
			<path class="st37" d="M493.5,288.8c1.2,1.5,2.1,2.7,1.6,3.1c-0.5,0.4-1.3-0.9-2.5-2.4c-1.2-1.5-2.3-2.8-1.8-3.2
				C491.3,285.9,492.3,287.3,493.5,288.8z"/>
		</g>
		<path class="st38" d="M511.6,316.6c-0.7-5.1,14.2-30.2,20.6-26.2c6.4,4,3.2,35.2-18.6,40C509.1,331.4,511.6,316.6,511.6,316.6z"/>
		<path class="st39" d="M531.7,293.5c-1,10-6.6,21.7-19.5,24.6c-0.3,0.1-0.5,0.1-0.8,0c-0.5,3.8-1.3,13,2.2,12.2
			C533,326,535.8,301.7,531.7,293.5z"/>
		<path class="st38" d="M509.6,329.5c-10.5-5.6-15.5-27.3-12.5-29.6c7.2-5.5,11.5-0.4,12.8,1.9C511.2,304,523.2,336.7,509.6,329.5z"
			/>
		<path class="st39" d="M497.9,299.3c-0.3,0.2-0.6,0.4-0.8,0.6c-3.1,2.3,2,24.1,12.5,29.6c7.2,3.8,8.2-3.6,5.9-12
			C507,315.5,501.2,307,497.9,299.3z"/>
		<path class="st40" d="M556.6,347l-19-2.6l-14.2-4.7c1.8,67.7,15.3,110.7,13.9,119.3l3-1.2c-2.9-14,2.2-40.7,2.2-40.7
			c-2.9-4.4-5.7-9.4-5.7-9.4c0.2-5.1,1.6-19.7,4-34.5c6.2,4,15.4,24.3,16.5,29.7c0,0,0.7,9.8,0.2,11.4c0,0,14.4,34.9,15.2,44.2
			l3-0.2C568.7,431.9,566.2,393.5,556.6,347z"/>
		<g>
			<path class="st41" d="M536.8,407.6c0.2-5,1.6-18.9,3.8-33.3c-0.8-0.9-1.6-1.6-2.3-2.1c-2.4,14.8-3.8,29.3-4,34.5
				c0,0,2.8,5.1,5.7,9.4c0,0-2.9,27.3-0.7,42l1.1-0.4c-2.9-14,2.2-40.7,2.2-40.7C539.5,412.6,536.8,407.6,536.8,407.6z"/>
			<path class="st41" d="M556.6,347l-4.1,0.1c9.6,46.3,13.7,84,20.7,110.2l-0.6,0c0.1,0.4,0.1,0.8,0.1,1.1l3-0.2
				C568.7,431.9,566.2,393.5,556.6,347z"/>
		</g>
		<path class="st41" d="M556.6,347l-12.2-1.7l-20.9-0.3c0.1,1.4,0.1,2.8,0.2,4.2c0,0,12,6.2,34.1,4.1
			C557.4,351.1,557,349.1,556.6,347z"/>
		<path class="st38" d="M522.2,346.6c1.7,2.6,31.9,6.1,36.4,0.5c4.5-5.6-5.8-14.6-3.2-31.1c2.7-16.5,8.8-23.4-3.2-28.5
			c-12-5.1-25.3,0.3-29.5,9.9C518.5,307.1,518.8,341.3,522.2,346.6z"/>
		<path class="st42" d="M552.3,287.6c-12-5.1-25.3,0.3-29.5,9.9c-1.1,2.5-1.9,6.6-2.4,11.5c6,0.4,13-0.7,20-3.4
			c7.9-3.1,14.3-7.7,18.4-12.6C557.8,290.8,555.9,289.1,552.3,287.6z"/>
		<path class="st43" d="M545.3,286.7c-0.4-1.5-4.2-1.7-7.5-0.7c-2.7,0.8-4.2,2.1-3.7,3.1c0.5,0.9,2.7,1.4,5.4,1
			C542.8,289.7,545.7,288.1,545.3,286.7z"/>
		<path class="st39" d="M555.4,316.1c2-12.5,6-19.5,2.7-24.3c-0.6,5.1-6.2,10.2-8.5,20.1c-4.2,18.4,4,31.8-0.8,38.2
			c4.6-0.3,8.4-1.1,9.8-2.9C563.2,341.6,552.8,332.5,555.4,316.1z"/>
		<path class="st44" d="M556.6,310.1l-36.1-2.7c-0.2,1.5-0.4,3.1-0.5,4.8l35.7,2.4C556,313,556.3,311.5,556.6,310.1z"/>
		<path class="st44" d="M555.3,317.3l-35.5-1.2c-0.1,1.6-0.1,3.2-0.2,4.8l35.4,0.9C555,320.4,555.1,318.9,555.3,317.3z"/>
		<path class="st45" d="M540,324.8c-0.4-0.6-1-1-1.4-0.7c-0.4,0.2-0.3,0.9,0.1,1.6c0.4,0.6,1,1,1.4,0.7
			C540.5,326.1,540.4,325.4,540,324.8z"/>
		<polygon class="st46" points="538.7,329.1 544.2,307.8 577.4,315.3 570.9,337.5 		"/>
		<polygon class="st47" points="539.5,329.4 545,308.1 578.4,315.3 571.9,338.4 		"/>
		<path class="st38" d="M561.6,323.5c-0.9-0.6-1.7-1.1-3.1-3.7c-0.3-0.6,0.1-1.7-0.2-2.4c-4.9-9.7-11.6-26.7-6.6-28.5
			c6.9-2.4,28.4,21.4,20.3,41.5C570.4,334.4,561.6,323.5,561.6,323.5z"/>
		<path class="st37" d="M535.1,287.5l0.3-10.1l7.6-7.8l0.4,16.8C543.3,286.3,537.2,291.7,535.1,287.5z"/>
		<path class="st48" d="M540.7,459.9h-13.3c0,0,9.5-3.8,11.6-3.2C541.1,457.3,540.7,459.9,540.7,459.9z"/>
		<path class="st48" d="M572.8,459.9h10.7c0,0-7.6-3.8-9.3-3.2C572.4,457.3,572.8,459.9,572.8,459.9z"/>
		<path class="st38" d="M570.6,332.2c-7.6,5.8-27.2,4-27.2-3.5c0-9.1,3.3-8.6,5.7-8.6C551.5,320.1,580.5,324.8,570.6,332.2z"/>
		<polygon class="st1" points="539.2,351.8 533.9,351.4 534,354 539.4,354.3 		"/>
		<path class="st39" d="M562,294.4c6.1,8.4,10.6,20.5,6.3,31.4c-0.2,0.4-0.4,0.6-0.7,0.7c-0.3,0.4-0.7,0.8-1.2,1.1
			c-7.5,5.3-22.1-5.5-23,1.1c0,7.4,19.8,9.9,27.5,4.1c0.5-0.4,0.9-0.7,1.2-1.1c0.3-0.1,0.5-0.4,0.7-0.7
			C578.1,317.6,570,302.4,562,294.4z"/>
		<path class="st44" d="M551.8,305c-1.8-7.4-0.7-15.5,4-15.5l1.4,0.9C552.5,291.4,551.8,295.9,551.8,305z"/>
		<path class="st49" d="M541.1,293.8c8.4-0.9,15.7,0,20-0.2c-2.4-2.3-6-4.8-8.9-6c-2.7-1.1-5.5-1.7-8.2-1.9
			c-0.2-0.1-0.5-0.1-0.7-0.2l-0.4-16l-7.6,7.8l-0.3,9.6c-2.6,0.9-5,2.2-7.1,3.9c-1.1,0.6-2.2,1.5-3.3,2.6
			C529.2,294.2,535,294.4,541.1,293.8z"/>
		<path class="st50" d="M540.9,273.6c6.9,1.4,14.6-4.9,15.5-9.2c0.9-4.2-2.8-7.8-2.8-7.8s5.8-7.3,2.8-11.9c-3-4.5-7.4-3.4-7.4-3.4
			s1.3-10.4-6.2-11.9c0,0,1.8-3.4-11.5-2c0,0,2.2-8.4-15.2-1c-10.9,4.7-4.4,10.7-4.4,10.7s-12,8.2,10.3,25.8
			C544.3,280.8,540.9,273.6,540.9,273.6z"/>
		<path class="st51" d="M535.4,252.9c0-6.7-4.1-12.2-9.2-12.2c-5.1,0-8.7,2.9-8.7,9.7c0,6.7,3.6,14.7,8.7,14.7
			C531.3,265.1,535.4,259.7,535.4,252.9z"/>
		<path class="st51" d="M553.6,256.7c0,0,5.8-7.3,2.8-11.9c-0.2-0.3-0.4-0.5-0.5-0.7c-3.2,12.2-14.9,21.2-28.9,21.2
			c-0.8,0-1.6,0-2.4-0.1c19.4,15,16.3,8.4,16.3,8.4c6.9,1.4,14.6-4.9,15.5-9.2C557.3,260.2,553.6,256.7,553.6,256.7z"/>
		<path class="st37" d="M521.9,285.1c0.7,1.1,5.8,2.5,7.8,1.6c2.9-1.4,12.1-7.9,12.8-13.4c0.7-5.5,8.4-16.2,3.4-24.7
			c-5-8.5-17.4-20.1-25.7-2.1c-1.2,2.5,0.7,11,1,15.5c0.4,6.6,3.2,9.2,2.8,12.3C523.6,277.4,521.2,284,521.9,285.1z"/>
		<path class="st52" d="M524.6,275.6l5.3,0.1c0,0-0.6,4.4-2.5,4.4C525.4,280.2,524.6,275.6,524.6,275.6z"/>
		<polygon class="st53" points="525.1,275.3 525.6,277.6 529.1,277.9 529.7,275.8 		"/>
		<path class="st50" d="M543.3,263.3c0,0,13.1-5.5,7.3-17c0,0-17.4-22.7-30.5-3.8C529,238,548.2,243.4,543.3,263.3z"/>
		<path class="st37" d="M548.4,261.7c2.1,1.7-4.9,11.9-7,8.5C539.6,267.2,544.9,258.9,548.4,261.7z"/>
		<path class="st45" d="M546.8,264.2c1.2,1.1-3.7,6.8-4.9,4.7C541,266.9,544.8,262.3,546.8,264.2z"/>
		<path class="st37" d="M544,267.3c0.7,0.5-1.6,3.3-2.4,2.4C541,268.9,542.8,266.6,544,267.3z"/>
		<polygon class="st50" points="524.4,259.5 520.7,260.8 520.7,262.9 524.4,261.6 		"/>
		<polygon class="st50" points="535,261.6 528.7,260.1 528.7,262.2 535,263.7 		"/>
		<path class="st54" d="M544.8,329.4c0,0-2.4-1.9-2.5-3.3c-0.2-1.4,0.3-3,1-3.5c0.8-0.4,3.5-0.7,4-0.1
			C547.8,323.1,548,328,544.8,329.4z"/>
		<path class="st37" d="M544,324.7c-0.9,1.4-5.5,0.7-5.6-0.3c-0.1-1.1,0.4-3.9,1.2-4.2C540.3,319.8,544.7,323.5,544,324.7z"/>
		<path class="st39" d="M513.2,310.6c2.2,2.6,6.1,6.5,5.4,12.5l-5.6-0.1C512.9,323,516.1,318.5,513.2,310.6z"/>
		<path class="st50" d="M522.2,276c0,0,1.6-4,4.5-3.6c2.9,0.4,5.9,5,5.9,5L522.2,276z"/>
		<path class="st50" d="M528.7,268.8c-0.5-0.3-0.1-4.4,1.1-4.4c2.8,0,4,4.2,3.1,4.8C532,269.8,529.6,269.3,528.7,268.8z"/>
		<path class="st53" d="M528.8,268.8c-0.5-0.3,0-4.4,1-4.4c2.4,0,3.5,4.2,2.6,4.8C531.6,269.7,529.5,269.2,528.8,268.8z"/>
		<path class="st55" d="M531.1,267.3c-0.2-0.8-0.8-1.3-1.3-1.2c-0.6,0.1-0.9,0.8-0.8,1.6c0.2,0.8,0.8,1.3,1.3,1.2
			C530.9,268.7,531.2,268,531.1,267.3z"/>
		<path class="st56" d="M530.2,267.4c-0.1-0.4-0.4-0.6-0.6-0.6c-0.3,0-0.4,0.4-0.3,0.8c0.1,0.4,0.4,0.6,0.6,0.6
			C530.1,268.1,530.3,267.8,530.2,267.4z"/>
		<path class="st50" d="M523.2,268.5c-0.5-0.2-0.6-4.3,0.5-4.5c2.4-0.4,3.9,3.6,3.2,4.3C526.1,269,524,268.8,523.2,268.5z"/>
		<path class="st53" d="M523.3,268.5c-0.4-0.2-0.4-4.3,0.5-4.5c2.1-0.4,3.3,3.7,2.7,4.3C525.7,269,523.9,268.8,523.3,268.5z"/>
		<path class="st55" d="M525,266.7c-0.2-0.7-0.8-1.2-1.3-1c-0.5,0.2-0.7,0.9-0.5,1.7c0.2,0.7,0.8,1.2,1.3,1
			C525.1,268.1,525.3,267.4,525,266.7z"/>
		<path class="st56" d="M524.3,266.9c-0.1-0.4-0.4-0.6-0.6-0.5c-0.2,0.1-0.3,0.4-0.2,0.8c0.1,0.4,0.4,0.6,0.6,0.5
			C524.3,267.6,524.4,267.2,524.3,266.9z"/>
		<path class="st37" d="M527.2,272.5c0,0-3.9,1.3-4.1,0.5c-0.4-2.4,1.1,0.1,3.8-11C527,262,528.3,270.8,527.2,272.5z"/>
		<path class="st50" d="M524.4,239c-3.5,1.7-4.3,6.6,1.8,9c0,0-3.2-6.8,4.5-7.4L524.4,239z"/>
		<path class="st50" d="M538.9,267.9c0,0,0.9-8.3-1.4-16.1c-2.3-7.8,0.2-9.3,2.1-9.4c1.9-0.1,7.4,12.3,5,18.2
			c-2.4,5.9-4.1,7.3-4.1,7.3H538.9z"/>
		<polygon class="st40" points="551.5,356.5 552.5,354.7 557,359.7 		"/>
		<path class="st57" d="M524.1,272.5c-0.4-2.2,1-1.6,3.3-9.7c-0.1-1.2-0.4-0.8-0.4-0.8c-2.7,11.1-4.2,8.6-3.8,11
			c0.1,0.8,4.1-0.5,4.1-0.5c0-0.1,0.1-0.1,0.1-0.2C526.2,272.6,524.2,273.1,524.1,272.5z"/>
	</g>
	<path class="st58" d="M631.1,403.4c-9.6-12.9-3.3-33.1-4.8-44.8c0,0,0,0,0,0c0.1-0.1,0.1-0.1,0.2-0.2c0,0,0,0,0-0.1
		c0.1-0.1,0.1-0.2,0.1-0.3c1.4-4.2-4.3-17.1-7.3-24.9c5.6,2.3,12,2.7,14.7-3.6c4.4-10.2-3-25.3-7.8-30.5l0,0c0,0,0,0,0,0
		c-0.1-0.1-0.2-0.3-0.4-0.4c-0.1-0.1-0.2-0.2-0.3-0.2c-0.1-0.1-0.2-0.1-0.2-0.2c-0.1-0.1-0.2-0.1-0.2-0.2c2.6,0.5,5.5,0.6,8.6-0.1
		c0.1,0,0.3-0.1,0.4-0.1c0,0,0.1,0,0.1,0c0.1,0,0.2-0.1,0.3-0.1c0,0,0.1,0,0.1-0.1c0.1,0,0.2-0.1,0.3-0.2c0,0,0.1-0.1,0.1-0.1
		c0.1-0.1,0.2-0.1,0.3-0.2c0,0,0,0,0.1,0c0.1-0.1,0.2-0.2,0.4-0.3c0,0,0.1-0.1,0.1-0.1c0.1-0.1,0.2-0.2,0.3-0.3c0,0,0.1-0.1,0.1-0.1
		c0.1-0.1,0.2-0.2,0.2-0.3c0,0,0.1-0.1,0.1-0.1c0.1-0.1,0.2-0.2,0.3-0.4c0,0,0.1-0.1,0.1-0.1c0.1-0.2,0.2-0.3,0.3-0.5
		c0,0,0-0.1,0.1-0.1c0.1-0.2,0.2-0.3,0.3-0.5c0-0.1,0.1-0.1,0.1-0.2c0.1-0.1,0.1-0.3,0.2-0.4c0-0.1,0.1-0.1,0.1-0.2
		c0.1-0.1,0.2-0.3,0.2-0.5c0-0.1,0.1-0.1,0.1-0.2c0.2-0.4,0.4-0.9,0.6-1.4c0-0.1,0.1-0.1,0.1-0.2c0.1-0.2,0.1-0.4,0.2-0.5
		c0-0.1,0.1-0.2,0.1-0.2c0.1-0.2,0.1-0.4,0.2-0.6c0-0.1,0.1-0.2,0.1-0.2c0.1-0.2,0.2-0.5,0.2-0.7c0,0,0-0.1,0-0.1
		c0.1-0.3,0.2-0.6,0.3-0.9c0-0.1,0-0.1,0.1-0.2c0.1-0.2,0.1-0.4,0.2-0.7c0-0.1,0-0.2,0.1-0.3c0.1-0.2,0.1-0.4,0.2-0.6
		c0-0.1,0-0.2,0.1-0.3c0.1-0.2,0.1-0.5,0.2-0.7c0-0.1,0-0.1,0-0.2c0.1-0.3,0.1-0.6,0.2-1c0,0,0-0.1,0-0.1c0.1-0.3,0.1-0.5,0.2-0.8
		c0-0.1,0-0.2,0.1-0.3c0-0.2,0.1-0.5,0.1-0.7c0-0.1,0-0.2,0.1-0.3c0-0.2,0.1-0.5,0.1-0.8c0-0.1,0-0.2,0-0.3c0.1-0.7,0.2-1.4,0.3-2.1
		c0-0.1,0-0.2,0-0.3c0-0.3,0.1-0.5,0.1-0.8c0-0.1,0-0.2,0-0.3c0-0.3,0.1-0.5,0.1-0.8c0-0.1,0-0.2,0-0.3c0-0.3,0.1-0.6,0.1-1
		c0,0,0-0.1,0-0.1c0-0.4,0.1-0.7,0.1-1.1c0-0.1,0-0.2,0-0.3c0-0.3,0-0.5,0-0.8c0-0.1,0-0.2,0-0.3c0-0.3,0-0.5,0-0.8
		c0-0.1,0-0.2,0-0.4c0-0.3,0-0.6,0-0.8c0-0.1,0-0.2,0-0.2c0-0.4,0-0.7,0-1.1c0-0.1,0-0.1,0-0.2c0-0.3,0-0.6,0-0.9c0-0.1,0-0.2,0-0.3
		c0-0.3,0-0.5,0-0.8c0-0.1,0-0.2,0-0.4c0-0.3,0-0.5,0-0.8c0-0.1,0-0.2,0-0.3c0-0.4,0-0.7-0.1-1.1c0,0,0,0,0,0c0-0.3-0.1-0.7-0.1-1
		c0-0.1,0-0.2,0-0.3c0-0.3-0.1-0.5-0.1-0.7c0-0.1,0-0.2,0-0.4c0-0.2-0.1-0.5-0.1-0.7c0-0.1,0-0.2,0-0.3c0-0.3-0.1-0.6-0.1-0.9
		c0-0.1,0-0.1,0-0.2c-0.1-0.3-0.1-0.7-0.2-1c0-0.1,0-0.2-0.1-0.3c0-0.2-0.1-0.5-0.2-0.7c0-0.1-0.1-0.2-0.1-0.4
		c0-0.2-0.1-0.5-0.2-0.7c0-0.1-0.1-0.2-0.1-0.3c-0.1-0.2-0.1-0.5-0.2-0.7c0-0.1,0-0.2-0.1-0.3c-0.1-0.3-0.2-0.6-0.3-1
		c0-0.1,0-0.1-0.1-0.2c-0.1-0.2-0.2-0.5-0.2-0.7c0-0.1-0.1-0.2-0.1-0.3c-0.1-0.2-0.1-0.4-0.2-0.6c0-0.1-0.1-0.2-0.1-0.3
		c-0.1-0.2-0.2-0.4-0.2-0.6c0-0.1-0.1-0.2-0.1-0.3c-0.1-0.3-0.2-0.6-0.4-0.9c0,0,0,0,0,0c-0.5-1-1-2-1.6-2.9
		c-0.1-0.2-0.2-0.4-0.4-0.6c0,0,0-0.1-0.1-0.1c-1.2-1.7-2.4-3-3.6-3.9c-0.6-0.5-1.2-0.9-1.9-1.3c-17.6-10-37.1-1.4-40.8,14.7
		c-0.7,3.1-0.7,10.3,0,17.6c0,0.1,0,0.1,0,0.2c0,0.4,0.1,0.7,0.1,1.1c0,0.1,0,0.1,0,0.2c0.1,1,0.2,2.1,0.3,3.1c0,0.1,0,0.3,0.1,0.4
		c0,0.3,0.1,0.5,0.1,0.8c0,0.2,0,0.4,0.1,0.6c0,0.2,0.1,0.5,0.1,0.7c0,0.2,0.1,0.4,0.1,0.6c0,0.2,0.1,0.4,0.1,0.6
		c0.1,0.4,0.1,0.8,0.2,1.2c0,0.2,0.1,0.3,0.1,0.5c0,0.2,0.1,0.5,0.1,0.7c0,0.2,0.1,0.3,0.1,0.5c0,0.2,0.1,0.5,0.1,0.7
		c0,0.2,0.1,0.3,0.1,0.5c0.1,0.3,0.1,0.6,0.2,0.8c0,0.1,0,0.2,0.1,0.3c0.1,0.4,0.2,0.7,0.3,1c0,0.1,0.1,0.2,0.1,0.3
		c0.1,0.2,0.1,0.5,0.2,0.7c0,0.1,0.1,0.2,0.1,0.3c0.1,0.2,0.1,0.4,0.2,0.6c0,0.1,0.1,0.2,0.1,0.3c0.1,0.3,0.2,0.5,0.3,0.7
		c0,0,0,0.1,0,0.1c0.1,0.3,0.2,0.5,0.3,0.7c0,0.1,0.1,0.1,0.1,0.2c0.1,0.2,0.1,0.3,0.2,0.5c0,0.1,0.1,0.1,0.1,0.2
		c0.1,0.1,0.1,0.3,0.2,0.4c0,0.1,0.1,0.1,0.1,0.2c0.1,0.2,0.2,0.3,0.3,0.4c1.7,1.8,6.5,2,11.1,1.7c-3.7,1.8-6.4,6-8,9.5
		c-3.3,3.5-4,9.3-1,7.6c6.2,15.6,0,29.8-2.4,35.1c-0.2,0.3-0.3,0.6-0.4,0.9c0,0,0.5,0.2,1.3,0.6c-9.9,35.3,15.8,84.5,16.5,108.5
		c-2.8,0-11,3.2-11,3.2h13.3c0,0,0.1-0.7-0.1-1.5l0,0c0,0,2.6-40.8-5.7-52.3c-0.2-0.2-0.3-0.5-0.5-0.8c0,0,0-0.1-0.1-0.1
		c-0.1-0.3-0.3-0.5-0.4-0.8c0-0.1-0.1-0.1-0.1-0.2c-0.1-0.3-0.3-0.6-0.4-0.9c0-0.1,0-0.1-0.1-0.2c-0.1-0.3-0.2-0.6-0.4-1
		c0-0.1,0-0.1-0.1-0.2c-0.1-0.3-0.2-0.7-0.3-1.1c0,0,0-0.1,0-0.1c-0.1-0.4-0.2-0.7-0.3-1.1c0-0.1,0-0.1-0.1-0.2
		c-0.1-0.4-0.2-0.8-0.3-1.1c0-0.1,0-0.2-0.1-0.3c-0.1-0.4-0.2-0.8-0.2-1.2c0-0.1,0-0.2-0.1-0.3c-0.1-0.4-0.1-0.8-0.2-1.2
		c0-0.1,0-0.2,0-0.2c-0.1-0.4-0.1-0.8-0.2-1.3c0-0.1,0-0.1,0-0.2c-0.1-0.4-0.1-0.9-0.2-1.3c0-0.1,0-0.2,0-0.2c0-0.4-0.1-0.9-0.1-1.3
		c0-0.1,0-0.2,0-0.3c0-0.4-0.1-0.9-0.1-1.3c0-0.1,0-0.2,0-0.3c0-0.5-0.1-0.9-0.1-1.4c0-0.1,0-0.1,0-0.2c-0.1-1-0.1-2-0.1-3
		c0,0,0-0.1,0-0.1c0-0.5,0-1,0-1.5c0-0.1,0-0.1,0-0.2c0-0.5,0-1,0-1.5c0,0,0-0.1,0-0.1c0.1-7.4,0.9-14,2.1-16.4c0,0,0,0,0,0
		c0.3-0.6,0.6-0.9,1-0.9c3.5,0,11.3,36.5,18.8,47.8c7.1,10.8,6.4,42.5,6.3,45.8c-1.6,1-3.8,2.5-3.8,2.5h8.2c0,0-0.7-1.7-1.7-2.7
		C636.1,452.9,641.2,417,631.1,403.4z M630.2,328.9c-2,3.7-7.6,2.1-12.4,0.1c-0.1-0.3-0.2-0.6-0.2-0.8c-0.9-3.8,5.4-15.1,7.1-23.4
		C628,311.9,633.7,322.5,630.2,328.9z"/>
	<g class="st0">
		<path class="st37" d="M586.8,297.6c-3.2-2.4-10.5,16.1-20.8,12.6c-7.4-2.5-4.5-21.9-6.8-22.4c-0.1,0-5.7,23.6,7.2,26.7
			C580.3,318,589.9,299.9,586.8,297.6z"/>
		<path class="st59" d="M575,294.2c2.9,3.1,15.7,1.3,19.1,1c3.4-0.3,10.5,4.7,19.3,2.6c8.8-2.1,15.3-46.2-2.2-56.1
			c-17.6-10-37.1-1.4-40.8,14.7C568.9,263.4,571.1,290,575,294.2z"/>
		<path class="st60" d="M618.7,250.5c-5.8-12.1-13.7-10.1-16.7-6c-4.7,6.4-3.2,26.7-11.4,26.7c-8.1,0-15.4-3.2-20.7-8.3
			c-0.1,10.5,2,28,5.1,31.4c2.9,3.1,15.7,1.3,19.1,1c3.4-0.3,10.5,4.7,19.3,2.6C620.6,296.2,626.3,266.8,618.7,250.5z"/>
		<path class="st61" d="M574.2,349.1c2.1-4.6,10.3-20.9,1.8-38.6c0,0,4.4-14.2,12.6-15.3c8.2-1.1,14.3,0,15.6,2.8
			c3.5,6.9-8,25.1-6.8,30.2c1.2,5.1,10.8,24.5,9.1,29.9C604.7,363.4,574.2,349.1,574.2,349.1z"/>
		<path class="st62" d="M574.2,349.1c1.8-6.8,24-2.7,25.2-0.5l-6.1,8.4L574.2,349.1z"/>
		<path class="st62" d="M597.4,328.2c-1.2-5.1,10.3-23.4,6.8-30.2c-0.4-0.7-1.1-1.3-2.1-1.8c-3.2,6.4-10.3,16.7-14.2,16.6
			c4.6,3.7,8.9,38.8,8,45c5.4,1.6,9.9,2.3,10.5,0.4C608.2,352.7,598.5,333.3,597.4,328.2z"/>
		<path class="st37" d="M604.2,302.4c0.6-2.6,0.1-4.9-1.2-5.2c-1.2-0.3-2.7,1.6-3.3,4.2c-0.6,2.6-0.1,4.9,1.2,5.2
			C602.1,306.9,603.6,305,604.2,302.4z"/>
		<path class="st63" d="M592,460.6c1.3-23.5-28-76.8-15.7-113.5c0,0,21.8-3.5,28,5.9c6.2,9.5-4.8,35.1,6.6,50.4c11,14.8,4,56,4,56
			l-2.6-0.4c0,0,1.2-34.7-6.3-46.1c-7.5-11.4-15.2-47.8-18.8-47.8c-3.5,0-5.3,33.3,1.3,42.4c8.3,11.5,5.7,52.3,5.7,52.3L592,460.6z"
			/>
		<g>
			<path class="st64" d="M586.1,366.1c-0.2-0.2-0.4-0.3-0.6-0.3c-3.5,0-5.3,33.3,1.3,42.4c8.1,11.2,5.8,50.3,5.7,52.2l1.6-0.5
				c0,0,2.6-40.8-5.7-52.3C582.5,399.4,583.3,371.6,586.1,366.1z"/>
			<path class="st64" d="M610.9,403.4c-11.4-15.3-0.4-40.9-6.6-50.4c-6.2-9.5-28-5.9-28-5.9c-0.3,0.8-0.5,1.6-0.7,2.4
				c4.6-0.4,18.7-0.8,23.8,7.1c6.2,9.5-1.5,32.1,9.9,47.4c10.1,13.5,5,49.3,4.1,55.2l1.4,0.2C614.8,459.5,621.8,418.2,610.9,403.4z"
				/>
		</g>
		<path class="st37" d="M602.7,297.4c-2.9,2.8,12.5,21.9,7.4,31.5c-3.8,6.9-20.2-4.9-20.4-2.6c-0.2,2.4,18.9,15.5,24.2,3.3
			C619.5,316.3,605.4,294.7,602.7,297.4z"/>
		<path class="st37" d="M587.9,295.7c-4.8,2.4-10.5,11.2-5.7,12.2c2.2,0.4,8.5-0.3,10.7-1.3c3.1-1.5,9.7-10.8,6.7-11.6
			C596.6,294.2,590.8,294.2,587.9,295.7z"/>
		<polygon class="st37" points="595.8,284.4 591.7,287.3 590.8,296 598,295.7 		"/>
		<path class="st48" d="M616.6,461.4h-8.2c0,0,3.7-2.7,5.1-3.2C615.1,457.6,616.6,461.4,616.6,461.4z"/>
		<path class="st48" d="M594.2,461.4h-13.3c0,0,9.5-3.8,11.6-3.2C594.6,458.8,594.2,461.4,594.2,461.4z"/>
		<polygon class="st65" points="583.7,308.1 586.8,304.5 586.2,307.8 		"/>
		<path class="st49" d="M593.6,299.7c4.3,1.2,8.7,0.7,12.4-0.6c-0.9-0.9-1.6-1.5-2.3-1.8c-0.1-0.1-0.2-0.2-0.3-0.3c0,0,0,0,0,0
			c-0.7-0.6-1.8-1.2-3.2-1.5c-0.1-0.2-0.3-0.4-0.6-0.5c-0.5-0.1-1.1-0.2-1.8-0.3l-1.8-9.5c-0.5,0.1-1,0.1-1.5,0.2l-2.8,2l-0.8,7.5
			c-0.5,0.1-0.9,0.2-1.3,0.3c-0.3,0-0.7,0.1-1,0.1c-2.1,0.3-3.9,1.4-5.5,2.9C585.6,298,589,298.3,593.6,299.7z"/>
		<path class="st37" d="M589.1,289.3c3.6-1.2,10.3-3.3,13.6-9.2c4.7-8.2,0.4-18.6-4.2-23.4c-5.5-5.8-13.1-2.8-14.6,0
			c-2.2,4-4.1,9.4-4.4,17.4C579.4,277.1,584.9,286.1,589.1,289.3z"/>
		<path class="st37" d="M608.8,271.3c-1-1.3-3.3-1.2-5.1,0.2c-1.8,1.4-2.5,3.6-1.5,4.9C604.4,279.2,611.2,274.3,608.8,271.3z"/>
		<path class="st45" d="M607.8,272.2c-0.6-0.8-2.1-0.8-3.2,0.1c-1.2,0.9-1.6,2.3-0.9,3.1C605,277.2,609.3,274.1,607.8,272.2z"/>
		<path class="st37" d="M605.3,273.8c-0.4-0.5-1.2-0.4-1.9,0.1c-0.7,0.5-0.9,1.3-0.5,1.8C603.7,276.7,606.2,275,605.3,273.8z"/>
		<path class="st66" d="M585.4,280.2l7.4,0.1c0,0-1.4,4.2-3.4,4.3C588.3,284.6,586.7,283.6,585.4,280.2z"/>
		<polygon class="st53" points="586.5,280.5 587.4,282.7 591.5,282.7 592.5,280.5 		"/>
		<path class="st57" d="M587,276.8c0.2-0.5,1,0.1,1.6-2.1c-0.2-0.4,0-0.3-0.2-0.6c-0.6,2.9-2.1,2-2.3,2.6c-0.2,0.6,0.7,1.6,2.1,1.7
			c0.1,0,0.3,0,0.4,0C587.4,278.1,586.8,277.3,587,276.8z"/>
		<path class="st50" d="M590.6,274.4c-0.7-0.7-0.6-7.4,2.2-7.3c2.8,0.1,4.9,6.4,3.4,7.1C594.7,274.9,591.3,275.2,590.6,274.4z"/>
		<path class="st53" d="M590.6,274.2c-0.6-0.7-0.5-7,2.1-6.9c2.6,0.1,4.6,6.1,3.2,6.8C594.5,274.8,591.3,275,590.6,274.2z"/>
		<path class="st50" d="M581.5,274.5c-0.4-0.7,0.5-6.9,2.7-6.8c2.2,0.1,3,6.1,1.8,6.8C584.7,275.1,582,275.3,581.5,274.5z"/>
		<path class="st53" d="M581.7,274.5c-0.4-0.7,0.5-6.5,2.5-6.4c2,0.1,2.8,5.7,1.6,6.3C584.6,275,582.1,275.2,581.7,274.5z"/>
		<path class="st66" d="M593.2,280.1c-0.1-0.1-0.2-0.1-0.4,0c-0.2,0.1-0.3,0.2-0.2,0.3c0.1,0.1,0.2,0.1,0.4,0
			C593.1,280.4,593.2,280.2,593.2,280.1z"/>
		<path class="st66" d="M585.8,280.3c0.1-0.1,0-0.3-0.2-0.3c-0.2-0.1-0.3-0.1-0.4,0c-0.1,0.1,0,0.3,0.2,0.3
			C585.6,280.4,585.8,280.4,585.8,280.3z"/>
		<path class="st65" d="M597.8,276.9c-0.1-0.5-1-0.8-2.2-0.6c-1.1,0.2-2,0.7-1.9,1.3c0.1,0.5,1,0.8,2.2,0.6
			C597.1,278,597.9,277.4,597.8,276.9z"/>
		<path class="st65" d="M583.7,277.8c0.1-0.4-0.5-0.9-1.4-1.2c-0.9-0.2-1.6-0.1-1.7,0.3c-0.1,0.4,0.5,0.9,1.4,1.2
			C582.8,278.4,583.6,278.2,583.7,277.8z"/>
		<path class="st37" d="M597.6,275.3c0-0.4-1.9-0.6-4.1-0.4c-2.2,0.2-4,0.7-4,1.1c0,0.4,1.9,0.6,4.1,0.4
			C595.9,276.2,597.6,275.7,597.6,275.3z"/>
		<path class="st37" d="M586.5,276.3c0-0.3-1.6-0.8-3.4-1c-1.8-0.2-3.3-0.1-3.2,0.2c0,0.3,1.6,0.8,3.4,1
			C585.1,276.7,586.6,276.7,586.5,276.3z"/>
		<path class="st50" d="M590.9,264.3c2.6-0.1,5.4,1,6.9,3.7c0,0-1.6-2.7-6.9-3V264.3z"/>
		<path class="st50" d="M585.6,264.4c-1.8-0.1-3.8,0.9-4.9,3.5c0,0,1.1-2.7,4.9-2.8V264.4z"/>
		<path class="st67" d="M593.5,272.3c-0.1-1-0.7-1.8-1.4-1.8c-0.7,0.1-1.2,0.9-1.1,2c0.1,1,0.7,1.8,1.4,1.8
			C593.1,274.2,593.6,273.3,593.5,272.3z"/>
		<path class="st68" d="M592.4,272.1c0-0.5-0.3-0.8-0.6-0.8c-0.3,0-0.5,0.4-0.5,0.9c0,0.5,0.3,0.8,0.6,0.8
			C592.2,273,592.4,272.6,592.4,272.1z"/>
		<path class="st67" d="M584.6,272.7c-0.1-1-0.7-1.8-1.4-1.8c-0.7,0.1-1.2,0.9-1.1,2c0.1,1,0.7,1.8,1.4,1.8
			C584.2,274.6,584.7,273.7,584.6,272.7z"/>
		<path class="st68" d="M583.5,272.4c0-0.5-0.3-0.8-0.6-0.8c-0.3,0-0.5,0.4-0.5,0.9c0,0.5,0.3,0.8,0.6,0.8
			C583.4,273.3,583.6,272.9,583.5,272.4z"/>
		<path class="st69" d="M602.8,276.6c1.3-1.3,1-6.3,3.8-8.3l-1.8-2.5C602,268,603.5,274.4,602.8,276.6z"/>
		<path class="st59" d="M601.3,255.1c0.8-2.2-0.8-9.1,1.4-12.9l-2.4-2.9C598.2,243.5,601.4,251.8,601.3,255.1z"/>
		<path class="st37" d="M559.2,290.1c1.7,0.4,1.9-6.8,0.6-7.6c-1.3-0.9-2.5,1-2.8,2.5C556.8,286.2,558.1,289.9,559.2,290.1z"/>
		<path class="st70" d="M557,285c0.2-1.5,1.4-3.4,2.8-2.5c0.1,0.1,0.2,0.2,0.3,0.3c-0.2,0.3-0.8,0.6-0.6,1c2,3-0.7,5.6,0.2,6.2
			c-0.1,0.1-0.3,0.2-0.5,0.1C558.1,289.9,556.8,286.2,557,285z"/>
		<path class="st70" d="M557.4,283.1c0.4-0.7,1.1-1.2,1.4-1c0.3,0.2,0.2,1-0.2,1.7c-0.4,0.7-1.1,1.2-1.4,1
			C556.8,284.6,556.9,283.9,557.4,283.1z"/>
		<path class="st37" d="M559.4,282.2c0.5,0.2,0.8,0.5,0.7,0.8c-0.1,0.3-0.5,0.1-1-0.1c-0.5-0.2-1-0.3-0.9-0.5
			C558.3,282.1,558.9,282,559.4,282.2z"/>
		<path class="st70" d="M556.1,284.2c0.2-0.8,0.6-1.3,1-1.3c0.4,0.1,0.5,0.8,0.4,1.6c-0.2,0.8-0.6,1.3-1,1.3
			C556.1,285.7,556,285,556.1,284.2z"/>
		<path class="st37" d="M559.9,286.1c0.3-0.8,0.8-1.4,1.2-1.2c0.4,0.1,0.4,0.9,0.1,1.8c-0.3,0.8-1,2.7-1.4,2.6
			C559.4,289.1,559.6,286.9,559.9,286.1z"/>
		<path class="st37" d="M560.3,280.9c0.6-2.5,0.5-4.5,1-4.6c0.6-0.1,0.6,2.1,0,4.9c-0.5,2.5-0.5,4.6-1,4.6
			C559.7,285.7,559.6,283.9,560.3,280.9z"/>
		<path class="st37" d="M557.7,285.6c-0.1-0.4,0.7-1.1,1.6-1.2c1-0.1,1.9,0.4,1.9,0.8c0,0.4-0.8,0.4-1.7,0.5
			C558.6,285.9,557.8,286,557.7,285.6z"/>
		<path class="st37" d="M557.8,282.7c0.3-0.4,0.7-0.6,0.9-0.5c0.2,0.2,0,0.5-0.3,0.9c-0.3,0.4-0.5,0.8-0.7,0.7
			C557.5,283.7,557.5,283.2,557.8,282.7z"/>
		<g>
			<path class="st37" d="M587.3,327.2c-2.2-0.2-2.8-1.8-2.2-2.9c0.6-1,1.4-2.2,4.2-0.8c2,1,2.4,2.4,1.8,3.4
				C590.5,328,589.5,327.5,587.3,327.2z"/>
			<path class="st37" d="M590.3,323.8c0.7,1.2,1.3,2.4,0.8,2.7c-0.5,0.3-1.8-0.4-2.3-1.7c-0.5-1.3-0.1-4.9,1.1-5.1
				C591.1,319.5,589.3,322.1,590.3,323.8z"/>
			<path class="st37" d="M585.2,321.7c1.4,1.1,2.5,2.2,2.2,2.6c-0.3,0.5-1.4-0.5-2.8-1.6c-1.4-1.1-2.7-2-2.4-2.4
				C582.5,319.8,583.8,320.5,585.2,321.7z"/>
			<path class="st37" d="M584,325.1c1.5,0.6,2.8,1.1,2.6,1.6c-0.2,0.5-1.3-0.1-2.8-0.7c-1.5-0.6-2.8-1-2.6-1.5
				C581.4,324.2,582.5,324.6,584,325.1z"/>
			<path class="st37" d="M584.1,323.3c1.5,0.7,2.7,1.3,2.4,1.8c-0.2,0.5-1.4-0.2-2.9-0.9c-1.5-0.7-2.8-1.3-2.6-1.8
				C581.3,321.9,582.6,322.6,584.1,323.3z"/>
		</g>
	</g>
	<polygon class="st71" points="478.8,246.1 485.5,261.1 470.5,248.8 	"/>
	<path class="st71" d="M484.3,246.2c-0.5,2.5-4.5,4.4-9.2,4.4h-55c-3.2,0-5.8-1.3-6.1-3l-6-35.6c-0.1-0.9,0.5-1.7,1.7-2.3
		c1.2-0.6,2.9-0.8,4.5-0.7l68.3,7.3c4.5,0.5,7.6,2.7,7,5.2L484.3,246.2z"/>
	<polygon class="st72" points="379.8,164.8 581,164.8 585.1,95.6 371,95.6 	"/>
	<g class="st0">
		<path class="st73" d="M576.1,162.2H384.5l-8.6-64h204.3L576.1,162.2z M387.1,159.2h186.2l3.7-58H379.2L387.1,159.2z"/>
	</g>
	<rect x="541.9" y="89.8" class="st2" width="3.2" height="4.2"/>
	<rect x="397.1" y="89.8" class="st2" width="3.2" height="4.2"/>
	<g class="st0">
		<path class="st74" d="M432.6,147.9h-6v-13.9h-9.3v13.9h-6v-35.5h6V133h9.3v-20.5h6V147.9z"/>
		<path class="st74" d="M465.3,130.3c0,2.1-0.3,4.1-0.9,6.2c-0.6,2.1-1.5,3.9-2.6,5.7c-1.1,1.7-2.6,3.1-4.4,4.2
			c-1.8,1.1-3.8,1.6-6,1.6c-2.9,0-5.4-0.9-7.6-2.8c-2.2-1.9-3.8-4.1-4.8-6.7c-1-2.6-1.6-5.3-1.6-8.2c0-2.8,0.5-5.5,1.6-8.2
			c1-2.7,2.7-4.9,4.8-6.8c2.2-1.9,4.7-2.8,7.6-2.8c2.2,0,4.2,0.5,6,1.6c1.8,1.1,3.3,2.5,4.4,4.3c1.1,1.7,2,3.6,2.6,5.7
			C465,126.2,465.3,128.2,465.3,130.3z M458.5,130.2c0-11.2-2.4-16.7-7.2-16.7c-1.1,0-2.1,0.3-2.9,0.9c-0.9,0.6-1.5,1.4-2,2.4
			c-0.5,1-0.9,2.1-1.3,3.2c-0.3,1.1-0.6,2.4-0.7,3.8c-0.1,1.4-0.2,2.6-0.3,3.5c0,0.9-0.1,1.9-0.1,2.9c0,1,0,2,0.1,2.9
			c0,0.9,0.1,2.1,0.3,3.5c0.1,1.4,0.4,2.7,0.7,3.8c0.3,1.1,0.8,2.2,1.3,3.2c0.5,1,1.2,1.8,2,2.4c0.9,0.6,1.8,0.9,2.9,0.9
			C456.1,147,458.5,141.4,458.5,130.2z"/>
		<path class="st74" d="M488.6,138.2c0,2.7-0.9,5-2.8,6.9c-1.9,1.9-4.2,2.9-6.9,2.9c-1.9,0-3.6-0.3-5.3-0.9c-0.1,0-0.4-0.2-1-0.4
			c-0.6-0.3-1.1-0.4-1.4-0.5l1-2.1c0.8,1,1.9,1.7,3.2,2.2c1.3,0.5,2.7,0.8,4,0.8c1.6,0,2.8-0.4,3.6-1.2c0.9-0.8,1.3-2,1.3-3.5
			c0-1.6-0.5-3.1-1.5-4.5c-1-1.4-2.2-2.6-3.6-3.6c-1.4-1-2.8-2.1-4.2-3.1c-1.4-1.1-2.6-2.3-3.6-3.8c-1-1.5-1.5-3.1-1.5-4.8
			c0-3,1.1-5.5,3.2-7.4c2.1-2,4.7-3,7.7-3c2.3,0,4.4,0.7,6.3,2l-1.4,1.6c-1.2-1.7-3.2-2.6-5.8-2.6c-1.8,0-3.3,0.4-4.6,1.3
			c-1.3,0.8-1.9,2.1-1.9,3.8c0,1.1,0.3,2.2,0.8,3.2c0.6,1,1.3,1.9,2.1,2.6c0.9,0.8,1.8,1.5,2.9,2.3c1.1,0.8,2.1,1.5,3.2,2.3
			c1.1,0.8,2.1,1.6,2.9,2.5c0.9,0.9,1.6,1.9,2.1,3.1C488.4,135.5,488.6,136.8,488.6,138.2z"/>
		<path class="st74" d="M513.3,113.6h-7.6v34.4h-6v-34.4h-7.6v-1.1h21.1V113.6z"/>
		<path class="st74" d="M534.4,147.9h-17.5v-35.5h17.5v1.1h-11.6V133h7.1v1h-7.1v12.9h11.6V147.9z"/>
		<path class="st74" d="M555.1,147.9h-17.2v-35.5h6v34.4h11.2V147.9z"/>
	</g>
	<path class="st58" d="M288,259.6l-3.6,5.4l-17.2,2l-0.1,1.8c0.8,0.4,6.6,0.9,14.9,1.4c-0.1,1.6,0,3.2,0,4.6
		c-2.9,1.5-3.7,6.8,1.6,9.9c1.2,4.5,2.8,7.2,3.3,7.9l0.1,2.8c-0.3,0.1-0.5,0.2-0.8,0.4c-0.1,0-0.1,0-0.1,0.1
		c-0.2,0.1-0.5,0.2-0.7,0.3c-0.1,0-0.1,0.1-0.2,0.1c-0.3,0.1-0.5,0.2-0.8,0.4c-0.2,0.1-0.4,0.2-0.6,0.3c-20.9,1.3-38,21.5-44.6,30.5
		c-0.1,0-0.2,0-0.2,0l-3.1,4.4c0.1,0,0.2,0,0.4,0c-0.1,0.3-0.1,0.6-0.1,0.8c0.1,1.2,1,2.3,2.6,3.3c0,0.2,0,0.3,0.1,0.5
		c0,0.1,0,0.2,0,0.2c0,0.2,0,0.4,0.1,0.6c0,0.1,0,0.1,0,0.2c0,0.3,0.1,0.5,0.1,0.8c0,0.1,0,0.2,0,0.2c0,0.2,0.1,0.4,0.1,0.6
		c0,0.1,0,0.2,0,0.2c0,0.3,0.1,0.6,0.1,0.9c0,0,0,0.1,0,0.1c0,0.3,0.1,0.5,0.1,0.8c0,0.1,0,0.2,0.1,0.3c0.1,0.3,0.1,0.5,0.2,0.8
		c0,0.1,0,0.1,0,0.1c0.1,0.3,0.1,0.6,0.2,1c0,0.1,0,0.1,0,0.2c0.1,0.3,0.1,0.6,0.2,0.9c0,0.1,0,0.1,0,0.2c0.2,0.7,0.3,1.4,0.5,2.1
		c0,0,0,0.1,0,0.1c2.2,9.3,5.6,19.9,7.3,22.8c-0.6,0.7-0.7,2.1-1.5,4.5c-0.8,2.5,1.6,4.9,3.7,4.9c0.2,0,0.5,0,0.7-0.1l-1.3,6.6
		c-1.6-1.8-4.3-3.4-7.5-4.8c0,0,0,0,0,0c0,0,0,0,0,0c-0.4-0.2-0.9-0.4-1.3-0.5c0,0-0.1,0-0.1,0c-1.9-0.7-3.9-1.4-5.9-2
		c-0.1,0-0.1,0-0.1,0c-0.5-0.1-0.9-0.2-1.4-0.4c0,0-0.1,0-0.1,0c-1-0.3-2-0.5-3-0.7c0,0,0,0-0.1,0c-0.4-0.1-0.9-0.2-1.3-0.2
		c-0.1,0-0.2,0-0.3-0.1c-0.4-0.1-0.7-0.1-1-0.2c-0.1,0-0.2,0-0.4-0.1c-0.3,0-0.7-0.1-1-0.1c-0.1,0-0.2,0-0.3,0
		c-0.4,0-0.8-0.1-1.2-0.1c-0.1,0-0.1,0-0.2,0c-0.3,0-0.7,0-1-0.1c-0.1,0-0.2,0-0.4,0c-0.2,0-0.5,0-0.7,0c-0.1,0-0.2,0-0.4,0
		c-0.2,0-0.4,0-0.7,0c-0.1,0-0.2,0-0.3,0c-0.3,0-0.6,0-0.9,0.1c-0.3,0-0.6,0.1-1,0.3c-5.3,1.2-13.7,8.1-7.6,10.2
		c-3.2,6.9-5.8,15.2-6.6,17.9c-5.1,1.5-11.4,6.2-7.3,8.7c-2.7,7.3-4.1,18-3.9,25.1L242,438c3.8-16.5,7.8-43,8.6-48.9l2.1-10.7
		c0.5-0.2,0.9-0.5,1.3-0.9c0.2,0.2,0.5,0.4,0.7,0.4c0.8,0,0.6-1.3,0.5-2.9c-0.1-1.3-1.7-3.2-2.6-3.5c-0.1-0.1-0.1-0.3-0.2-0.4
		c0.1-0.1,0.2-0.1,0.2-0.1c0.7-1.1,1.6-2.9,2.7-5c0.2,0.3,0.3,0.5,0.5,0.8c0.7,1.9,2.8,4,5.6,5.8c0.4,0.2,0.8,0.5,1.2,0.7
		c0.4,2.8,0.8,5.6,1.4,8.2c0,0.1,0,0.1,0,0.2c0.1,0.5,0.2,1.1,0.3,1.6c0,0.1,0,0.2,0.1,0.3c0.1,0.5,0.2,1,0.3,1.5
		c0,0.1,0.1,0.2,0.1,0.4c0.1,0.5,0.2,0.9,0.3,1.4c0,0.1,0.1,0.3,0.1,0.4c0.1,0.4,0.2,0.9,0.3,1.3c0,0.1,0.1,0.3,0.1,0.5
		c0.1,0.4,0.2,0.8,0.3,1.2c0,0.2,0.1,0.3,0.1,0.5c0.1,0.4,0.2,0.8,0.3,1.1c0,0.2,0.1,0.3,0.1,0.5c0.1,0.4,0.2,0.7,0.3,1.1
		c0,0.2,0.1,0.3,0.1,0.5c0.1,0.3,0.2,0.7,0.3,1c0,0.2,0.1,0.3,0.1,0.5c0.1,0.3,0.2,0.6,0.3,1c0,0.2,0.1,0.3,0.1,0.5
		c0.1,0.3,0.2,0.6,0.3,0.9c0,0.2,0.1,0.3,0.1,0.5c0.1,0.3,0.2,0.6,0.3,0.8c0,0.2,0.1,0.3,0.1,0.5c0.1,0.3,0.2,0.5,0.3,0.8
		c0,0.1,0.1,0.3,0.1,0.4c0.1,0.3,0.2,0.5,0.2,0.7c0,0.1,0.1,0.3,0.1,0.4c0.1,0.2,0.2,0.5,0.2,0.7c0,0.1,0.1,0.3,0.1,0.4
		c0.1,0.2,0.1,0.4,0.2,0.6c0,0.1,0.1,0.3,0.1,0.4c0.1,0.2,0.1,0.4,0.2,0.6c0,0.1,0.1,0.2,0.1,0.3c0.1,0.2,0.1,0.4,0.2,0.5
		c0,0.1,0.1,0.2,0.1,0.3c0.1,0.2,0.1,0.3,0.2,0.5c0,0.1,0.1,0.2,0.1,0.3c0.1,0.1,0.1,0.3,0.2,0.4c0,0.1,0.1,0.2,0.1,0.3
		c0,0.1,0.1,0.3,0.1,0.4c0,0.1,0.1,0.2,0.1,0.2c0,0.1,0.1,0.2,0.1,0.3c0,0.1,0.1,0.1,0.1,0.2c0,0.1,0.1,0.2,0.1,0.2
		c0,0.1,0.1,0.1,0.1,0.2c0,0,0,0.1,0.1,0.1c0,0.1,0,0.1,0.1,0.2c0,0,0,0.1,0,0.1c0,0.1,0,0.1,0.1,0.1c0,0,0,0,0,0c0,0,0,0.1,0,0.1
		l0.9-0.1c2,9.7,4.9,20.1,7.6,28.9l28.6-0.1c4.4-2.9,12.2-7.7,20.6-11.7c0.1,0.1,0.1,0.2,0.2,0.3c0,0,0,0,0,0
		c0.1,0.1,0.1,0.2,0.2,0.2c1.5,1.8,2.8,3.4,4.1,4.9c0.1,0.1,0.1,0.1,0.2,0.2c0.3,0.3,0.5,0.6,0.8,0.9c0.2,0.2,0.3,0.4,0.5,0.5
		c0.1,0.2,0.3,0.3,0.4,0.5c0.2,0.3,0.5,0.6,0.7,0.8c0,0,0.1,0.1,0.1,0.1c0.3,0.3,0.5,0.6,0.7,0.8c0,0-0.7,0.8-1.3,2.4l20.2-0.1
		c5.6-9.7,11.9-21.1,15.6-31.9c0.5-1.2,1-2.6,1.4-4l1.9-0.1c7-18.7,6-35.5,1-50c2.5-2.5,3.8-5.4,3.5-7.3c0.1-0.6,0.1-1.3,0.1-2
		c0,0,0,0,0.1,0c0.1,0,0.2-0.1,0.3-0.2c0.1,0,0.2-0.1,0.3-0.2c0.1-0.1,0.2-0.1,0.3-0.2c0.1-0.1,0.2-0.1,0.3-0.2
		c0.1-0.1,0.2-0.1,0.2-0.2c0.1-0.1,0.2-0.2,0.3-0.3c0.1-0.1,0.1-0.1,0.2-0.2c0.4-0.5,0.9-1,1.3-1.6c0,0,0,0,0,0
		c0.1-0.2,0.3-0.4,0.4-0.6c0-0.1,0.1-0.1,0.1-0.2c0.1-0.2,0.2-0.4,0.4-0.7c0-0.1,0.1-0.1,0.1-0.2c0.1-0.2,0.2-0.5,0.3-0.7
		c0-0.1,0.1-0.2,0.1-0.2c0.1-0.2,0.2-0.5,0.3-0.8c0-0.1,0.1-0.2,0.1-0.2c0.1-0.3,0.2-0.6,0.3-0.8c0-0.1,0-0.1,0.1-0.2
		c0.1-0.3,0.2-0.6,0.3-1c0,0,0,0,0,0c2.5-7.7,3.5-20.4,0.8-38.5c0.1-0.1,0.1-0.2,0.2-0.2c0.6-0.4,1.3-1,2.3-1.6
		c0.5-0.3,0.8-0.6,1.1-1c0.5-0.4,1.2-1.3,2.1-2.3c1.3-1.5,2.5-2.7,2-3.2c-0.5-0.4-1.6,0.7-2.9,2.2c-0.3,0.3-0.5,0.6-0.7,0.9
		c-0.1-0.3-0.3-0.6-0.5-0.8c0.3-0.4,0.6-0.9,1-1.4c0.5-0.7,1-1.4,1.4-2l-1.7,0.1c-0.3,0.3-0.5,0.7-0.8,1.1c-0.4,0.5-0.7,1-1,1.4
		c-0.2-0.1-0.4-0.2-0.7-0.3c0.2-0.5,0.4-1,0.7-1.6c0.1-0.2,0.2-0.4,0.2-0.6l-1.7,0.1c-0.3,0.7-0.5,1.4-0.7,1.9
		c-0.6,0.2-1.2,0.6-1.9,1.4c-0.7-1.1-1.6-2.4-2.5-3l-1.6,0.1c0.2,0.9,2.6,2.5,2.5,4.5c0,0.5,0,1,0,1.5c-0.1,0.4-0.1,0.9,0,1.2
		c0,0,0,0,0,0.1c-0.4,0.3-8.9,8-15.9,17.2c-4-4.4-12.2-11.6-24.1-14.4c-0.3-0.2-0.5-0.4-0.7-0.5c-0.9-0.7-2.2-1.3-3.8-1.7
		c0.2-2.7-0.7-5.8-3.2-9.2c2.9-0.4,4.7-0.9,4.6-1.4c-0.5-3.3-5.1-6.4-7.9-7.6c0,0,0,0,0,0c-0.2-0.1-0.3-0.1-0.4-0.2
		c-0.1-0.5-0.2-1.1-0.4-1.7c0.1-0.1,0.2-0.2,0.2-0.3c0,0,0,0,0,0c0-0.1,0.1-0.2,0.1-0.3c0,0,0,0,0-0.1c0-0.1,0-0.2,0.1-0.3
		c0,0,0,0,0-0.1c0-0.2,0-0.4,0-0.7c0,0,0-0.1,0-0.1c0-0.1,0-0.1,0-0.2c7.8,0.3,13.1,0.4,13.1,0.4l0.3-1.4l-17.9-4.6L326,263
		l-0.7-0.1l-2.7-6.8l-3.6-1.1l-29.1,2.7c-0.3,0.6-0.6,1.3-1,1.9L288,259.6z"/>
	<g class="st0">
		<path class="st37" d="M285.1,374.2c0-1.6-1.2-3.1-0.6-3.6c0.6-0.5,2.7,2,2.7,3.5c0,1.6,0.1,2.9-0.7,2.9
			C285.8,377.1,285.1,375.8,285.1,374.2z"/>
		<path class="st37" d="M278.4,373.2c1.4-3.6,1.2-5,3.3-5c2.1,0,3.8,2.2,3.8,5c0,2.8-1.7,5-3.8,5
			C279.6,378.2,277.4,375.8,278.4,373.2z"/>
		<g>
			<path class="st37" d="M420.9,299.8c0.5-1.3,1.7-5.3,4.8-7.5l-4.1-2.7c0,0-0.1,6.3-5,9.1L420.9,299.8z"/>
			<path class="st37" d="M426.8,291.7c2.5-1.6,2.2-3.7,0.9-4.6c-1.3-0.9-3-1.8-5.4,1.5c-1.7,2.4-1.5,4.1-0.1,5
				C423.5,294.5,424.4,293.3,426.8,291.7z"/>
			<path class="st37" d="M421.3,289.4c-0.2,1.8-0.2,3.5,0.6,3.6c0.8,0,1.9-1.5,1.8-3.3c-0.1-1.8-2.8-5.8-4.3-5.3
				C417.9,284.9,421.5,287,421.3,289.4z"/>
			<path class="st37" d="M426.1,284.1c-1,2.1-1.7,4-1.1,4.3c0.6,0.4,1.3-1.4,2.4-3.5c1-2.1,2-3.8,1.4-4.2
				C428.1,280.4,427.1,282,426.1,284.1z"/>
			<path class="st37" d="M429.4,287.5c-1.4,1.5-2.6,2.9-2.1,3.4c0.5,0.5,1.5-0.8,2.9-2.4c1.4-1.5,2.7-2.7,2.2-3.2
				C432,284.8,430.9,285.9,429.4,287.5z"/>
			<path class="st37" d="M428.3,285.4c-1.3,1.7-2.4,3-1.8,3.4c0.6,0.5,1.5-1,2.8-2.7c1.3-1.7,2.6-3.1,2-3.5
				C430.7,282.1,429.6,283.7,428.3,285.4z"/>
		</g>
		<path class="st75" d="M271,331.4c0-3.5,7.2-6.4,16-6.4c8.8,0,16,2.9,16,6.4s-7.2,6.4-16,6.4C278.2,337.8,271,334.9,271,331.4z"/>
		<path class="st76" d="M402.4,328.7l4.1-15.8c0,0-11.8-19.6-36.2-19L402.4,328.7z"/>
		<path class="st77" d="M345,395.3l61.2-10.3c1.5,22.8-28.9,59.7-34.3,72.4l-2.4,0.5c-11.9-14.8-4.2-23-4.2-23
			c-1.7-2-4.3-5.4-7.2-9.3c-11,5.1-21.2,11.6-24.3,13.6c-7.7,5.1,3.5,5.4-18.4,19.9l-2-0.7c0,0-11.7-40.6-12.1-64.8
			C301.3,393.7,324,387,345,395.3z"/>
		<g>
			<path class="st78" d="M358.3,426c1.2-0.6,2.3-1.2,3.5-1.8c2.9,3.9,4.4,10.9,6.1,12.9c0,0-6.9,7.3,2.5,20.7l-0.9,0.2
				c-11.9-14.8-4.2-23-4.2-23C363.6,433,361.1,429.8,358.3,426z"/>
			<path class="st78" d="M345,395.3l61.2-10.3c1,7.5-2.6,16.9-5.6,22.5c-61.5-1.2-89.4,10.8-89.4,10.8c0.3,21.5,2.3,33.3,4.4,40.8
				c-0.1,0-0.1,0.1-0.2,0.1l-2-0.7c0,0-11.7-40.6-12.1-64.8C301.3,393.7,324,387,345,395.3z"/>
		</g>
		<path class="st37" d="M412.3,341.6c6,0.2,14.5-15.2,11.8-48.9l-3-0.5C421.1,292.2,365,339.7,412.3,341.6z"/>
		<path class="st79" d="M406,307.1c-0.2,0.6-0.5,1.2-0.7,1.8c-4.6,13.4-3,26.1,3.7,28.4c3.5,1.2,7.7-0.8,11.5-4.8
			c-2.4,6.3-5.6,9.2-8.3,9.1C382.6,340.4,393.7,321.2,406,307.1z"/>
		<path class="st80" d="M293.6,371.7c-4.1-2.7-6.3-6.5-5-8.4c1.3-2,5.7-1.4,9.8,1.3c4.1,2.7,6.3,6.5,5,8.4
			C302,374.9,297.6,374.3,293.6,371.7z"/>
		<path class="st80" d="M403.9,344.5c3.7-3.2,7.9-4.4,9.5-2.7c1.6,1.8-0.1,5.8-3.8,9c-3.6,3.2-7.9,4.4-9.5,2.7
			C398.6,351.8,400.3,347.7,403.9,344.5z"/>
		<path class="st76" d="M405.4,401l-103.7,7.6c0,0-27.1-74.7,23.4-112.2c8.8-6.5,31.8-6.9,46,2.2C385.3,307.6,429.5,346.7,405.4,401
			z"/>
		<path class="st81" d="M301.5,369.4c15.1-2.1,33.3-5.4,37.8-14.1c4.5-8.7,7.8-59.3,7.8-59.3L301.5,369.4z"/>
		<path class="st81" d="M410.2,352.3c-2.8-5.4-5.9-3.3-14.4-1.2c-5.2,1.3-36.4-58.6-36.4-58.6C387.7,305.1,404.8,323,410.2,352.3z"
			/>
		<path class="st82" d="M364.7,322c14.4,2.7,26.1,15.8,26.3,29.2c0.2,13.5-11.3,22.2-25.7,19.5c-14.4-2.7-26.1-15.8-26.3-29.2
			C338.8,328,350.3,319.3,364.7,322z M366.1,366.3c11.6,2.2,20.9-4.9,20.8-15.7c-0.1-10.9-9.6-21.4-21.2-23.6
			c-11.6-2.2-20.9,4.9-20.8,15.7C345,353.5,354.5,364.1,366.1,366.3z"/>
		<path class="st81" d="M320.4,300.1c-26,37.6-9.4,93-4.4,107.4l-14.3,1C301.7,408.6,276.4,338.6,320.4,300.1z"/>
		<path class="st83" d="M413.8,343.8c0,0-8.8-1.4-16.4,1.8c-4.4-4.3-39.5-50-35.8-52.5c3.7-2.5,15-1.4,18.6,1.4
			C383.9,297.4,418,329.5,413.8,343.8z"/>
		<path class="st83" d="M331.5,355.2c5.1-3.2,16.8-53,13.9-57.9c-5.8-9.8-16.7-5.3-23.6-2.2c-14.2,6.5-44.6,58.3-32.5,71.9
			C293.3,363,320,362.4,331.5,355.2z"/>
		<path class="st37" d="M369.3,460.2h12.6c0,0-6.1-3.8-10.4-3.1C367.1,457.8,369.3,460.2,369.3,460.2z"/>
		<path class="st37" d="M319.1,460.2h-8.7c0,0,2.3-3.8,5.3-3.1C318.8,457.8,319.1,460.2,319.1,460.2z"/>
		<path class="st37" d="M284.9,370.1c4.6-6.5,19.3-36.2,13.4-41.8c-5.9-5.6-21.7-2.1-24.4,1.9c-2.7,4,4.3,36.7,6.7,39.2
			C283,371.9,284.9,370.1,284.9,370.1z"/>
		<path class="st79" d="M288.2,335.3c-5.9,0-10.6,10.3-10.6,23c0,0.7,0,1.3,0,2c-2.7-10.8-5.5-27.4-3.6-30.2
			c2.7-4,18.5-7.5,24.4-1.9c2.6,2.4,1.2,9.3-1.4,17C295,339.2,291.8,335.3,288.2,335.3z"/>
		<path class="st76" d="M299.6,334.8c0,0,30.8-39.9,22-39.4c-27.2,1.4-50.4,35-50.4,35S290.8,326.1,299.6,334.8z"/>
		<path class="st81" d="M292.5,308c-4.6,7.2-7,14.8-7.3,21.5c-7.3-0.5-14,0.9-14,0.9S279.7,318,292.5,308z"/>
		<polygon class="st84" points="283.7,373.3 285.6,373.8 271.6,425.5 269.8,425 		"/>
		<path class="st84" d="M246.7,456.4c0-2,1.5-3.5,3.4-3.5c1.9,0,3.4,1.6,3.4,3.5c0,2-1.5,3.5-3.4,3.5
			C248.2,459.9,246.7,458.3,246.7,456.4z"/>
		<path class="st84" d="M281.9,387.2c0,0-13.5,63.6-18.2,64.1c-4.7,0.5-39.6-0.5-42.1-7.3c-2.5-6.8,4.2-40.5,12.8-39.3
			c0,0,9.8-28.5,17.5-29.5C259.5,374.3,280.6,379.9,281.9,387.2z"/>
		<path class="st85" d="M234.4,404.8c0,0,9.8-28.5,17.5-29.5c4.7-0.6,14.5,1.3,21.7,4.6c-6.4-2.2-13.6-3.4-17.4-2.9
			c-7.6,1-17.9,29.8-17.9,29.8c-8.6-1.2-15.8,32.7-13.4,39.6c0.1,0.2,0.2,0.4,0.3,0.6c-1.8-0.8-3.1-1.8-3.5-2.9
			C219.1,437.2,225.8,403.6,234.4,404.8z"/>
		<path class="st84" d="M280.5,374.7c0-1.7,1.3-3.1,3-3.1c1.7,0,3,1.4,3,3.1c0,1.7-1.4,3.1-3,3.1
			C281.9,377.8,280.5,376.4,280.5,374.7z"/>
		<polygon class="st86" points="362.9,426.6 367.6,412.3 362.8,413.2 361.7,424.4 		"/>
		<path class="st87" d="M274.1,326.2c11.8-2.4,19.7-0.5,27.8,5.3l-2.4,3.8c-9.4-4.1-16.3-6.4-28.8-4.7L274.1,326.2z"/>
		<path class="st49" d="M378.8,298.3c-0.9,8.4-17.8,13.5-37.7,11.4c-14.3-1.5-27.8-5.5-34-10.8c4.5-2,9.2-3.3,14.1-3.6
			c0.2-0.1,0.4-0.2,0.6-0.3c4.8-2.2,11.5-5,17.1-3.2c7-0.7,15.1-0.1,22.5,2.2c-0.1-0.5,0-0.8,0.2-1c2.9-2,10.8-1.7,15.7,0
			C378.5,294.8,379,296.6,378.8,298.3z"/>
		<path class="st88" d="M325.1,279.3l14.6,4.2l6.9,14.6c-5.8,1.5-17.5-1.2-22.1-4.1L325.1,279.3z"/>
		<path class="st37" d="M375.3,296.3c2.7-4.7,1.6-10.7-5.5-18.1c0,0,4.6-5.6-4.4-13c-8.9-7.4-31.6-5.4-36,0.5
			c-4.4,6-5.3,29.8,13.8,34.2C363.8,304.7,372.2,301.5,375.3,296.3z"/>
		<path class="st89" d="M332,278.4l-4.9,0.6l-2.3,12.2c0,0-5.8-9.5-2.9-26.3l12.1-4.8L332,278.4z"/>
		<path class="st84" d="M378.8,282c0.2,2.2-31.3,3.8-33.6,1.3c-2.3-2.5,4.5-7.7,6.8-8.9c1.5-0.8,16-1.1,18.2-0.5
			C372.4,274.4,378.4,278.1,378.8,282z"/>
		<path class="st37" d="M361.6,269.7c4.6,2.2,8.8,4.9,5.7,7.8c-3.1,2.9-10.2-0.2-10.6-4.9C356.3,267.9,361.6,269.7,361.6,269.7z"/>
		<path class="st84" d="M345.9,271c0-1.4-1.1-2.5,3.8-3.3c4.9-0.8,9.9,0.3,9.9,1.7c0,1.4-4.1,3.3-9,4.2
			C345.7,274.5,345.9,272.4,345.9,271z"/>
		<path class="st84" d="M371.3,269.7c0.1-1.4,0.3-2.6-3.7-3c-4.1-0.4-7.5,0.4-7.6,1.8c-0.1,1.4,3.8,4,7.9,4.4
			C372,273.3,371.2,271.1,371.3,269.7z"/>
		<path class="st57" d="M365.7,276.8c3.1-2.5-1.1-4.9-5.7-6.7c0,0-1-0.3-2.1-0.3c1.5-0.8,3.7,0,3.7,0c4.6,2.2,8.8,4.9,5.7,7.8
			c-1.8,1.7-5,1.3-7.4-0.2C361.9,278,364.2,277.9,365.7,276.8z"/>
		<path class="st37" d="M330.7,279c-1.1-2.7-2.5-5.4-7.2-6.2c-4.7-0.9-8.2,7.3-0.3,11C331,287.5,330.7,279,330.7,279z"/>
		<path class="st45" d="M329.6,280c-0.7-1.7-1.6-3.5-4.6-4c-3-0.6-5.2,4.7-0.2,7.1C329.8,285.4,329.6,280,329.6,280z"/>
		<path class="st37" d="M329.6,282.1c-0.3-0.8-0.7-1.5-2.1-1.8c-1.3-0.3-2.3,2.1-0.1,3.1C329.7,284.6,329.6,282.1,329.6,282.1z"/>
		<path class="st37" d="M356.3,275.7c0-1.2-0.3-2.9,0.9-2.9c1.2,0,3.5,1.7,3.5,2.9c0,1.2-0.8,1.5-2,1.5
			C357.4,277.2,356.3,276.8,356.3,275.7z"/>
		<path class="st49" d="M321.1,273.1c0.1-2.5,0.3-5.2,0.8-8.2l0.8-0.3h41.9c0.3,0.2,0.6,0.4,0.8,0.6c0.6,0.5,1.2,1,1.7,1.5
			c0.2,0,0.3,0,0.5,0c4.1,0.4,3.9,1.6,3.7,3c-0.1,0.9,0.2,2.1-0.6,2.7c0.2,0.6,0.2,1.2,0.2,1.7c0.6,0.2,1.2,0.6,2,1l-53.8,4.9
			C317.8,277.2,319,274.2,321.1,273.1z"/>
		<path class="st90" d="M384.4,271c0,0-75.1-2.4-77.8-4l0.2-1.8l18.8-2.2l39.8,1.4l19.4,5.1L384.4,271z"/>
		<path class="st90" d="M366.5,264.8l-3.5-10.5l-27.8-8.5c0,0-5.7,13.4-11,18.3L366.5,264.8z"/>
		<polygon class="st83" points="328.2,257.8 366,261.2 367.3,265 324.2,263.2 		"/>
		<path class="st82" d="M358,347.6c-2.8-5.1-1.3-10.5,3.2-12.1c4.6-1.5,10.6,1.4,13.4,6.5c2.8,5.1,1.3,10.5-3.2,12.1
			C366.8,355.6,360.8,352.7,358,347.6z"/>
		<polygon class="st82" points="376.4,374.5 367.9,375.2 372.9,383.9 		"/>
		<polygon class="st82" points="355.1,319.9 363.5,319.3 356.6,312.2 		"/>
		<path class="st91" d="M279,386.5c-0.3-2.3-18.4-10.7-24.6-7.6c-6.3,3.1-16.8,21.8-13.8,25.5c3.1,3.8,27.2,11,29.8,8.9
			C273.1,411.2,279.7,391.4,279,386.5z"/>
		<path class="st91" d="M267.8,419.6c-0.6-2.3-27.5-10.8-33.2-6.9c-5.8,3.9-9.3,27.6-5.8,31c3.6,3.5,31,7.4,33.3,4.9
			C264.4,446.1,269.2,424.5,267.8,419.6z"/>
		<polygon class="st85" points="236.2,404.5 247.1,410.4 234.5,407.3 		"/>
		<path class="st85" d="M251.3,375.5c-5.5,1-15.8,8.9-7.8,10.6L251.3,375.5z"/>
		<path class="st85" d="M237.1,403.4c-5.6,0.5-16.6,7.4-8.8,9.9L237.1,403.4z"/>
		<path class="st78" d="M319.7,443.6c0,0-9-0.7-10.3-8.4l2.1,12.3C311.6,447.5,318.1,448,319.7,443.6z"/>
		<polygon class="st92" points="336.2,316.8 334.8,320.6 318.5,320.9 321.4,316.7 		"/>
		<path class="st79" d="M368.1,295.9c0-1.2,0.8-2.2,1.7-2.2c0.9,0,1.7,1,1.7,2.2c0,1.2-0.8,2.2-1.7,2.2
			C368.9,298.1,368.1,297.1,368.1,295.9z"/>
	</g>
	<g class="st0">
		<path class="st93" d="M429.7,229.5l-2.6,6.2h-0.3l-1.6-3.8l-1.9,3.8H423l-2.6-6.2h2.2l1.3,3.7l0.9-1.9l-0.8-1.8h2.2l1.4,3.7
			l1.3-3.7H429.7z"/>
		<path class="st93" d="M438.4,232.6h-4.9c0,0.8,0.2,1.5,0.7,1.9c0.5,0.5,1,0.7,1.6,0.7c0.8,0,1.4-0.3,1.7-1h0.5
			c-0.6,1-1.6,1.5-3,1.5c-1,0-1.9-0.3-2.6-0.9c-0.8-0.6-1.1-1.3-1.1-2.3c0-1,0.4-1.7,1.1-2.3c0.7-0.6,1.6-0.8,2.6-0.8
			c1,0,1.8,0.3,2.5,0.8C438.1,230.9,438.4,231.6,438.4,232.6z M436.2,232c0-0.3,0-0.6,0-0.8c0-0.2-0.1-0.4-0.1-0.7
			c-0.1-0.3-0.2-0.5-0.4-0.6c-0.2-0.1-0.4-0.2-0.7-0.2c-0.3,0-0.6,0.1-0.8,0.2c-0.2,0.1-0.3,0.3-0.4,0.6c-0.1,0.3-0.1,0.5-0.2,0.7
			c0,0.2,0,0.5-0.1,0.8H436.2z"/>
		<path class="st93" d="M441.9,235.7h-2v-15.4h2V235.7z"/>
		<path class="st93" d="M449.4,230.5l-0.3,0.3c-0.6-0.6-1.2-0.9-1.8-0.9c-0.5,0-0.9,0.2-1.2,0.7c-0.3,0.5-0.5,1.1-0.5,2
			c0,0.9,0.2,1.5,0.5,2c0.3,0.5,0.8,0.7,1.3,0.7c0.5,0,1-0.3,1.6-0.8l0.3,0.3c-0.5,0.6-1.3,0.9-2.3,0.9c-0.9,0-1.8-0.3-2.5-0.9
			c-0.7-0.6-1.1-1.3-1.1-2.2c0-0.9,0.4-1.7,1.1-2.3c0.7-0.6,1.6-0.9,2.5-0.9C448.1,229.5,448.8,229.8,449.4,230.5z"/>
		<path class="st93" d="M458.2,232.7c0,0.9-0.4,1.7-1.1,2.2c-0.7,0.6-1.6,0.9-2.5,0.9s-1.8-0.3-2.5-0.9c-0.8-0.6-1.1-1.3-1.1-2.2
			c0-1,0.4-1.8,1.1-2.3c0.7-0.6,1.6-0.8,2.6-0.8c1,0,1.8,0.3,2.6,0.8S458.2,231.6,458.2,232.7z M455.6,234.6c0.2-0.5,0.4-1.1,0.4-2
			c0-0.8-0.2-1.5-0.5-2c-0.3-0.5-0.6-0.8-1-0.8c-0.4,0-0.7,0.2-0.9,0.7c-0.3,0.4-0.4,1-0.4,1.8c0,0.9,0.2,1.6,0.5,2.2
			c0.3,0.6,0.7,0.8,1.1,0.8C455.1,235.3,455.4,235.1,455.6,234.6z"/>
		<path class="st93" d="M469.8,235.7h-2v-4.3c0-0.4-0.1-0.8-0.3-1c-0.2-0.3-0.4-0.4-0.7-0.4c-0.2,0-0.4,0.1-0.6,0.3
			c-0.2,0.2-0.3,0.5-0.4,0.9v4.6h-2V231c0-0.4-0.1-0.6-0.2-0.8c-0.2-0.2-0.4-0.3-0.6-0.3c-0.3,0-0.6,0.1-0.8,0.4
			c-0.2,0.2-0.4,0.6-0.4,0.9v4.5h-2v-6.2h2v0.7c0.5-0.6,1.1-0.9,1.9-0.9c0.9,0,1.5,0.4,1.9,1.1c0.4-0.7,1.1-1.1,2.1-1.1
			c0.6,0,1.1,0.2,1.5,0.5c0.4,0.4,0.6,0.8,0.6,1.5V235.7z"/>
		<path class="st93" d="M478.5,232.6h-4.9c0,0.8,0.2,1.5,0.7,1.9c0.5,0.5,1,0.7,1.6,0.7c0.8,0,1.4-0.3,1.7-1h0.5
			c-0.6,1-1.6,1.5-3,1.5c-1,0-1.9-0.3-2.6-0.9c-0.8-0.6-1.1-1.3-1.1-2.3c0-1,0.4-1.7,1.1-2.3c0.7-0.6,1.6-0.8,2.6-0.8
			c1,0,1.8,0.3,2.5,0.8C478.1,230.9,478.5,231.6,478.5,232.6z M476.3,232c0-0.3,0-0.6,0-0.8c0-0.2-0.1-0.4-0.1-0.7
			c-0.1-0.3-0.2-0.5-0.4-0.6c-0.2-0.1-0.4-0.2-0.7-0.2c-0.3,0-0.6,0.1-0.8,0.2c-0.2,0.1-0.3,0.3-0.4,0.6c-0.1,0.3-0.1,0.5-0.2,0.7
			c0,0.2,0,0.5-0.1,0.8H476.3z"/>
	</g>
	<g class="st0">
		<defs>
			<filter id="Adobe_OpacityMaskFilter" filterUnits="userSpaceOnUse" x="698.7" y="-30.1" width="7.6" height="3">
				<feFlood  style="flood-color:white;flood-opacity:1" result="back"/>
				<feBlend  in="SourceGraphic" in2="back" mode="normal"/>
			</filter>
		</defs>
		<mask maskUnits="userSpaceOnUse" x="698.7" y="-30.1" width="7.6" height="3" id="SVGID_6_">
			<g class="st94">
				<defs>
					<filter id="Adobe_OpacityMaskFilter_1_" filterUnits="userSpaceOnUse" x="698.7" y="-30.1" width="7.6" height="3">
						<feFlood  style="flood-color:white;flood-opacity:1" result="back"/>
						<feBlend  in="SourceGraphic" in2="back" mode="normal"/>
					</filter>
				</defs>
				<mask maskUnits="userSpaceOnUse" x="698.7" y="-30.1" width="7.6" height="3" id="SVGID_6_">
					<g class="st95">
					</g>
				</mask>
				<linearGradient id="SVGID_7_" gradientUnits="userSpaceOnUse" x1="716.5009" y1="-3.921" x2="884.4776" y2="290.0381">
					<stop  offset="0" style="stop-color:#808080"/>
					<stop  offset="0.9946" style="stop-color:#999999"/>
				</linearGradient>
				<polygon class="st96" points="706.4,-27.3 705.3,-28.2 706.3,-28.6 703.8,-29.7 704.9,-30.1 698.7,-29.9 699.4,-27 				"/>
			</g>
		</mask>
		<linearGradient id="SVGID_8_" gradientUnits="userSpaceOnUse" x1="716.5009" y1="-3.921" x2="884.4776" y2="290.0381">
			<stop  offset="0" style="stop-color:#FFDE92"/>
			<stop  offset="0.9946" style="stop-color:#220019"/>
		</linearGradient>
		<polygon class="st97" points="706.4,-27.3 705.3,-28.2 706.3,-28.6 703.8,-29.7 704.9,-30.1 698.7,-29.9 699.4,-27 		"/>
		<defs>
			<filter id="Adobe_OpacityMaskFilter_2_" filterUnits="userSpaceOnUse" x="715.2" y="-32" width="4.4" height="2.1">
				<feFlood  style="flood-color:white;flood-opacity:1" result="back"/>
				<feBlend  in="SourceGraphic" in2="back" mode="normal"/>
			</filter>
		</defs>
		<mask maskUnits="userSpaceOnUse" x="715.2" y="-32" width="4.4" height="2.1" id="SVGID_9_">
			<g class="st98">
				<defs>
					<filter id="Adobe_OpacityMaskFilter_3_" filterUnits="userSpaceOnUse" x="715.2" y="-32" width="4.4" height="2.1">
						<feFlood  style="flood-color:white;flood-opacity:1" result="back"/>
						<feBlend  in="SourceGraphic" in2="back" mode="normal"/>
					</filter>
				</defs>
				<mask maskUnits="userSpaceOnUse" x="715.2" y="-32" width="4.4" height="2.1" id="SVGID_9_">
					<g class="st99">
					</g>
				</mask>
				<linearGradient id="SVGID_10_" gradientUnits="userSpaceOnUse" x1="728.8518" y1="-10.9803" x2="896.8166" y2="282.9578">
					<stop  offset="0" style="stop-color:#808080"/>
					<stop  offset="0.9946" style="stop-color:#999999"/>
				</linearGradient>
				<polygon class="st100" points="717.2,-31.5 719.5,-31.5 715.2,-32 715.2,-30.7 719.4,-30 				"/>
			</g>
		</mask>
		<linearGradient id="SVGID_11_" gradientUnits="userSpaceOnUse" x1="728.8518" y1="-10.9803" x2="896.8166" y2="282.9578">
			<stop  offset="0" style="stop-color:#FFDE92"/>
			<stop  offset="0.9946" style="stop-color:#220019"/>
		</linearGradient>
		<polygon class="st101" points="717.2,-31.5 719.5,-31.5 715.2,-32 715.2,-30.7 719.4,-30 		"/>
	</g>
</g>
</svg>
