<?xml version="1.0" encoding="utf-8"?>
<!-- Generator: Adobe Illustrator 23.0.0, SVG Export Plug-In . SVG Version: 6.00 Build 0)  -->
<svg version="1.1" xmlns="http://www.w3.org/2000/svg" xmlns:xlink="http://www.w3.org/1999/xlink" x="0px" y="0px"
	 viewBox="0 0 500 500" style="enable-background:new 0 0 500 500;" xml:space="preserve">
<style type="text/css">
	._x005B_Por_x0020_defecto_x005D_{fill:#FFFFFF;stroke:#262424;stroke-miterlimit:10;}
	.Black{fill:url(#SVGID_1_);}
	.Estilo_x0020_gráfico{fill:url(#SVGID_2_);}
	.st0{fill:#D9E5F5;}
	.st1{fill:#F4F8FC;}
	.st2{fill:#D7A4AE;}
	.st3{fill:#6E76BA;}
	.st4{fill:#825275;}
	.st5{fill:#E9B8BF;}
	.st6{fill:#495193;}
	.st7{fill:#5A67A7;}
	.st8{fill:#5D4669;}
	.st9{fill:#93ACEA;}
	.st10{fill:#9AC5FC;}
	.st11{fill:#C6688D;}
	.st12{fill:#D87597;}
	.st13{fill:url(#XMLID_2_);}
</style>
<linearGradient id="SVGID_1_" gradientUnits="userSpaceOnUse" x1="88.6619" y1="361.3381" x2="88.6619" y2="360.3381">
	<stop  offset="0" style="stop-color:#3E3E3D"/>
	<stop  offset="0.3811" style="stop-color:#585857"/>
	<stop  offset="0.5434" style="stop-color:#636362"/>
	<stop  offset="0.673" style="stop-color:#6F6F6F"/>
	<stop  offset="0.6915" style="stop-color:#686868"/>
	<stop  offset="0.7372" style="stop-color:#5C5C5B"/>
	<stop  offset="0.7811" style="stop-color:#585857"/>
	<stop  offset="0.8954" style="stop-color:#4D4D4C"/>
	<stop  offset="1" style="stop-color:#3E3E3D"/>
</linearGradient>
<linearGradient id="SVGID_2_" gradientUnits="userSpaceOnUse" x1="88.6619" y1="361.3381" x2="88.725" y2="362.3361">
	<stop  offset="0" style="stop-color:#DCC474"/>
	<stop  offset="0.4838" style="stop-color:#EEE6A7"/>
	<stop  offset="1" style="stop-color:#B79B4F"/>
</linearGradient>
<g id="BACKGROUND">
</g>
<g id="OBJECTS">
	<path class="st0" d="M125,422.6c-57.6,0.2-74-0.2-88.6-14c-34.6-32.6-9.7-129,77.6-153.9c20.9-6,36.6-6,53-29.8
		c12.8-18.7,18-41.3,24.2-62.4c13.3-45.2,41.9-106,103.3-100.6c32.6,2.9,54.3,24.6,71.3,52c16.1,25.9,27.2,54.5,33.1,83.8
		c8,39.5,42.7,66,61.8,100.7c17.8,32.3,32.3,89.7-7,114.4C431.3,426.9,428.7,421.6,125,422.6z"/>
	<g id="XMLID_91_">
		<path id="XMLID_23_" class="st1" d="M123.1,355.3c0,0-15.6,3.8-25.3,1c-9.7-2.8-18.2-10.9-20.4-19.5c-2.1-8.7,7.3-11.9,12.8-4
			c5.5,7.9,9.2,20.5,32.4,19.4C123.1,355.3,123.1,355.3,123.1,355.3z"/>
		<path id="XMLID_46_" class="st2" d="M122,352.3c0,0,1.6-1.7,3.2-1.9c1.6-0.2,2.9-0.2,2.9,0.4c0,0.5-2.6,0.6-3,1.2
			c2.6,0.5,4.7-1,5.5-0.2c0.8,0.9-1.5,4.8-9.3,3.6"/>
		<path class="st3" d="M227.8,365.9c-6.3-0.7-12.1,1.3-16.5,4.8c0,0-0.1,0-0.1-0.1v-37.3h-37.7c-0.1,0-0.1,0.1-0.1,0.1
			c3.3,4,5.1,9.2,5,14.8c-0.4,11.4-9.5,20.8-20.9,21.5c-13,0.8-23.8-9.5-23.8-22.3c0-5.3,1.9-10.2,5-14c0,0,0-0.1-0.1-0.1h-37.6
			c0,0-0.1,0-0.1,0.1v96.2c0,7.6,6.2,13.7,13.7,13.7H211c0,0,0.1,0,0.1-0.1v-37.6c0-0.1,0.1-0.1,0.1-0.1
			c14.7,11.9,36.6,1.1,36.4-17.6C247.5,376.7,239,367.1,227.8,365.9z"/>
		<path id="XMLID_64_" class="st4" d="M79.3,322.4c-2.9-2.1-5.6-10.6,0-15c2.5-1.9,9.4-1.7,11.1,2.1c1.7,3.8-4.6,4.8-4.6,4.8
			S78.9,316.8,79.3,322.4z"/>
		<path id="XMLID_18_" class="st2" d="M71.2,371.2c0,0-3.6,5,2.7,25.9c2.5,10.9,5.8,42.8,5.8,42.8l3.5-0.6c0,0,7.7-48.8,3.1-75.8
			L71.2,371.2z"/>
		<path id="XMLID_20_" class="st1" d="M71.2,331.7c-3,5.6-8.3,18.6-7.2,40.5c1,20.4,21.4,9,23.9-15.6c2.5-24.6-2.4-27.5-6.1-29.4
			C79,325.6,73.8,326.8,71.2,331.7z"/>
		<path id="XMLID_13_" class="st5" d="M88.1,311.1c0,0,4.4,14.4-4.7,13.6c-5.2-0.9-4-5.2-4-5.2c-3.1-0.1-2.4-5.6,1.3-3.6l0.5-4.2
			C81.1,311.7,83.8,312.6,88.1,311.1z"/>
		<polygon id="XMLID_12_" class="st5" points="79.4,319.5 76.2,327.6 83.7,328.6 85.6,320 		"/>
		<path id="XMLID_19_" class="st5" d="M63.6,367.9c0,0-3.6,6.9,0.1,28.5c1.1,11.2,0.6,43.2,0.6,43.2l3.6-0.1c0,0,11.3-34.5,10-61.9
			L63.6,367.9z"/>
		<path id="XMLID_21_" class="st1" d="M108,369.4c0,0-15.9-2.2-23.9-8.4c-8-6.2-13-16.8-11.8-25.6c1.2-8.9,11.1-8.4,13.3,1
			c2.2,9.3,1.1,22.4,23,29.9C108,369.4,108,369.4,108,369.4z"/>
		<path id="XMLID_35_" class="st5" d="M67.7,439c0,0,0.2,1.5,4.2,2.4c1.6,0.3,1.9,1.9,1.9,1.9h-9.6c0,0-1.2-1.1,0.2-3.7L67.7,439z"
			/>
		<path id="XMLID_38_" class="st2" d="M83,439c0,0,0.2,1.5,4.2,2.4c1.6,0.3,1.9,1.9,1.9,1.9h-9.6c0,0-1.2-1.1,0.2-3.7L83,439z"/>
		<path id="XMLID_45_" class="st5" d="M108.6,366.3c0,0,1.6-1.7,3.2-1.9c1.6-0.2,2.9-0.2,2.9,0.4s-2.6,0.6-3,1.2
			c2.6,0.5,4.7-1,5.5-0.2c0.8,0.9-1.5,4.8-9.3,3.6"/>
		<path id="XMLID_57_" class="st6" d="M72.8,401.1l3.3,36.9h9.4c0,0,4.8-58.4,0.9-73.7h-1.6L72.8,401.1z"/>
		<path id="XMLID_29_" class="st7" d="M63.8,364.3c-3.8,10.5-3,39.6-3,73.7H70c7.5-37.7,14.2-63.4,14.8-73.7H63.8z"/>
		<g id="XMLID_74_">
			<path id="XMLID_76_" class="st8" d="M68.7,440.2l-0.4,0.9l-4.5-0.2c-0.5,1.7,0.3,2.4,0.3,2.4h9.6C73.3,441,71,441.7,68.7,440.2z"
				/>
		</g>
		<g id="XMLID_73_">
			<path id="XMLID_75_" class="st8" d="M84,440.2l-0.4,0.9l-4.5-0.2c-0.5,1.7,0.3,2.4,0.3,2.4h9.6C88.6,441,86.3,441.7,84,440.2z"/>
		</g>
	</g>
	<path class="st9" d="M261.5,222.8v37.9c-15.2-12.5-38.5-0.4-36.4,19.6c1,9.6,8.2,17.7,17.7,19.6c7.1,1.4,13.8-0.6,18.7-4.6v37.9
		h38.2c-12.2-14.3-2.3-36,15.9-36.9c19.7-0.9,30.7,22.1,18.1,36.9h38.2v-96.7c0-7.5-6.1-13.7-13.7-13.7H261.5z"/>
	<g id="XMLID_72_">
		<path id="XMLID_6_" class="st2" d="M367.4,366.4c0,0,16,1.1,25.1-3.2c9.1-4.3,16.2-13.7,16.9-22.6c0.7-8.9-9.1-10.5-13.2-1.8
			c-4.1,8.7-5.7,21.7-28.8,24.4C367.4,366.4,367.4,366.4,367.4,366.4z"/>
		<path id="XMLID_47_" class="st2" d="M359.4,362.7c0.8-0.9,2.9,0.6,5.5,0.2c-0.4-0.6-3-0.7-3-1.2c0-0.5,1.3-0.6,2.9-0.4
			c1.6,0.2,3.2,1.9,3.2,1.9l0.7,3.1C360.9,367.5,358.6,363.6,359.4,362.7z"/>
		<path class="st10" d="M371.9,332.8v0.4h-38.2c12.2-14.3,2.3-36-15.9-36.9c-12.8-0.6-23.4,9.6-23.4,22.3c0,5.6,2,10.6,5.4,14.5
			h-38.2v37.5c13.7-11.3,34.5-2.6,36.4,14.8c2.2,20.2-21.1,32.4-36.4,19.8v37.9h96.7c7.5,0,13.7-6.1,13.7-13.7L371.9,332.8z"/>
		<path id="XMLID_65_" class="st7" d="M398.5,330.8c0,0,2.1-6-1.6-10c-5.9-6.4-14.1,1.9-10.4,4.7
			C390.1,328.1,398.5,330.8,398.5,330.8z"/>
		<path id="XMLID_7_" class="st5" d="M386.5,324.4c0,0,1,15.1,9.3,11c4.5-2.8,1.9-6.3,1.9-6.3c2.8-1.2,0.2-6.1-2.5-2.9l-2-3.8
			C393.1,322.4,391,324.3,386.5,324.4z"/>
		<polygon id="XMLID_10_" class="st5" points="397.6,329.1 402.3,334.1 396.8,339.2 392,331.8 		"/>
		<path id="XMLID_8_" class="st2" d="M427.8,372.4c0,0,3.1,5.3-5.4,25.5c-3.6,10.6-10.1,42-10.1,42l-3.6-0.7c0,0-3.8-38.7,3.5-65.1
			L427.8,372.4z"/>
		<path id="XMLID_5_" class="st1" d="M401.4,333.1c3.2-0.9,6.9,0.3,9.5,2.3c5.3,3.9,16,13.9,24.1,34.4c7.5,19.2-17.4,16.7-30.2-5
			c-12.8-21.7-9.1-26.3-6.4-29.5C399.3,334.3,400.2,333.4,401.4,333.1z"/>
		<path id="XMLID_9_" class="st5" d="M435,369.8c0,0,4.4,4.3,1.4,26c-0.7,11.2,1,43.2,1,43.2h-3.6c0,0-12.6-34-12.3-61.4L435,369.8z
			"/>
		<path id="XMLID_22_" class="st5" d="M367.4,372.6c0,0,16,1.1,25.1-3.2c9.1-4.3,16.2-13.7,16.9-22.6c0.7-8.9-9.1-10.5-13.2-1.8
			c-4.1,8.7-5.7,21.7-28.8,24.4C367.4,372.6,367.4,372.6,367.4,372.6z"/>
		<path id="XMLID_39_" class="st2" d="M408.7,439c0,0-0.2,1.5-4.2,2.4c-1.6,0.3-1.9,1.9-1.9,1.9h9.6c0,0,1.2-1.1-0.2-3.7L408.7,439z
			"/>
		<path id="XMLID_40_" class="st2" d="M433.7,438.5c0,0,0.5,2.1-2.3,2.6c-2,0.5-1.7,2.2-1.7,2.2l5,0l4.4-2.7c0,0,0.5-1.6-2.1-3
			L433.7,438.5z"/>
		<path id="XMLID_48_" class="st5" d="M359,368.9c0.8-0.9,2.9,0.6,5.5,0.2c-0.4-0.6-3-0.7-3-1.2c0-0.5,1.3-0.6,2.9-0.4
			c1.6,0.2,3.2,1.9,3.2,1.9l0.7,3.1C360.5,373.7,358.2,369.8,359,368.9z"/>
		<path id="XMLID_60_" class="st11" d="M423.9,394.2c0,0-8.6,34.9-10.1,45.6c-4.7,0-6.4,0-6.4,0s-3.1-49.3,4.8-65.8
			C433.5,384.5,423.9,394.2,423.9,394.2z"/>
		<path id="XMLID_62_" class="st12" d="M433.2,365.4c5.6,5.6,5.7,20.2,4.3,31.7c-1.4,11.5,1.2,40.1,1.2,40.1s-0.5,0-5.3,1.8
			c-5-9-8.6-22-10-32.9c-3.2-25.2-11.2-32-11.2-32L433.2,365.4z"/>
		<path id="XMLID_63_" class="st1" d="M405.5,359.4l-13.6-7.6c0,0,2.1-16.3,9.4-18.7S415.6,347.9,405.5,359.4z"/>
		<g id="XMLID_68_">
			<path id="XMLID_77_" class="st8" d="M407.7,440.2l0.4,0.9l4.5-0.2c0.5,1.7-0.3,2.4-0.3,2.4h-9.6
				C403.1,441,405.5,441.7,407.7,440.2z"/>
		</g>
		<g id="XMLID_80_">
			<path id="XMLID_82_" class="st8" d="M437.9,438.2l-3.8,2.8l-1-0.6c-0.3,0.3-0.9,0.7-1.7,0.8c-2,0.5-1.7,2.2-1.7,2.2l5,0l4.4-2.7
				C439.1,440.6,439.5,439.4,437.9,438.2z"/>
		</g>
	</g>
	<g id="XMLID_71_">
		<path id="XMLID_32_" class="st2" d="M207,193.7c0,0-6.2,19.7-20.3,28.2c-4.2,2.6-4.2,13.6,5.4,10.4c7.3-2.4,17.3-27.1,16.9-38.6
			H207z"/>
		<path id="XMLID_49_" class="st2" d="M212.3,188.1c-1.1,0-1.5,2.4-3.6,3.8c-0.1-0.7,1.6-2.5,1.2-2.8c-0.4-0.4-1.3,0.5-2.2,1.7
			c-0.9,1.2-0.9,3.3-0.9,3.3l1.6,2.5C214.5,192.3,213.4,188.2,212.3,188.1z"/>
		<g id="XMLID_69_">
			<g id="XMLID_88_">
				<path id="XMLID_24_" class="st2" d="M328.1,168.9c0,0-12.9,11.8-10.3,20.3c2.6,8.5,7.2,28.1,7.2,28.1l-3.3,1.1
					c0,0-16.7-24.1-14.9-37.8c1.8-13.8,13.6-30.7,13.6-30.7S334.7,156.8,328.1,168.9z"/>
				<path id="XMLID_41_" class="st2" d="M321.6,218c0,0,0.5,2.1-2.3,2.6c-2,0.5-1.7,2.2-1.7,2.2l5,0l4.4-2.7c0,0,0.5-1.6-2.1-3
					L321.6,218z"/>
				<path id="XMLID_53_" class="st2" d="M322.8,117.8c-4.6-4.5-10.1,1.2-13.5,10c-3.3,8.8-13.5,13-23,6.5l-1.3,2.1
					c0,0,5.2,6.8,16.2,6.9C315.7,143.5,328.4,123.3,322.8,117.8z"/>
				<path id="XMLID_25_" class="st6" d="M318,147.7c0,0-15,28.8-12.2,42.6l12.1,29l8.2-2.1c0,0-7.1-22.4-7.1-31l10.8-20.6L318,147.7
					z"/>
				<path id="XMLID_52_" class="st2" d="M278.1,131.7c1-0.6,2.7,1.3,5.3,1.5c-0.3-0.7-2.8-1.4-2.6-1.9c0.1-0.5,1.4-0.2,2.9,0.4
					c1.5,0.6,2.6,2.6,2.6,2.6l-0.1,3.2C278.3,136.7,277.1,132.3,278.1,131.7z"/>
				<linearGradient id="XMLID_2_" gradientUnits="userSpaceOnUse" x1="158.103" y1="151.6504" x2="316.1744" y2="151.6504">
					<stop  offset="0" style="stop-color:#8099E3"/>
					<stop  offset="1" style="stop-color:#93ACEA"/>
				</linearGradient>
				<path id="XMLID_15_" class="st13" d="M160.3,181.8c7.4,15.8,29.8,17.3,39.2,2.2l12.2,35.8l35.8-12.2
					c-15.1-9.4-13.6-31.8,2.2-39.2c18.4-8.6,37.5,9.5,30.5,28l35.8-12.2L285,92.7c-2.4-7.1-10.2-11-17.3-8.5l-91.5,31.2l12.2,35.8
					C169.8,144.3,151.7,163.4,160.3,181.8z"/>
				<path id="XMLID_67_" class="st4" d="M303.6,106.6c0,0-2.7,0.2-3.1-3.7c-0.4-3.5,5-8.7,12-5c1.3-2.9,5.9-2.3,7.4,4
					c2,8.3-5.6,11.7-5.6,11.7L303.6,106.6z"/>
				<path id="XMLID_28_" class="st5" d="M302.6,103.8c0,0,1,15.1,9.3,11c4.5-2.8,1.9-6.3,1.9-6.3c2.8-1.2,0.2-6.1-2.5-2.9l-2-3.8
					C309.3,101.9,307.1,103.7,302.6,103.8z"/>
				<polygon id="XMLID_27_" class="st5" points="313.8,108.5 317.5,114.9 313,118.6 308.1,111.2 				"/>
				<path id="XMLID_11_" class="st1" d="M322.9,161c0,0-16.3-37.1-9.8-44c6.6-6.9,15.2,3.6,19.3,18.9l3.7,13.6L322.9,161z"/>
				<path id="XMLID_26_" class="st5" d="M323.1,149.9c-2.5,20.3,8,55.2,14.2,68.8l3.3,0.6c0,0-3.7-34-3.3-54.1
					c0.3-16.4-2.6-20.6-2.6-20.6L323.1,149.9z"/>
				<path id="XMLID_42_" class="st5" d="M337.3,218.5c0,0-0.2,1.5-4.2,2.4c-1.6,0.3-1.9,1.9-1.9,1.9h9.6c0,0,0.9-1.7-0.2-3.7
					L337.3,218.5z"/>
				<path id="XMLID_51_" class="st5" d="M279.8,141c0.8-0.9,2.9,0.6,5.5,0.2c-0.4-0.6-3-0.7-3-1.2c0-0.5,1.3-0.6,2.9-0.4
					c1.6,0.2,3.2,1.9,3.2,1.9l0.7,3.1C281.3,145.7,279,141.8,279.8,141z"/>
				<path id="XMLID_55_" class="st7" d="M317.6,147.7l16.6-5.4c0,0,3.7,4,5.3,20.1c1.6,16.1,2.8,56.2,2.8,56.2l-7.4-0.3L317.6,147.7
					z"/>
				<g id="XMLID_56_">
					<path id="XMLID_58_" class="st1" d="M319.7,116.4c-4.4-2.6-7.8,1.3-9.6,7.6l10.6,6.4C323,124.2,322.9,118.2,319.7,116.4z"/>
					<path id="XMLID_59_" class="st5" d="M310.1,124c-0.5,1.6-0.8,3.4-1,5.4c-1.1,9.3-9.9,15.9-20.7,12l-0.8,2.5
						c6.1,4.6,25.4,7.5,33.1-13.5L310.1,124z"/>
				</g>
			</g>
			<g id="XMLID_85_">
				<g>
					<path id="XMLID_70_" class="st8" d="M319.1,220.7l0.2,0.6h3.1l2.9-1.8c-0.6-1.3,0.4-1.9,0.5-1.9c1.8,1.3,1.4,2.5,1.4,2.5
						l-4.4,2.7l-5,0C317.6,222.8,317.3,221.3,319.1,220.7z"/>
				</g>
			</g>
			<g id="XMLID_79_">
				<path id="XMLID_83_" class="st8" d="M333.7,220.8l0.2,0.6c0,0,2.4,0,5.6,0c0.3-1,1-1.4,1.4-1.6c0.8,2-0.1,3.1-0.1,3.1h-9.6
					C331.5,221.2,332.9,221,333.7,220.8z"/>
			</g>
		</g>
		<path id="XMLID_50_" class="st2" d="M195.5,253H185c0,0-7.9,5.7-0.9,29.8c6.2,21.3-4.6,45.8-4.6,45.8l3.1,1.7
			C182.7,330.3,204.9,298.6,195.5,253z"/>
		<path id="XMLID_34_" class="st5" d="M194.5,207.6c0,0,5.1,14.2-4.1,13.8c-5.3-0.7-4.3-5-4.3-5c-3.1,0-2.6-5.5,1.2-3.6l0.3-4.3
			C187.6,208.4,190.4,209.3,194.5,207.6z"/>
		<polygon id="XMLID_33_" class="st5" points="186.2,216.9 184.1,226.9 190.3,225.7 191.7,217.1 		"/>
		<path id="XMLID_31_" class="st1" d="M185.9,261.6c0,0-8-32.3,0-37.5c8-5.2,13.9,7,14.5,22.8l0.5,14L185.9,261.6z"/>
		<path id="XMLID_30_" class="st5" d="M214.1,195.2c0,0-6.6,20.7-21.4,28.8c-1.6,0.9-2.9,2.4-3.7,4.1c-1.9,4.6,2.6,8.9,6.3,7
			c6.8-3.6,21.2-28.4,20.9-39.9H214.1z"/>
		<path id="XMLID_54_" class="st5" d="M200.6,253h-13.2c0,0-4.4,7.3,2,31.8c7.7,29.5,6.7,45.5,6.7,45.5h3.1
			C199.2,330.3,206.9,280.5,200.6,253z"/>
		<path id="XMLID_44_" class="st5" d="M199.4,329c0,0,0.2,1.5,4.2,2.4c1.6,0.3,1.9,1.9,1.9,1.9h-9.6c0,0-1.1-1.4,0.4-4L199.4,329z"
			/>
		<path id="XMLID_43_" class="st2" d="M183.6,328.5c0,0-0.5,2.1,2.3,2.6c2,0.5,1.7,2.2,1.7,2.2l-5,0l-4.4-2.7c0,0-0.5-1.6,2.1-3
			L183.6,328.5z"/>
		<path id="XMLID_37_" class="st5" d="M219.5,189.5c-1.1,0-1.5,2.4-3.6,3.8c-0.1-0.7,1.6-2.5,1.2-2.8c-0.4-0.4-1.3,0.5-2.2,1.7
			c-0.9,1.2-0.9,3.3-0.9,3.3l1.6,2.5C221.7,193.6,220.6,189.5,219.5,189.5z"/>
		<path id="XMLID_36_" class="st12" d="M184.1,253c0,0-5.3,7.2-2.7,22.5c2.6,15.3,4.6,21.3,4.6,21.3h17.2c0,0,2.3-29.4-2.5-43.8
			C189.9,253,184.1,253,184.1,253z"/>
		<path id="XMLID_66_" class="st7" d="M189.4,205.8c2.7-0.6,6,0.4,7,3.2c1.3,3.6-8,3-8,3s2.2,5.9-1.3,9.8s1.9,8.4-1.1,13.9
			c-3,5.5-12.2,4.4-12.4-3.8c-0.2-8.2,4.2-12.1,7.7-16.6c2.4-3.2,3.2-7.9,7.6-9.3C189,205.9,189.2,205.9,189.4,205.8z"/>
		<g id="XMLID_78_">
			<path id="XMLID_84_" class="st8" d="M186.1,331.3l-0.2,0.6h-3.1L180,330c0.6-1.3-0.4-1.9-0.5-1.9c-1.8,1.3-1.4,2.5-1.4,2.5
				l4.4,2.7l5,0C187.6,333.4,187.9,331.8,186.1,331.3z"/>
		</g>
		<g id="XMLID_81_">
			<path id="XMLID_86_" class="st8" d="M203.5,331.5c-0.2,0-0.4-0.1-0.6-0.1l-0.2,0.6c0,0-2.4,0-5.6,0c-0.3-1-1-1.4-1.4-1.6
				c-0.8,2,0.1,3.1,0.1,3.1h9.6C205.4,333.4,205.1,331.8,203.5,331.5z"/>
		</g>
	</g>
</g>
<g id="DESIGNED_BY_FREEPIK">
</g>
</svg>
