<svg height="511pt" viewBox="1 -54 511.999 511" width="511pt" xmlns="http://www.w3.org/2000/svg"><path d="m496.519531 338.554688h-481.039062c-4.410157 0-7.988281-3.578126-7.988281-7.992188v-41.40625c0-4.414062 3.578124-7.992188 7.988281-7.992188h481.035156c4.414063 0 7.992187 3.578126 7.992187 7.992188v41.40625c0 4.414062-3.578124 7.992188-7.988281 7.992188zm0 0" fill="#e7e7e7"/><path d="m496.519531 338.554688h-30.402343v-57.390626h30.402343c4.410157 0 7.988281 3.578126 7.988281 7.992188v41.40625c0 4.414062-3.578124 7.992188-7.988281 7.992188zm0 0" fill="#cecece"/><path d="m72.816406 395.351562h-28.644531c-7.105469 0-12.859375-5.757812-12.859375-12.859374v-43.9375h54.363281v43.9375c0 7.101562-5.753906 12.859374-12.859375 12.859374zm0 0" fill="#bfbfbf"/><path d="m467.828125 395.351562h-28.644531c-7.105469 0-12.859375-5.757812-12.859375-12.859374v-43.9375h54.363281v43.9375c0 7.101562-5.753906 12.859374-12.859375 12.859374zm0 0" fill="#bfbfbf"/><path d="m85.675781 338.550781v43.941407c0 7.101562-5.753906 12.863281-12.855469 12.863281h-20.039062c7.101562 0 12.867188-5.761719 12.867188-12.863281v-43.941407zm0 0" fill="#acacac"/><path d="m480.695312 338.550781v43.941407c0 7.101562-5.765624 12.863281-12.867187 12.863281h-20.035156c7.101562 0 12.863281-5.761719 12.863281-12.863281v-43.941407zm0 0" fill="#acacac"/><path d="m57.410156 197.8125 9.859375 83.648438h102.976563l9.863281-83.648438c.414063-3.53125-2.34375-6.636719-5.898437-6.636719h-110.902344c-3.554688 0-6.316406 3.105469-5.898438 6.636719zm0 0" fill="#d1a190"/><path d="m180.105469 197.808594-9.859375 83.648437h-21.972656l9.859374-83.648437c.417969-3.523438-2.335937-6.628906-5.894531-6.628906h21.976563c3.554687 0 6.3125 3.105468 5.890625 6.628906zm0 0" fill="#c78e7a"/><path d="m396.121094 281.164062h-75.527344v-268.179687c0-2.757813 2.234375-4.992187 4.992188-4.992187h65.542968c2.757813 0 4.992188 2.234374 4.992188 4.992187zm0 0" fill="#ffb509"/><path d="m396.121094 281.164062h-23.707032v-273.171874h18.714844c2.757813 0 4.992188 2.234374 4.992188 4.992187zm0 0" fill="#fa0"/><path d="m320.792969 281.164062h-69.992188v-192.882812c0-2.757812 2.234375-4.992188 4.992188-4.992188h65zm0 0" fill="#ff5757"/><path d="m297.636719 83.289062h23.152343v197.875h-23.152343zm0 0" fill="#ff4343"/><path d="m366.421875 174.566406h-16.125c-3.3125 0-5.996094-2.683594-5.996094-5.996094v-125.019531c0-3.308593 2.683594-5.992187 5.996094-5.992187h16.125c3.308594 0 5.992187 2.683594 5.992187 5.992187v125.019531c0 3.3125-2.683593 5.996094-5.992187 5.996094zm0 0" fill="#838383"/><path d="m366.421875 174.566406h-8.066406v-137.011718h8.066406c3.308594 0 5.992187 2.683593 5.992187 5.996093v125.019531c0 3.3125-2.683593 5.996094-5.992187 5.996094zm0 0" fill="#5a5a5a"/><path d="m250.800781 132.832031h69.992188v41.734375h-69.992188zm0 0" fill="#9ae7fd"/><path d="m297.636719 132.832031h23.152343v41.734375h-23.152343zm0 0" fill="#64dcfc"/><path d="m466.113281 281.164062h-69.992187v-248.910156h65c2.757812 0 4.992187 2.234375 4.992187 4.992188zm0 0" fill="#00d1fc"/><path d="m466.113281 281.164062h-23.152343v-248.910156h18.160156c2.757812 0 4.992187 2.234375 4.992187 4.992188zm0 0" fill="#00c1fb"/><path d="m396.121094 94.574219h69.992187v52.496093h-69.992187zm0 0" fill="#e7e7e7"/><path d="m442.960938 94.574219h23.152343v52.496093h-23.152343zm0 0" fill="#cecece"/><path d="m459.753906 369.027344c0 3.449218-2.796875 6.25-6.246094 6.25-3.453124 0-6.25-2.800782-6.25-6.25 0-3.449219 2.796876-6.246094 6.25-6.246094 3.449219 0 6.246094 2.796875 6.246094 6.246094zm0 0"/><path d="m64.742188 369.027344c0 3.449218-2.796876 6.25-6.25 6.25-3.449219 0-6.246094-2.800782-6.246094-6.25 0-3.449219 2.796875-6.246094 6.246094-6.246094 3.453124 0 6.25 2.796875 6.25 6.246094zm0 0"/><path d="m116.65625 63.117188c-36.28125 47.304687-14.890625 127.863281-14.890625 127.863281h33.988281s21.386719-80.558594-14.894531-127.863281c-1.0625-1.390626-3.136719-1.390626-4.203125 0zm0 0" fill="#00d3b4"/><path d="m135.753906 190.980469h-12.347656s19.714844-74.253907-10.820312-122.050781c1.277343-2 2.640624-3.953126 4.097656-5.851563 1.054687-1.371094 3.125-1.332031 4.179687.039063 36.277344 47.308593 14.890625 127.863281 14.890625 127.863281zm0 0" fill="#00b7a0"/><path d="m79.273438 190.980469s-25.042969-34-25.042969-82.355469c0 0 .214843-8.246094.691406-13.09375.167969-1.746094 1.96875-2.835938 3.59375-2.183594 10.542969 4.226563 44.972656 23.59375 50.246094 97.632813zm0 0" fill="#00d3b4"/><path d="m158.246094 190.980469s25.039062-34 25.042968-82.355469c0 0-.214843-8.246094-.691406-13.09375-.167968-1.746094-1.96875-2.835938-3.59375-2.183594-10.542968 4.226563-44.972656 23.59375-50.246094 97.632813zm0 0" fill="#00d3b4"/><path d="m108.761719 190.980469h-12.347657c-4.242187-59.511719-27.316406-83.703125-41.679687-93.101563.054687-.828125.121094-1.617187.191406-2.335937.167969-1.75 1.964844-2.847657 3.597657-2.195313 10.546874 4.230469 44.964843 23.605469 50.238281 97.632813zm0 0" fill="#00b7a0"/><path d="m183.285156 108.625c0 48.355469-25.039062 82.355469-25.039062 82.355469h-12.347656s25.039062-34 25.039062-82.355469c0 0-.152344-5.976562-.496094-10.746094 3.507813-2.292968 6.496094-3.703125 8.5625-4.53125 1.625-.652344 3.421875.4375 3.59375 2.183594.472656 4.847656.6875 13.09375.6875 13.09375zm0 0" fill="#00b7a0"/><path d="m366.421875 182.054688c7.433594 0 13.484375-6.046876 13.484375-13.484376v-125.019531c0-7.4375-6.050781-13.484375-13.484375-13.484375h-16.125c-7.4375 0-13.488281 6.046875-13.488281 13.484375v125.019531c0 7.4375 6.050781 13.484376 13.488281 13.484376zm-14.628906-137.007813h13.128906v122.027344h-13.128906zm0 0"/><path d="m496.519531 273.671875h-22.910156v-236.425781c0-6.882813-5.601563-12.484375-12.488281-12.484375h-57.507813v-11.777344c0-6.882813-5.597656-12.484375-12.484375-12.484375h-65.542968c-6.882813 0-12.484376 5.601562-12.484376 12.484375v19.265625c0 4.140625 3.351563 7.492188 7.492188 7.492188 4.136719 0 7.488281-3.355469 7.488281-7.492188v-16.765625h60.550781v258.191406h-60.351562v-190.386719c0-.585937-.070312-1.148437-.199219-1.695312v-15.195312c0-4.140626-3.351562-7.492188-7.488281-7.492188-4.140625 0-7.492188 3.355469-7.492188 7.492188v9.398437h-57.308593c-6.882813 0-12.484375 5.601563-12.484375 12.484375v185.394531h-64.601563l8.839844-74.984375c.449219-3.808594-.753906-7.632812-3.300781-10.496094-2.542969-2.867187-6.203125-4.511718-10.035156-4.511718h-2.722657c7.855469-14.488282 19.289063-41.355469 19.289063-75.0625 0-.0625 0-.128906 0-.191406-.007813-.347657-.226563-8.574219-.722656-13.632813-.308594-3.148437-2.109376-6.011719-4.8125-7.65625-2.707032-1.644531-6.082032-1.925781-9.027344-.746094-6.121094 2.453125-17.796875 8.710938-28.921875 23.265625-3.273438-20.304687-10.164063-37.644531-20.484375-51.101562-1.9375-2.527344-4.871094-3.972656-8.046875-3.972656s-6.109375 1.445312-8.046875 3.972656c-10.335938 13.476562-17.246094 30.832031-20.515625 51.171875-11.367188-14.894531-23.285157-21.089844-28.894531-23.335938-2.945313-1.175781-6.316407-.898437-9.023438.746094s-4.503906 4.507813-4.8125 7.660156c-.496094 5.054688-.714844 13.28125-.722656 13.625 0 .066407-.003906.132813-.003906.195313 0 5.484375.3125 11.054687.925781 16.5625.457031 4.113281 4.160156 7.078125 8.273437 6.617187 4.113282-.457031 7.074219-4.160156 6.617188-8.273437-.546875-4.925782-.828125-9.90625-.832032-14.804688.011719-.476562.078126-2.671875.195313-5.265625 12.160156 7.476563 33.121094 27.761719 38.664063 80.035157h-17.300782c-2.925781-4.636719-8.488281-14.324219-13.199218-27.5625-1.386719-3.894532-5.671876-5.933594-9.570313-4.542969-3.898437 1.386719-5.929687 5.667969-4.542969 9.566406 3.304688 9.292969 6.976563 16.988281 10.082032 22.730469h-2.746094c-3.832032 0-7.492188 1.644531-10.035156 4.511718-2.546876 2.863282-3.75 6.6875-3.300782 10.496094l8.839844 74.984375h-43.332031c-8.535157-.003906-15.480469 6.945313-15.480469 15.480469v41.40625c0 8.539062 6.945312 15.484375 15.480469 15.484375h8.339843v36.445313c0 11.222656 9.128907 20.351562 20.351563 20.351562h28.644531c11.222656 0 20.351563-9.128906 20.351563-20.351562v-36.445313h325.660156v36.445313c0 11.222656 9.132813 20.351562 20.351563 20.351562h28.648437c11.222656 0 20.351563-9.128906 20.351563-20.351562v-36.445313h8.335937c8.539063 0 15.484375-6.945313 15.484375-15.484375v-41.40625c0-8.535156-6.945312-15.484375-15.480469-15.484375zm-92.90625-233.925781h55.011719v47.335937h-55.011719zm0 62.320312h55.011719v37.511719h-55.011719zm0 52.496094h55.011719v119.109375h-55.011719zm-145.324219-63.785156h54.8125v34.5625h-54.8125zm0 49.546875h54.8125v26.75h-54.8125zm0 41.730469h54.8125v91.617187h-54.8125zm-82.6875-78.597657c.117188 2.597657.179688 4.789063.195313 5.265625-.03125 37.132813-15.851563 65.675782-21.566406 74.765625h-17.292969c5.542969-52.269531 26.503906-72.558593 38.664062-80.03125zm-56.839843-30.277343c11.066406 17.457031 14.96875 38.976562 15.621093 58.71875-6.355468 14.59375-10.53125 31.851562-12.496093 51.589843h-6.25c-2.132813-21.386719-6.753907-38.203125-12.496094-51.410156.628906-19.789063 4.515625-41.382813 15.621094-58.898437zm53.703125 125.488281-8.84375 75.003906h-89.722656l-8.84375-75.003906zm-107.613282-1.734375v.011718zm13.335938 185.558594c0 2.960937-2.410156 5.367187-5.367188 5.367187h-28.648437c-2.960937 0-5.371094-2.40625-5.371094-5.367187v-36.445313h39.382813v36.445313zm395.011719 0c0 2.960937-2.410157 5.367187-5.371094 5.367187h-28.644531c-2.960938 0-5.371094-2.40625-5.371094-5.367187v-36.445313h39.386719zm23.816406-51.929688c0 .277344-.222656.5-.5.5h-481.035156c-.273438 0-.496094-.222656-.496094-.5v-41.40625c0-.273438.222656-.5.496094-.5h481.035156c.277344 0 .5.226562.5.5zm0 0"/></svg>