<?xml version="1.0" encoding="utf-8"?>
<!-- Generator: Adobe Illustrator 23.0.0, SVG Export Plug-In . SVG Version: 6.00 Build 0)  -->
<svg version="1.1" id="Layer_1" xmlns="http://www.w3.org/2000/svg" xmlns:xlink="http://www.w3.org/1999/xlink" x="0px" y="0px"
	 viewBox="0 0 512 512" style="enable-background:new 0 0 512 512;" xml:space="preserve">
<style type="text/css">
	.st0{fill:#EA6A25;}
	.st1{fill:#D85D27;}
	.st2{fill:#F37C2A;}
	.st3{fill:#DB6D23;}
	.st4{stroke:#000000;stroke-width:3;stroke-miterlimit:10;}
</style>
<g id="_x34_91_x2C__ball_x2C__sports_x2C__game_x2C__education">
	<g>
		<path class="st0" d="M256,51c-0.5,2-16.4,59.3-74.3,114.2c-26-14.1-54.8-26.6-86.4-36.5c4.9-6.1,10.1-12,15.8-17.7
			C151.1,71,203.5,51,256,51z"/>
		<path class="st1" d="M109,121.8c39.6-39.6,91.4-59.6,143.3-60c2.4-6.4,3.5-10.3,3.6-10.8c-52.4,0-104.9,20-144.9,60
			c-5.7,5.7-10.9,11.6-15.8,17.7c1.9,0.6,3.7,1.2,5.6,1.8C103.5,127.5,106.2,124.6,109,121.8z"/>
		<path class="st2" d="M397.4,107.6l-120,126c-26.7-24.4-58.5-48.1-95.8-68.3C239.6,110.3,255.4,53,256,51
			C306.9,51,357.8,69.8,397.4,107.6z"/>
		<path class="st3" d="M262.2,61.8c47.2,0,94.4,16.2,132.5,48.6l2.6-2.8C357.8,69.8,306.9,51,256,51c-0.5,2-16.4,59.3-74.3,114.2
			c3.7,2,7.4,4.1,11,6.2C246.7,117.9,261.7,63.7,262.2,61.8z"/>
		<path class="st0" d="M401,111c40,40,60,92.5,60,145c-1.9,0.5-53.8,14.9-106.2,66.2c-18.9-27.3-44.3-58.6-77.4-88.7l120-126
			C398.6,108.7,399.8,109.9,401,111z"/>
		<path class="st1" d="M397.4,122.6c1.2,1.1,2.4,2.3,3.6,3.5c36.3,36.3,56.1,82.7,59.5,130.1c0.3-0.1,0.5-0.1,0.5-0.1
			c0-52.5-20-104.9-60-145c-1.2-1.2-2.4-2.3-3.6-3.5l-120,126c2.6,2.3,5.1,4.7,7.6,7.1L397.4,122.6z"/>
		<path class="st0" d="M354.8,322.2c31.2,45.1,44.5,79.4,44.8,80.1c-36.2,35.5-82.3,54.9-129.2,58.2
			C291.4,397.6,323.2,353.2,354.8,322.2z"/>
		<path class="st1" d="M353.9,337.2c21.3,30.8,34.3,56.5,40.4,70c1.8-1.6,3.5-3.2,5.2-4.9c-0.3-0.7-13.6-35-44.8-80.1
			c-31.6,30.9-63.4,75.4-84.4,138.3c1.6-0.1,3.1-0.2,4.7-0.4C295.9,405.3,325,365.6,353.9,337.2z"/>
		<path class="st2" d="M277.4,233.5c33,30.1,58.5,61.4,77.4,88.7c-31.6,30.9-63.4,75.4-84.4,138.3c-4.8,0.3-9.5,0.5-14.3,0.5
			c-50.9,0-101.8-18.9-141.4-56.5L277.4,233.5z"/>
		<path class="st3" d="M277.4,246.9c29.9,27.3,53.6,55.5,71.8,80.9c1.8-1.9,3.7-3.7,5.5-5.5c-18.9-27.3-44.3-58.6-77.4-88.7
			L114.6,404.5c2.2,2.1,4.5,4.2,6.8,6.2L277.4,246.9z"/>
		<path class="st0" d="M277.4,233.5L114.6,404.5c-1.2-1.1-2.4-2.3-3.6-3.5c-43.7-43.7-63.5-102.2-59.5-159.3
			c57.6-19.3,99.7-47.6,130.2-76.5C218.9,185.4,250.7,209.1,277.4,233.5z"/>
		<path class="st1" d="M53,254.2c57.6-19.3,99.7-47.6,130.2-76.5c34,18.4,63.3,39.7,88.5,61.8l5.7-6c-26.7-24.4-58.5-48.1-95.8-68.3
			c-30.5,28.9-72.5,57.2-130.2,76.5c-1,15-0.4,30,1.8,44.9C52.3,275.8,52.2,265,53,254.2z"/>
		<path class="st2" d="M95.3,128.7c31.6,9.9,60.4,22.4,86.4,36.5c-30.5,28.9-72.5,57.2-130.2,76.5C54.3,201.5,68.9,161.9,95.3,128.7
			z"/>
		<path class="st3" d="M98.9,139.6c27.7,8.7,53.2,19.3,76.6,31.3c2.1-1.9,4.1-3.8,6.1-5.7c-26-14.1-54.8-26.6-86.4-36.5
			c-26.4,33.2-41,72.8-43.8,113c1.7-0.6,3.3-1.1,4.9-1.7C61.1,204.2,75.3,169.3,98.9,139.6z"/>
		<path class="st2" d="M401,401c-0.5,0.5-0.9,0.9-1.4,1.4c-0.3-0.7-13.6-35-44.8-80.1c52.4-51.3,104.3-65.7,106.2-66.2
			C461,308.5,441,360.9,401,401z"/>
		<path class="st3" d="M450.5,270.3c0,39.9-11.6,79.8-34.8,114.2c30.2-37.4,45.3-83,45.3-128.5c-1.9,0.5-53.8,14.9-106.2,66.2
			c0.6,0.9,1.3,1.8,1.9,2.8C404.6,283,448.7,270.7,450.5,270.3z"/>
		<path class="st4" d="M256,466c-54.2,0-105.6-20.6-144.8-57.9c-1.1-1-2.2-2.2-3.7-3.6c-43-43-65.2-102.5-61-163.2
			c3-42.5,18.5-82.5,44.8-115.7c5-6.3,10.4-12.4,16.2-18.1C147.2,67.9,199.9,46,256,46c54.2,0,105.7,20.6,144.9,57.9
			c1.1,1,2.3,2.2,3.7,3.6C444.2,147.2,466,199.9,466,256c0,56.1-21.9,108.8-61.5,148.5c-0.5,0.5-1,0.9-1.4,1.4
			c-35.6,35-82.6,56.1-132.4,59.6C265.8,465.8,260.8,466,256,466z M256,56c-53.4,0-103.6,20.8-141.4,58.6
			c-5.4,5.4-10.6,11.2-15.4,17.3C74.1,163.5,59.3,201.6,56.5,242c-4,57.8,17.1,114.5,58.1,155.4c1.3,1.3,2.5,2.4,3.5,3.4
			c37.4,35.6,86.3,55.2,138,55.2c4.6,0,9.3-0.2,14-0.5c47.4-3.3,92.1-23.5,126.1-56.8c0.5-0.4,0.9-0.9,1.4-1.3
			c37.8-37.8,58.6-88,58.6-141.4c0-53.4-20.8-103.7-58.6-141.4c-1.3-1.3-2.4-2.4-3.5-3.4C356.6,75.6,307.6,56,256,56z"/>
		<path class="st4" d="M50.9,246.9c-2.1,0-4.1-1.4-4.8-3.5c-0.8-2.6,0.6-5.4,3.3-6.3l0.5-0.2c50.1-16.8,93.3-42.1,128.3-75.3
			c56.9-54,72.3-109.5,72.9-111.9c0-0.1,0-0.1,0.1-0.2c0.6-2.1,2.5-3.5,4.8-3.5c2.8,0,5,2.2,5,5c0,0.5-0.1,1-0.2,1.5
			c-1,3.6-17.4,61.2-75.7,116.4c-36.1,34.2-80.5,60.3-132,77.6l-0.2,0.1c-0.2,0.1-0.3,0.1-0.5,0.2C51.9,246.8,51.4,246.9,50.9,246.9
			z"/>
		<path class="st4" d="M270.1,466.1c-0.8,0-1.6-0.2-2.4-0.6c-2.2-1.2-3.1-3.8-2.3-6.1l0-0.1c0-0.1,0.1-0.3,0.1-0.4
			c18.6-55.6,47.4-102.8,85.7-140.2c52.9-51.8,105-66.5,108.3-67.4c0.5-0.1,1-0.2,1.4-0.2c2.8,0,5,2.2,5,5c0,2.3-1.5,4.2-3.5,4.8
			c-0.1,0-0.2,0-0.2,0.1c-0.5,0.1-52.3,14.3-104,64.9c-37.1,36.3-65.1,82.2-83.2,136.3c0,0.1,0,0.1-0.1,0.2l-0.1,0.3
			c-0.1,0.3-0.2,0.6-0.4,0.9C273.6,465.1,271.9,466.1,270.1,466.1z"/>
		<path class="st4" d="M399.6,407.3c-2.2,0-4.1-1.4-4.7-3.4c-1.2-3.1-14.7-36.2-44.2-78.9c-22.3-32.3-48.1-61.8-76.6-87.9
			c-29-26.5-60.9-49.2-94.8-67.6c-27-14.7-55.8-26.8-85.5-36.1c-2.6-0.8-4.1-3.6-3.3-6.3c0.8-2.6,3.6-4.1,6.3-3.3
			c30.4,9.5,59.7,21.9,87.3,36.9c34.6,18.8,67.1,42,96.7,69c29.1,26.5,55.4,56.7,78.1,89.6c30.5,44,43.9,77.4,45.3,81.1
			c0.2,0.6,0.4,1.2,0.4,1.8C404.6,405.1,402.3,407.3,399.6,407.3z"/>
		<path class="st4" d="M114.6,409.5c-1.3,0-2.6-0.5-3.5-1.5c-2-2-2-5.1,0-7.1l282.7-296.9c0,0,0.1-0.1,0.1-0.1c2-2,5.1-2,7.1,0
			c2,2,2,5.1,0,7L118.2,407.9c0,0-0.1,0.1-0.1,0.1C117.2,409,115.9,409.5,114.6,409.5z"/>
		<path class="st4" d="M411,466H71c-2.8,0-5-2.2-5-5s2.2-5,5-5h340c2.8,0,5,2.2,5,5S413.8,466,411,466z"/>
		<path class="st4" d="M451,466h-10c-2.8,0-5-2.2-5-5s2.2-5,5-5h10c2.8,0,5,2.2,5,5S453.8,466,451,466z"/>
	</g>
</g>
</svg>
